<svg xmlns="http://www.w3.org/2000/svg" id="Layer_1" viewBox="0 0 512 512" width="512" height="512"><style>.a{fill:#f9f9f9;}</style><path d="M445 393c4 0 8-4 8-8 0-4-4-8-8-8h-32c-4 0-8 4-8 8 0 4 4 8 8 8H445z" class="a"/><path d="M331 189c4 0 8-4 8-8 0-4-4-8-8-8h-32c-4 0-8 4-8 8 0 4 4 8 8 8H331z" class="a"/><path d="M226 385c0-4-4-8-8-8h-32c-4 0-8 4-8 8 0 4 4 8 8 8h32C223 393 226 390 226 385z" class="a"/><path d="M490 411V224c0-10-8-19-19-19h-94V19C377 8 369 0 358 0H154c-10 0-19 8-19 19V205H40c-10 0-19 8-19 19v187C9 414 0 426 0 439v32c0 16 13 30 30 30h26C59 508 65 512 73 512h65c8 0 14-4 17-11h177c4 0 8-4 8-8s-4-8-8-8H156v-13c0-10-8-19-19-19H73c-10 0-19 8-19 19v13H30c-7 0-13-6-13-13v-32c0-7 6-13 13-13h162c4 0 8-4 8-8s-4-8-8-8h-154V224c0-1 1-3 3-3H102V256c0 3 2 7 6 8l65 22c2 1 5 0 7-1 2-2 3-4 3-7v-57h94c4 0 8-4 8-8s-4-8-8-8H151V19c0-1 1-3 3-3h62V51c0 3 2 7 6 8l65 22c2 1 5 0 7-1 2-2 3-4 3-7V16H358c1 0 3 1 3 3V205h-51c-4 0-8 4-8 8s4 8 8 8h19V256c0 3 2 7 6 8l65 22c2 1 5 0 7-1 2-2 3-4 3-7v-57h62c1 0 3 1 3 3V410h-24c-4 0-8 4-8 8s4 8 8 8h32c7 0 13 6 13 13v32c0 7-6 13-13 13h-24v-13c0-10-8-19-19-19h-65c-10 0-19 8-19 19v22c0 10 8 19 19 19h65c8 0 14-4 17-11h26c16 0 30-13 30-30v-32C512 426 503 414 490 411zM70 472c0-1 1-3 3-3h65c1 0 3 1 3 3v21c0 0 0 0 0 0 0 0 0 0 0 0 0 1-1 3-3 3H73c-1 0-3-1-3-3V472zM167 221v45l-49-16v-29H167zM280 62l-49-16V16h49V62zM393 266l-49-16v-29h49V266zM442 493c0 1-1 3-3 3h-65c-1 0-3-1-3-3v-22c0-1 1-3 3-3h65c1 0 3 1 3 3V493z" class="a"/><path d="M224 426h194c4 0 8-4 8-8s-4-8-8-8h-154V245c0-4-4-8-8-8 -4 0-8 4-8 8V410h-24c-4 0-8 4-8 8S219 426 224 426z" class="a"/></svg>