<svg xmlns="http://www.w3.org/2000/svg" width="210" height="297" viewBox="0 0 21000 29700" style="image-rendering:optimizeQuality;shape-rendering:geometricPrecision;text-rendering:geometricPrecision"><defs><style type="text/css">  
    .fil53 {fill:#0B468F}
    .fil37 {fill:#0C2F4C}
    .fil36 {fill:#103C62}
    .fil39 {fill:#152630}
    .fil17 {fill:#16558B}
    .fil28 {fill:#195C93}
    .fil22 {fill:#1A65A5}
    .fil6 {fill:#1C70B8}
    .fil16 {fill:#1D6AAC}
    .fil20 {fill:#1D71B9}
    .fil14 {fill:#1E72BA}
    .fil32 {fill:#1F70AF}
    .fil11 {fill:#2077BE}
    .fil12 {fill:#2276BD}
    .fil52 {fill:#234865}
    .fil62 {fill:#293742}
    .fil49 {fill:#3385C5}
    .fil21 {fill:#4186C2}
    .fil15 {fill:#4187C3}
    .fil23 {fill:#468CC7}
    .fil65 {fill:#4B5A78}
    .fil44 {fill:#4CAAE3}
    .fil41 {fill:#4E6479}
    .fil56 {fill:#4E93FD}
    .fil58 {fill:#536A97}
    .fil9 {fill:#556491}
    .fil31 {fill:#6C6F70}
    .fil19 {fill:#6C7CBB}
    .fil61 {fill:#739EC5}
    .fil50 {fill:#78A2C6}
    .fil34 {fill:#83B0F5}
    .fil55 {fill:#86B3D6}
    .fil45 {fill:#8AB5DB}
    .fil54 {fill:#94B9E7}
    .fil35 {fill:#A4CAE5}
    .fil59 {fill:#A5ACCB}
    .fil60 {fill:#ADBCC5}
    .fil5 {fill:#B1BEC6}
    .fil18 {fill:#BED6DA}
    .fil48 {fill:#C7D6DB}
    .fil38 {fill:#C7D8F0}
    .fil33 {fill:#D6B692}
    .fil30 {fill:#D7D8D8}
    .fil51 {fill:#DAC4A8}
    .fil27 {fill:#DAE6EB}
    .fil25 {fill:#E2C5A5}
    .fil46 {fill:#E4EBF1}
    .fil4 {fill:#E64A19}
    .fil8 {fill:#E7D4BB}
    .fil66 {fill:#E7D6C6}
    .fil2 {fill:#EBEEF2}
    .fil13 {fill:#ECDBC5}
    .fil3 {fill:#ECF1F4}
    .fil43 {fill:#ECF2F4}
    .fil47 {fill:#F0F4F8}
    .fil26 {fill:#F2CDB4}
    .fil7 {fill:#F3E3D3}
    .fil1 {fill:#F3F3F8}
    .fil63 {fill:#F3F4F4}
    .fil0 {fill:#F5E5D6}
    .fil10 {fill:#F5ECE2}
    .fil57 {fill:#F5F5F6}
    .fil24 {fill:#F6E9DB}
    .fil64 {fill:#F6F6FA}
    .fil42 {fill:#F7F8FC}
    .fil40 {fill:#F9EADC}
    .fil29 {fill:#FDFDFD}
   </style></defs><path class="fil0" d="M12630 18858l-203 176c-49 31-71 32-128 72-175 123-568 331-765 165-91-77-89-206-53-282 64-133 104-134 215-203 234-146 323-324 459-343-34-132-62-92 60-200 103-91 157-191 161-347 102 3 150 33 84 28l6-264c21-12 18-20 68-38 214-81 153 35 257 50l-97 209c-84 97-153 121-198 167l-59 80c0 1-40 59-44 64l-69 74c-6 6-14 14-20 22 214-175-13-59 279-239 112-69 38-62 113-141 45-48 79-31 156-105 6 5 11 9 13 19 11 69 90 63 155 74 24 63 24 43 28 140l135 56c-102 16 84 302 84 302-92 8-128 26-171 79l-40 52c-5 6-13 15-17 21-5 6-12 15-19 22-154-58-57-55-56-56-13 198-88 196-115 222-18 16-38 34-44 40-4 4-10 10-14 14-4 4-9 10-14 14l-147 56zm-2880-4170l-373 387c12-6 58-33 59-33l136-144c54-62 160-158 227-193-58 219 316 2873-897 2045-412-282-295-538-503-613l40-87c-99-63-171 10-183-143 57-58 34-56 141-79l-102 145c100-29 138-62 216-15 99 60 34 44 53 149-38-319-185-30-180-452 2-136 46-379 66-549l121-1144c36-177 83-174 39-296 43-19 2 17 99 59-13-143 17-85 28-288 217 27 408 84 536 217 23 24 22 28 40 46 4 4 10 10 15 15l287 280c47 52 35-52 60 157 28 233 127 228 75 536zm825-7443c-88-99-208-107-398-76-103 37-88 46-169 101 42 235 107 184 146 396 60 326 9 569-236 765-260 208-255 4-387 110-77-54-79 78-57-84-93 386-523 660-736 1039-286 508-218 587-308 1038-26 129-69 242-83 369-4 81 27 176 30 298 8 363-172 973-258 1317-52 204-102 330-121 497-46 427 46 804 4 1207-21 198-53 335-116 531-46 142-135 286-174 443l-43-37c-27 173-83 350-103 527-15 129-58 498-52 592 39 156 24 153 22 301 76-80 45-129 168-64 63 34 48 118 37 184l-167 48c144 100 72 27 237 28 33-53 54-56 42-127 11 191-165 27 158 486 295 418 787 854 1319 956 307 59 1061 47 1211 297 98 164 57 458 307 840 65 98 121 135 167 221 89-29 83-16 146-81-68 69-65 61-79 157 406 365 580 278 870 331l269-171c626-405 1050-831 1484-1356 281-340 952-1202 1106-1727-420 93-1298 15-1791 19-744 6-950 94-1420 428l101-604-5-78c70-233 83-410 59-658-6-67-33-246-45-299-16-76-48-146-70-230l4657 0c115 1 235 15 336-31l-5265 3c-18-238-171-403-289-577-98-144-245-360-313-508l126 3c-40-170-111-181-193-315-60-99-37-258-37-396 0-228-27-669 5-868l1-2157c-91 45-28 705-28 841l0 2660-96-81c-6-7-8-13-13-21-3-5-27-85-33-101-157-436-542-519-630-1172-82-610-94-1331 54-1895 187-710 316-793 604-1383 203-415 269-949 191-1412-16-97-95-330-33-401-56-118-24 9-23-143 1-270 32-998-9-1168l-37 5 4 1051c-1 218-6 102-44 132z"/><path class="fil1" d="M12822 11591c-37-957-37-997 675-998l1014-2c106 3 285-9 361 22l115 79c115 114 155 498 75 702-97 244-333 203-641 202-568-1-1108-10-1599-5zm-1678-1027l129-82c75-67 87-156 121-225l30-46c157-47 218-124 448-107 161 12 282 69 376 160 101 113-43 125 191 265l49 30c72 48 47 47 95 123 41 65 80 79 80 183 1 85-100 253-151 314l-161 86c-135 114-45 117-349 247l-22 132c-120 27-207 30-329-2l-21-123c-82-47-214-70-268-176-477-80-398-514-345-602l127-177zm3917-3187l26-544c132-142 128-177 344-173 192 5 214-104 444-21 253 91 427 337 363 700 123 60 57 196-1 302-175 318-180 652-551 639-325-12-416-335-483-435-150-229-171-116-142-468zm-4377-9c54 87 72 58 151 137l134 156c2-5 9 11 13 17 10-443-120-925 266-1064 611-24 1268-3 1884-3 318 0 635 1 953 0 309-1 686-58 713 234 96 101 40 932 40 1136 0 380 16 796-4 1180l-3568-8c-43 22-41-8-86 144-236 809-502 785-512 1036l-1 2157c1980 0 3961 0 5942 0l-2-304c-157-149-167-476-106-668l103-186c34-435 6-899-7-1335-14-429 17-880 16-1316-2-413 48-2393-21-2625l-5940 1c41 170 10 898 9 1168-1 152-33 25 23 143z"/><path class="fil2" d="M14729 3709c69-55 120-125 241-91 100 29 151 125 123 239-42 178-405 241-364-148zm-1833 33c73-36 1327-22 1450 3 35 164 3 180-177 180l-1065 0c-175 0-249-6-208-183zm2595 149c-251 13-171-164-81-187 144-36 115 123 81 187zm-5157 257l3 2976-160 45c190-31 310-23 398 76-8-402-48-2459 19-2701 136-54 4482-26 5339-26 202 0 593-60 723 52 100 108 45 932 45 1142-1 540-37 3430 16 3557-7-17-72 43 26-60 139-146 177-1 166-257l-4-238 2-649 3-1454-4-1223c2-386 0-773 0-1160 0-382 61-813-286-909-185-52-4194-17-4748-17-1418-1-1544-193-1538 846z"/><path class="fil3" d="M16684 15095l-51 53c-101 46-221 32-336 31l-4657 0c22 84 54 154 70 230 12 53 39 232 45 299 24 248 11 425-59 658l4237-1c246 1 616 52 769-110 188-199 131-404 136-712 4-289 1-579 2-868-82-57-172-70-123-112 0 164 23 418-33 532z"/><path class="fil4" d="M10982 7678l-2 37c118 98 213 411 250 598 64 325-11 550-3 826l39 14 3568 8-25-2312c-8-127-85-202-234-224l-3327-11c-386 139-256 621-266 1064z"/><path class="fil5" d="M15269 14348l439 5 1 451-451-11 11-445zm-1787 445c-64-87-156-138-106-295 45-138 177-167 332-138 130 78 156 347-24 423-81 35-119 19-202 10zm-2000-230c39-46 8-14 55-54 112-96 225-165 378-163l-3 462c-145-5-144-23-249-86-197-117-143-63-181-159zm5207-280c-19-67-62-181-112-244l-121 19-4036 13-1556-2 367 461c64 77 122 146 178 239 252 416-123 270 1387 270l3193 1c125 0 531 49 589-29l32-618c45-120-29-23 79-110z"/><path class="fil6" d="M6532 19401l576 593c27 23 30 24 46 40l1135 1138c46 41 34 23 61 48l248 181 207-68c3 1 10 5 15 8-83 85-118 100-168 200l370 357c5 4 10 10 15 14l207 210c178 158 68 159 190 171 49-18 38-22 85-83 115-152 529-704 550-811-61-102-300-264-340-392-75 53-70 75-141 123-62 42-132 68-209 74-189 16-288-41-374-152-91-90-216-175-221-384-6-235 156-293 175-387-97-140-50-25-185-180-95-110-132-140-223-230l-977-978c-195-168-308-359-407-402-100 77-624 749-635 910z"/><path class="fil6" d="M5191 23968c246 64 102 358 484-53-69 96-157 145-225 254l96 110c37 37 64 67 111 112 37 36-5-8 42 40l1236 1234c102 115 151 108 204 245-37-121 34-32 84-4 240-732 41-365 409-991 30-50 20-23 33-68l-370-386c-72-73-296-314-376-357l8-153c-21 27-13-11-44 82-9 29-7 44-9 73-47-146 21 42 30-175l-73 52-660-644c-73-91-431-444-494-458l-486 1087z"/><path class="fil7" d="M16657 11581l-4 75c161 215 174 359 435 521 250 156 458 182 811 170l52-70c-103-116-100-226-193-356-3-5-8-11-12-16-3-5-8-11-12-15-131-175-42-152-170-218l-370-218c90-191 365-444 602-262 227 174 261 383 312 712 29-36 15-2 33-63 81-283-138-797-458-927-399-17-365-55-769 49-22 100-125 64-218 207-28-143-35-752 9-869 3 74 35 73 134 99l-7-142c153 124 346 259 641 275 531 29 423-216 594-340-146-56-43 17-117-118-26-45-35-69-72-122-42-60-40-57-75-118-67-116-141-142-323-259-134-87-182-68-286-167l133-152c302-334 560-154 726 188 94 193 87 195 109 406 110-141-12-463-85-595-94-171-185-270-378-375-153-21-268-30-423-12-147 17-251 68-367 83 11 256-27 111-166 257-98 103-33 43-26 60-53-127-17-3017-16-3557 0-210 55-1034-45-1142l1 7011z"/><path class="fil8" d="M10528 10481l15 3077c-165-302-169-142-167-676 2-289-2-579-2-868 1-190-24-1108 24-1251 38-113 134-206 130-282zm-168 189c-1 177-45 203-45 616l-11 1738c49-53 11-38-40-231-26-96-44-174-62-275-37-212-49-430-60-644-12-224 13-426 35-641 15-155 8-255 64-418 72-210 7-81 119-145zm308-337c10-251 276-227 512-1036 45-152 43-122 86-144l-39-14c-318-71-206-322-187-625 19-312-72-511-60-799l2-37c-4-6-11-22-13-17l-134-156c-79-79-97-50-151-137-62 71 17 304 33 401 78 463 12 997-191 1412-288 590-417 673-604 1383-148 564-136 1285-54 1895 88 653 473 736 630 1172 6 16 30 96 33 101 5 8 7 14 13 21l96 81 0-2660c0-136-63-796 28-841z"/><path class="fil9" d="M15615 4872c-35 22 13 25-99 38-38 5-48-6-79-12 7-154 26-132 179-158l-1 132zm-496-87c36-32 78-57 115-80l0 201-209 4 94-125zm1187-132c4 7 11 15 14 21l22 182c-1 5-7 26-8 22-1-4-6 14-9 22-177 16-161-92-139-253l120 6zm-236 44c29 138-17 208-137 203-48-84-46-171 17-257l120 54zm-1308 204c-29-22-21-13-49-41-95-93-67-100-69-158 146-49 240-20 170 112-15 29-29 34-52 87zm1608-106c-4-205 224-214 148 110l-128-5-20-105zm-5755 1267l37-5-4-1067 1840-2 4090 6 3 1054 11 8c69 232 19 2212 21 2625 1 436-30 887-16 1316 13 436 41 900 7 1335l3 854 2 304-4 753 0 281c49-70 40-36 67-60l6-28c34-309 9-455 9-778 0-170 11-367 3-533-8-167-86-310-37-469l4-75c-87-132 49-6648-52-6986-94-47-5896-70-5962 1-61 106-44 1254-28 1466z"/><path class="fil10" d="M8450 15106c-20 170-64 413-66 549-5 422 142 133 180 452-19-105 46-89-53-149-78-47-116-14-216 15l102-145c-107 23-84 21-141 79 12 153 84 80 183 143l-40 87c208 75 91 331 503 613 1213 828 839-1826 897-2045-67 35-173 131-227 193l-136 144c-1 0-47 27-59 33l373-387c-85-7-144-30-181-33l-500 17c-52-1-142-15-162-17l-374 18 88 116c-97 17-61-1-98 82l103 142c-5 5-10 13-13 16l-62 54c-56 29-14 23-101 23z"/><path class="fil11" d="M5191 23968c-36 59-97 192-114 221-40 218-204 471-253 694l-18 42c103 42 293 258 382 356l202 186c4 4 9 11 12 16 6 6 20 24 26 30l378 379c86 79 153 153 240 240 34 35 20 23 53 58 364 388 281 309 816 302 150-2 140-21 254 58l54-644c-50-28-121-117-84 4-53-137-102-130-204-245l-1236-1234c-47-48-5-4-42-40-47-45-74-75-111-112l-96-110c68-109 156-158 225-254-382 411-238 117-484 53z"/><path class="fil12" d="M6476 19441c-46 129-155 337-214 486-66 168-118 352-185 513 439 439 1078 566 1649 901 513 302 653 462 999 908 60 78 180 312 236 363l108 251c21-153 279-395 365-570-122-12-12-13-190-171l-207-210c-5-4-10-10-15-14l-370-357c50-100 85-115 168-200-5-3-12-7-15-8l-207 68-248-181c-27-25-15-7-61-48l-1135-1138c-16-16-19-17-46-40l-576-593c-54 37-5-22-56 40z"/><path class="fil13" d="M7465 16354l-16 502c56 0 120 15 161 61 44 51 89 276 207 497 353 669 896 880 1630 1170 480 190 850 472 1109 768 107 121 554 981 844 1036 61-45 438-398 497-480l55-53c-290-53-464 34-870-331 14-96 11-88 79-157-63 65-57 52-146 81-46-86-102-123-167-221-250-382-209-676-307-840-150-250-904-238-1211-297-532-102-1024-538-1319-956-323-459-147-295-158-486 12 71-9 74-42 127-165-1-93 72-237-28l167-48c11-66 26-150-37-184-123-65-92-16-168 64 2-148 17-145-22-301l-49 76z"/><path class="fil11" d="M7167 18449l0 42c99 43 212 234 407 402l977 978c91 90 128 120 223 230 135 155 88 40 185 180 133-46 275-97 428-40 153 57 122 125 254 198 59-34 130 178 138 229 12 80 9 115-10 192-22 88-33 57-40 147 40 128 279 290 340 392 146-107 309-435 378-589-136-36-43-2-105-71-4-4-8-11-12-15l-420-425c-4-4-63-67-66-70l-19-19c-2-3-8-8-11-11l-205-212c-52-54-111-117-161-172l-1017-1002c-75-77-102-84-172-158l-286-301c-62-53-128-131-210-150 5-71-17-50 49-70-35-64-80-135-143-154-79-8-89 30-137 84-45 51-69 83-118 135-53 55-177 198-247 250z"/><path class="fil14" d="M10447 20810c108-229 185-513 159-813-36-419-149-469-280-738-149-103-178-151-407-251-145-64-311-119-475-168-344-103-642-192-954-314-146-46-250-110-368-185-55-35-117-73-167-113-86-69-60-74-143-94-66 20-44-1-49 70 82 19 148 97 210 150l286 301c70 74 97 81 172 158l1017 1002c50 55 109 118 161 172l205 212c3 3 9 8 11 11l19 19c3 3 62 66 66 70l420 425c4 4 8 11 12 15 62 69-31 35 105 71z"/><path class="fil15" d="M4075 23179c74 198 116 103 342 381l91 98c211 183 259 258 411 407 72 71 83 99 158 124 17-29 78-162 114-221l486-1087c33-100 59-128 99-222l-130 107c-90-57-404-345-481-462-111-167 48 12-42-52-168-120-91-64-257-236-53-56-196-197-252-227-8 9-536 1366-539 1390z"/><path class="fil16" d="M6413 21331c6 4 16 3 19 12l351 240c255 172 535 246 433 782-39 203-51 377-160 463 34 78 38 204-11 269-51 54 29 16-92 49 76 61 63 52 50 171-23 208-99 385-99 614-9 217-77 29-30 175 2-29 0-44 9-73 31-93 23-55 44-82 18-65 44-115 68-175l118-252c26-64 54-105 116-136 43-21-36-55 83-3-30-93-48-84 12-160 6-6 15-22 18-17l354-244c398-201 817 68 1018 388 67 106 73 62 132 192 75-54 173-207 188-298-47-24-26-11-57-46-4-4-29-40-49-61-5-6-22-23-28-28l-327-318c-7-7-23-25-41-45-27-30-22-24-42-44l-253-243c-3-3-9-8-12-11-2-2-8-8-10-10-36-37-2-5-50-55-29-31-36-33-70-69-86-88-67-117-192-153-12 15-24 39-31 47-24 32-9 15-39 46l-456 469c-37 35 28-14-49 42-43 31-69 48-105 41l54-99c3-5 7-12 10-17l133-145c152-144 316-339 421-395 7-4 34-16 42-22-46-98-78-113-166-194-4-4-10-10-14-14l-314-324c-50-55-125-103-183-180l130 34c-111-143-691-239-1066-502l-314-275c-172-225-309-542-342-574 69 329 93 489 254 745 126 200 322 362 545 485z"/><path class="fil17" d="M9221 22912c47 20 20 12 46 51l66 30-12 89c73 132-78 651-121 765-174 456-362 543-636 797-117 110-408 193-745 461-92 74-60 77-110 46-242 188-363 1049-461 1396l2191 2 1-37-144 17-1952-1 31-194c32-300 351-762 504-920 396-412 856-455 1225-849 488-522 425-1062 497-1544 112 16 189 83 296 128 246 103 749 183 1023 180 36-38 35 50 35-112l-35-100-327-8c-257-59-631-179-848-337-68-49-52-35-97-87 39-79 575-630 723-915 58-110 70-161 145-267l128-263c87-226 111-476 163-675l-31-201-12-86c-97 1017-1414 2311-1543 2634z"/><path class="fil18" d="M13832 10964c177-19 171 259 169 264-25 41-85 23-120 74-30 43 3 9 7 10-112-15-271-18-224-183l168-165zm-592 17c312-5 253 280 105 319-97 26-177-32-197-114-26-103 41-153 92-205zm-418 610c491-5 1031 4 1599 5 308 1 544 42 641-202 80-204 40-588-75-702l-115-79c-76-31-255-19-361-22l-1014 2c-712 1-712 41-675 998z"/><path class="fil19" d="M16220 5570c84-42 62-44 97 30-109 97-61 19-97-30zm0-140c69-38 57-51 95 30-111 96-60 14-95-30zm-756-24c154-37 99-20 181-130 18 29 32 63 68 91l113 73c-97 72-74 35-66 183-193-54-70-20-235-5 28-172 8-104-61-212zm759-86c37-84 27-71 96-31-35 83-2 103-96 31zm358 728l-3-1054-5930-4 4 1067 3952-20c328-14 1746-47 1977 11z"/><path class="fil20" d="M4403 26022c-12 79-139 478-149 497-194 46-528 18-740 20l-1758-3-23 9 5441-1-5 6c-114-79-104-60-254-58-535 7-452 86-816-302-33-35-19-23-53-58-87-87-154-161-240-240l-378-379c-6-6-20-24-26-30-3-5-8-12-12-16l-202-186c-89-98-279-314-382-356l-403 1097z"/><path class="fil21" d="M3123 24802c61 34 38 17 84 53 51 40 17 12 56 54l385 401c163 198 60-16 158 179 47 95 28 154 228-3-94 76-65 25-88 164 182 46 216 220 403 347 62 42-97 4 54 25l403-1097 18-42c-50-39-20 0-68-61-139 55-85 90-185 149 118-127 79-66 170-209-93-20-20 62-131-51l-662-684c-111-105-141-166-233-197-92 141-196 343-286 494-97 163-228 328-306 478z"/><path class="fil22" d="M10593 23109c-42-73-45-4-10-115l174-331c82-161 127-344 210-496 73-200 121-449 187-633 36-147 72-653 18-773l-365-196c-52 199-76 449-163 675l-128 263c-75 106-87 157-145 267-148 285-684 836-723 915 45 52 29 38 97 87 217 158 591 278 848 337z"/><path class="fil16" d="M7375 26334c6-6 13-25 15-20 8 15 93-215 148-188 0 0 2 3 1 4 35-361 598-725 661-828l506-164c54-18 71-27 124-36 376-64 167-83 386-107 89 18 37 4 107 32-3-4-43-48-57-66 88-68 146-92 233-170l247-312c15-27 51-102 65-131l101-273c1-158 70-294 70-484 85 10 175 10 256 25 444 82 125 31 428 24 78-2 160 15 246 17-12-50 0-19 57-104l4-336-18 0c0 162 1 74-35 112-274 3-777-77-1023-180-107-45-184-112-296-128-72 482-9 1022-497 1544-369 394-829 437-1225 849-153 158-472 620-504 920z"/><path class="fil15" d="M4880 21057l12 115c90 58-71-14 27-6l612 527c92 107-10 78 152 152 240 108 99 103 83 127 93 76 171 68 204 226 68-56-7 22 43-48 27-37 24-39 44-72 26-44 49-78 75-115 58-228 272-402 281-632-223-123-419-285-545-485-161-256-185-416-254-745l-11-189c-212 134-329 256-461 497-70 128-264 523-262 648z"/><path class="fil23" d="M2581 25536c8 166 4 47 42 97l338 301c37 31-42 16 89 108 160 111-9-42 27 20l20 47c27 33 386 343 417 430 212-2 546 26 740-20 10-19 137-418 149-497-151-21 8 17-54-25-187-127-221-301-403-347 23-139-6-88 88-164-200 157-181 98-228 3-98-195 5 19-158-179l-385-401c-39-42-5-14-56-54-46-36-23-19-84-53-188 203-338 512-542 734z"/><path class="fil14" d="M12638 20333c-50 342-179 558-523 605-373 50-637-102-943-177 54 120 18 626-18 773l767 765c5 3 59 38 67 44 82-71 116-198 188-287 105-265 278-521 392-802 58-144 115-313 135-481 27-217-44-383-38-521-28 30-25-47-27 81z"/><path class="fil20" d="M7375 26334l-31 194 1952 1c-46-180-814-897-973-1050-81-78-96-54-123-177-63 103-626 467-661 828 1-1-1-4-1-4-55-27-140 203-148 188-2-5-9 14-15 20z"/><path class="fil12" d="M5970 22198c-20 135-144 309-194 461-40 94-66 122-99 222 63 14 421 367 494 458l660 644 73-52c0-229 76-406 99-614 13-119 26-110-50-171 121-33 41 5 92-49-129 22-274 32-403 7l-7-263c174-24 106-104 321-49-52-139-753-797-824-829-26 37-49 71-75 115-20 33-17 35-44 72-50 70 25-8-43 48z"/><path class="fil12" d="M8200 25302c27 123 42 99 123 177 159 153 927 870 973 1050l144-17c52-174 95-296 162-469 62-159 152-309 199-463-80-47-238-211-299-275-60-64-74-77-135-139-64-64-116-86-151-171-219 24-10 43-386 107-53 9-70 18-124 36l-506 164z"/><path class="fil11" d="M6927 23951l-8 153c80 43 304 284 376 357l370 386 171-176c151-163 418-323 514-514 0 0-227-264-304-274-6-1-33 4-42 6 3-8 8-21 8-25-4-81-27-89-84-147-124-125-435-405-495-511l-109 19c-60 76-42 67-12 160-119-52-40-18-83 3-62 31-90 72-116 136l-118 252c-24 60-50 110-68 175z"/><path class="fil24" d="M8450 15106c87 0 45 6 101-23l62-54c3-3 8-11 13-16l-103-142c37-83 1-65 98-82l-88-116 374-18c20 2 110 16 162 17l500-17c37 3 96 26 181 33 52-308-47-303-75-536-25-209-13-105-60-157l-287-280c-5-5-11-11-15-15-18-18-17-22-40-46-128-133-319-190-536-217-11 203-41 145-28 288-97-42-56-78-99-59 44 122-3 119-39 296l-121 1144z"/><path class="fil25" d="M8490 18526c312 122 610 211 954 314 164 49 330 104 475 168 229 100 258 148 407 251 328 160 407 601 438 1019l12 86c89 101 261 235 426 249 81-90 140-122 198-225-290-55-737-915-844-1036-259-296-629-578-1109-768-734-290-1277-501-1630-1170-118-221-163-446-207-497-41-46-105-61-161-61 71 371 194 691 391 981 197 291 338 411 591 617 91 74 55 24 59 72z"/><path class="fil21" d="M5809 18225c-61 126-123 254-122 254l12 40c29 147-18 17 127 158l236 244c104 94 277 241 348 348 61 92 48 50 66 172 51-62 2-3 56-40 11-161 535-833 635-910l0-42c-181-112-306-300-473-440-2-2-9-7-12-9l-42-36c-40-45-11-32-67-83l-411-240-353 584z"/><path class="fil23" d="M6573 17881c56 51 27 38 67 83l42 36c3 2 10 7 12 9 167 140 292 328 473 440 70-52 194-195 247-250 49-52 73-84 118-135 48-54 58-92 137-84-66-141-162-285-237-462-94-223-74-259-116-386-11-33-8-29-26-60-44-77 3-14-41-47-18-89-69-137-130-201-61-67-82-69-96-133 0-2 2-8 2-14-1-7 0-10 2-14 58-15-4-43 66 42 28 33 36 52 55 84l103-100 0-283c-190 106-519 457-680 640-164 187-86 104-95 217-159 63-105 25-197 163-47 71-77 139-117 215l411 240z"/><path class="fil26" d="M15815 7544c48-250 273 52 0 0zm-422-6c-59-54-2-71-1-73 103-22 77-22 100 79-45 8-62 27-99-6zm-332-161c-29 352-8 239 142 468 67 100 158 423 483 435 371 13 376-321 551-639 58-106 124-242 1-302-43 62-61 135-121 152-23-233 41-307-30-527-159-4-276 56-433 66-160 10-295-39-425-9-50 233 11 370-4 588-57-75-104-149-164-232z"/><path class="fil23" d="M5518 19226c-2 134 3 243 32 366 31 134 92 200 58 311 116 54 155 194 222 283 74 100 164 203 247 254 67-161 119-345 185-513 59-149 168-357 214-486-18-122-5-80-66-172-71-107-244-254-348-348l-236-244c-145-141-98-11-127-158-53 41-58 66-84 150-57 181-99 367-97 557z"/><path class="fil27" d="M11662 11216l312-7c-19 223-297 211-312 7zm380-381l119 32-18 109-119 2 18-143zm-547 17c123-32 140 16 103 135l-107-21c-22-66-11-18-12-71l16-43zm-351-288c125 48-6 3-8 273-1 194 70 241 40 319-22 57-116-20-6 69 137 112 318 37 319 37 164-26 104-25 159 52-85 71 115 46-138 56-26 1-112-21-148-27 54 106 186 129 268 176 146 22 227 35 372-7 304-130 214-133 349-247l161-86c-168 18-52 16-87-33 45-99 67-193 69-310 1-96-3-73-25-145-56-178-42-88 19-132l-49-30c-234-140-90-152-191-265 80 505-926 517-824-53l-30 46c-34 69-46 158-121 225l-129 82z"/><path class="fil23" d="M4614 21789c56 30 199 171 252 227 166 172 89 116 257 236 90 64-69-115 42 52 77 117 391 405 481 462l130-107c50-152 174-326 194-461-33-158-111-150-204-226 16-24 157-19-83-127-162-74-60-45-152-152l-612-527c-98-8 63 64-27 6l-12-115-47 78c-3 7-6 14-9 21l-210 633z"/><path class="fil13" d="M7800 12427c-33 225-91 394-100 650-9 233 28 464 41 682 30 498-10 928-72 1400l43 37c39-157 128-301 174-443 63-196 95-333 116-531 42-403-50-780-4-1207 19-167 69-293 121-497 86-344 266-954 258-1317-3-122-34-217-30-298-75 111-228 594-293 767-53 137-225 716-254 757z"/><path class="fil28" d="M5614 20101c33 32 170 349 342 574l314 275c375 263 955 359 1066 502 93-11 365 176 444 227 324 214 961 932 1181 933-56-51-176-285-236-363-346-446-486-606-999-908-571-335-1210-462-1649-901-83-51-173-154-247-254-67-89-106-229-222-283l-5 9 11 189z"/><path class="fil0" d="M16906 13212l13 35c27 306-2-12-196 384l-45 91-6 28c-59 226 132 440 292 567 197 156 468 302 738 218 51 21 15 6 23-21-35-98-58-202-95-283l-63-128c-4-7-14-30-18-37l-139-169c-115-115-254-154-245-239 23-70 153-159 220-183 348-126 483 205 508 476 13 142-6 80 50 186 114-162 14-480-62-624-78-146-229-315-393-354-276 10-329 8-582 53z"/><path class="fil23" d="M3715 23830c92 31 122 92 233 197l662 684c111 113 38 31 131 51-91 143-52 82-170 209 100-59 46-94 185-149 48 61 18 22 68 61 49-223 213-476 253-694-75-25-86-53-158-124-152-149-200-224-411-407l-91-98c-226-278-268-183-342-381-46 33-314 555-360 651z"/><path class="fil6" d="M7324 23225l109-19c60 106 371 386 495 511 57 58 80 66 84 147 0 4-5 17-8 25 9-2 36-7 42-6 77 10 304 274 304 274l67-53c121-125 378-434 429-560-59-130-65-86-132-192-201-320-620-589-1018-388l-354 244c-3-5-12 11-18 17z"/><path class="fil29" d="M11589 5226c-152 3-182-4-189 148-5 95 1 214 19 285 159 28 2051 34 2157-3 52-87 55-302 8-391l-1995-39z"/><path class="fil6" d="M6132 21963c71 32 772 690 824 829l100 36c109-86 121-260 160-463 102-536-178-610-433-782l-351-240c-3-9-13-8-19-12-9 230-223 404-281 632z"/><path class="fil0" d="M16840 14675c11-22 37-68 59-63 152 38 239 117 435 128 216 11 314-58 368-205-270 84-541-62-738-218-160-127-351-341-292-567-27 24-18-9-67 61l0-281c-7 5-14 13-19 17l-34 37c-71 93-118 350-96 474l121-19c50 63 93 177 112 244l-5 812c56-114 33-368 33-532-49 42 41 55 123 112z"/><path class="fil30" d="M16816 14720c20-22 26-75 61-78 17 322 3 627 4 952 0 359 46 621-202 771-243 148-1466 16-1853 71l-3149 3-5-78 4237-1c246 0 616 52 769-110 188-200 131-404 136-712 4-289 1-529 2-818z"/><path class="fil21" d="M1756 26536l1758 3c-31-87-390-397-417-430l-20-47c-36-62 133 91-27-20-131-92-52-77-89-108l-338-301c-38-50-34 69-42-97-119 194-453 544-614 744-42 52-60 72-106 116-80 79-61 47-105 140z"/><path class="fil6" d="M9216 24995c35 85 87 107 151 171 61 62 75 75 135 139 61 64 219 228 299 275 42-38 231-358 293-444 97-134 252-296 326-429-44-105-101-150-191-240l-28-28c-90-86 26 24-29-27-95-88-152-160-252-243l-8-94-101 273c-14 29-50 104-65 131l-247 312c-87 78-145 102-233 170 14 18 54 62 57 66-70-28-18-14-107-32z"/><path class="fil31" d="M16633 15148l51-53 5-812c-108 87-34-10-79 110l-32 618c-58 78-464 29-589 29l-3193-1c-1510 0-1135 146-1387-270-56-93-114-162-178-239l-367-461 28 0-126-3c68 148 215 364 313 508 118 174 271 339 289 577l5265-3z"/><path class="fil29" d="M13945 8870c20-99 55-152-12-267-380-18-2366-46-2600 15l-11 240c186 50 2309 36 2623 12z"/><path class="fil32" d="M9034 23246c152-112 62-174 233-283-26-39 1-31-46-51-112-20-62-25-152-49l-108-251c-220-1-857-719-1181-933-79-51-351-238-444-227l-130-34c58 77 133 125 183 180l314 324c4 4 10 10 14 14 88 81 120 96 166 194-8 6-35 18-42 22-105 56-269 251-421 395l-133 145c-3 5-7 12-10 17l-54 99c36 7 62-10 105-41 77-56 12-7 49-42l456-469c30-31 15-14 39-46 7-8 19-32 31-47 125 36 106 65 192 153 34 36 41 38 70 69 48 50 14 18 50 55 2 2 8 8 10 10 3 3 9 8 12 11l253 243c20 20 15 14 42 44 18 20 34 38 41 45l327 318c6 5 23 22 28 28 20 21 45 57 49 61 31 35 10 22 57 46z"/><path class="fil11" d="M9912 24075l8 94c100 83 157 155 252 243 55 51-61-59 29 27l28 28c90 90 147 135 191 240 222-222 503-708 549-1154-57 85-69 54-57 104-86-2-168-19-246-17-303 7 16 58-428-24-81-15-171-15-256-25 0 190-69 326-70 484z"/><path class="fil33" d="M14811 16601l39-160-3149 3-101 604c470-334 676-422 1420-428 493-4 1371 74 1791-19z"/><path class="fil10" d="M12155 18443c-136 19-225 197-459 343-111 69-151 70-215 203-36 76-38 205 53 282 197 166 590-42 765-165 57-40 79-41 128-72l203-176-48-38c68-109 54-66 59-237-116 10-114-19-142 84l-5-358c-263 5-175 12-339 134z"/><path class="fil34" d="M15441 12926l661 293c-55 59-564 302-660 301l2-200 320-87-321-84-2-223zm-248 376c77 660 1124 578 1050-138-29-279-287-507-618-457-261 39-468 293-432 595z"/><path class="fil11" d="M10967 22167c-12 197 201 309 368 494l148 160c39 34 6-2 47 39 148-89 380-340 458-517-8-6-62-41-67-44l-767-765c-66 184-114 433-187 633z"/><path class="fil35" d="M9034 23246c-15 91-113 244-188 298-51 126-308 435-429 560l-67 53c-96 191-363 351-514 514l-171 176c-13 45-3 18-33 68-368 626-169 259-409 991l-54 644 5-6 74 3c98-347 219-1208 461-1396 35-156 293-435 392-523 666-594 815-752 1220-1546l12-89-66-30c-171 109-81 171-233 283z"/><path class="fil24" d="M12155 18443c164-122 76-129 339-134l5 358c28-103 26-74 142-84-5 171 9 128-59 237l48 38 147-56c5-4 10-10 14-14 4-4 10-10 14-14 6-6 26-24 44-40 27-26 102-24 115-222-1 1-98-2 56 56 7-7 14-16 19-22 4-6 12-15 17-21l40-52c43-53 79-71 171-79 0 0-186-286-84-302l-135-56c-4-97-4-77-28-140-65-11-144-5-155-74-2-10-7-14-13-19-77 74-111 57-156 105-75 79-1 72-113 141-292 180-65 64-279 239 6-8 14-16 20-22l69-74c4-5 44-63 44-64l59-80c45-46 114-70 198-167l97-209c-104-15-43-131-257-50-50 18-47 26-68 38l-6 264c66 5 18-25-84-28-4 156-58 256-161 347-122 108-94 68-60 200z"/><path class="fil35" d="M10447 20810c-69 154-232 482-378 589-21 107-435 659-550 811-47 61-36 65-85 83-86 175-344 417-365 570 90 24 40 29 152 49 129-323 1446-1617 1543-2634-31-418-110-859-438-1019 131 269 244 319 280 738 26 300-51 584-159 813z"/><path class="fil36" d="M7709 25151c50 31 18 28 110-46 337-268 628-351 745-461 274-254 462-341 636-797 43-114 194-633 121-765-405 794-554 952-1220 1546-99 88-357 367-392 523z"/><path class="fil37" d="M11400 20388c-58 103-117 135-198 225 104 117 391 184 587 192 299 11 403-94 509-277 10-180-51-307-133-405-36-44-81-84-122-128-71-76-34-63-146-87-59 82-436 435-497 480z"/><path class="fil38" d="M9089 20682c131-26 21 12 123 15 137 3 6-44 150-18 18 30 43 77-4 113-121 40-12-6-118-12-140-7-2 33-152 20l-23-48c5-60-4-33 24-70zm-12-46c-10-28-14-28-10-74l29-45c131-28 0 20 138 12 1 0 209-71 138 106-154 21-22-25-158-20-97 3 8 32-137 21zm-118-355c-19 94-181 152-175 387 5 209 130 294 221 384 186 93 407 87 546-44 200-187 142-318 90-569-132-73-101-141-254-198-153-57-295-6-428 40z"/><path class="fil39" d="M10575 7245c38-30 43 86 44-132l-4-1051c-16-212-33-1360 28-1466 66-71 5868-48 5962-1 101 338-35 6854 52 6986l-1-7011c-130-112-521-52-723-52-857 0-5203-28-5339 26-67 242-27 2299-19 2701z"/><path class="fil40" d="M9474 8457c-22 162-20 30 57 84 132-106 127 98 387-110 245-196 296-439 236-765-39-212-104-161-146-396-273 107-383 852-534 1187z"/><path class="fil40" d="M18067 10193c44-128 102-197 95-342-22-211-15-213-109-406-166-342-424-522-726-188l-133 152c104 99 152 80 286 167 182 117 256 143 323 259 35 61 33 58 75 118 37 53 46 77 72 122 74 135-29 62 117 118z"/><path class="fil40" d="M17951 12277c81-105 166-225 157-373-51-329-85-538-312-712-237-182-512 71-602 262l370 218c128 66 39 43 170 218 4 4 9 10 12 15 4 5 9 11 12 16 93 130 90 240 193 356z"/><path class="fil41" d="M15061 7377c60 83 107 157 164 232 15-218-46-355 4-588 130-30 265 19 425 9 157-10 274-70 433-66 71 220 7 294 30 527 60-17 78-90 121-152 64-363-110-609-363-700-230-83-252 26-444 21-216-4-212 31-344 173l-26 544z"/><path class="fil35" d="M7251 16689l-103 100c-19-32-27-51-55-84-70-85-8-57-66-42-2 4-3 7-2 14 0 6-2 12-2 14 14 64 35 66 96 133 61 64 112 112 130 201 44 33-3-30 41 47 18 31 15 27 26 60 42 127 22 163 116 386 75 177 171 321 237 462 63 19 108 90 143 154 83 20 57 25 143 94 50 40 112 78 167 113 118 75 222 139 368 185-4-48 32 2-59-72-253-206-394-326-591-617-197-290-320-610-391-981l16-502-158-1c-41 101 13 223-56 336z"/><path class="fil42" d="M11329 6929l-4 244c156 37 1469 37 1620 3 86-307-39-265-429-265-369 0-832-18-1187 18z"/><path class="fil6" d="M10593 23109l327 8 35 100 18 0-16-115c231-21 463-127 573-242-41-41-8-5-47-39l-148-160c-167-185-380-297-368-494-83 152-128 335-210 496l-174 331c-35 111-32 42 10 115z"/><path class="fil29" d="M12945 8297l14-243-1423-20c-388 0-182 258-176 261 63 43 1459 36 1585 2z"/><path class="fil43" d="M10528 10481c4 76-92 169-130 282-48 143-23 1061-24 1251 0 289 4 579 2 868-2 534 2 374 167 676l-15-3077z"/><path class="fil42" d="M14141 7732l-3-3 6-223c-120-51-1083-44-1323-35-202 8-193 98-146 266 183 38 1290 40 1466-5z"/><path class="fil10" d="M17725 14514c97-65 204-219 218-377-56-106-37-44-50-186-25-271-160-602-508-476-67 24-197 113-220 183-9 85 130 124 245 239l139 169c4 7 14 30 18 37l63 128c37 81 60 185 95 283z"/><path class="fil42" d="M14533 7169c11-158 36-112-28-249-280-17-561-9-840-9-296 0-606-98-505 259 161 46 1191 42 1373-1z"/><path class="fil0" d="M17168 7982c462-272 333-1018-49-1263-64 584-138 667 49 1263z"/><path class="fil44" d="M11424 10211c-102 570 904 558 824 53-94-91-215-148-376-160-230-17-291 60-448 107z"/><path class="fil35" d="M12298 20528c-106 183-210 288-509 277-196-8-483-75-587-192-165-14-337-148-426-249l31 201 365 196c306 75 570 227 943 177 344-47 473-263 523-605-90 13-239 52-297 125l-43 70z"/><path class="fil42" d="M11330 7491l-7 244c159 38 963 36 1116 0l12-238c-185-52-839-34-1121-6z"/><path class="fil39" d="M12896 3742c-41 177 33 183 208 183l1065 0c180 0 212-16 177-180-123-25-1377-39-1450-3z"/><path class="fil42" d="M14169 8311c46-149 82-75 0-269-220-15-787-34-961 14l-11 239c195 53 737 26 972 16z"/><path class="fil33" d="M10360 10670c-112 64-47-65-119 145-56 163-49 263-64 418-22 215-47 417-35 641 11 214 23 432 60 644 18 101 36 179 62 275 51 193 89 178 40 231l11-1738c0-413 44-439 45-616z"/><path class="fil45" d="M11952 19855l-55 53c112 24 75 11 146 87 41 44 86 84 122 128 82 98 143 225 133 405l43-70c58-73 207-112 297-125 2-128-1-51 27-81 0-62 9 0-22-57-2-3-7-11-9-15-3-4-8-11-11-15-275-455-220-283-402-481l-269 171z"/><path class="fil25" d="M16907 8065c125-6 175-33 261-83-187-596-113-679-49-1263-61-72-129-95-209-108l-3 1454z"/><path class="fil8" d="M11227 9139c-8-276 67-501 3-826-37-187-132-500-250-598-12 288 79 487 60 799-19 303-131 554 187 625z"/><path class="fil46" d="M16919 13247l-13-35 1-227-11-495c-71-20-39-12-82-38-4-3-49-37-51-38-41-36-46-55-46-64-45 88-46 936-8 1045 8-55 90-125 210-148z"/><path class="fil47" d="M15444 13320l-2 200c96 1 605-242 660-301l-661-293 2 223 321 84-320 87z"/><path class="fil46" d="M16914 10963l-7-264c-11-152 31-224-68-299-99-26-131-25-134-99-44 117-37 726-9 869 93-143 196-107 218-207z"/><path class="fil48" d="M11482 14563c38 96-16 42 181 159 105 63 104 81 249 86l3-462c-153-2-266 67-378 163-47 40-16 8-55 54z"/><path class="fil49" d="M7045 23097c49-65 45-191 11-269l-100-36c-215-55-147 25-321 49l7 263c129 25 274 15 403-7z"/><path class="fil50" d="M11362 11343c36 6 122 28 148 27 253-10 53 15 138-56-55-77 5-78-159-52-1 0-182 75-319-37-110-89-16-12 6-69 30-78-41-125-40-319 2-270 133-225 8-273l-127 177c-53 88-132 522 345 602z"/><path class="fil51" d="M16914 10963c404-104 370-66 769-49-133-151-523-215-776-215l7 264z"/><path class="fil52" d="M14729 3709c-41 389 322 326 364 148 28-114-23-210-123-239-121-34-172 36-241 91z"/><path class="fil53" d="M9005 21052c86 111 185 168 374 152 77-6 147-32 209-74 71-48 66-70 141-123 7-90 18-59 40-147 19-77 22-112 10-192-8-51-79-263-138-229 52 251 110 382-90 569-139 131-360 137-546 44z"/><path class="fil51" d="M16909 8952c116-15 220-66 367-83 155-18 270-9 423 12-240-143-468-185-794-167l4 238z"/><polygon class="fil5" points="15319 14735 15647 14737 15643 14416 15334 14414 "/><path class="fil48" d="M15334 14414l309 2 4 321-328-2 15-321zm-76 379l451 11-1-451-439-5-11 445z"/><path class="fil48" d="M13450 14647c-108-224 219-305 283-125 73 202-211 274-283 125zm32 146c83 9 121 25 202-10 180-76 154-345 24-423-155-29-287 0-332 138-50 157 42 208 106 295z"/><path class="fil51" d="M16906 13212c253-45 306-43 582-53-106-137-380-176-581-174l-1 227z"/><path class="fil54" d="M13888 11312c-4-1-37 33-7-10 35-51 95-33 120-74 2-5 8-283-169-264l-168 165c-47 165 112 168 224 183z"/><path class="fil51" d="M16735 12385l-78-1164-156 297c-61 192-106 465 234 867z"/><path class="fil55" d="M12512 11179c51-61 152-229 151-314 0-104-39-118-80-183-48-76-23-75-95-123-61 44-75-46-19 132 22 72 26 49 25 145-2 117-24 211-69 310 35 49-81 51 87 33z"/><path class="fil56" d="M13240 10981c-51 52-118 102-92 205 20 82 100 140 197 114 148-39 207-324-105-319z"/><path class="fil5" d="M13450 14647c72 149 356 77 283-125-64-180-391-99-283 125z"/><path class="fil57" d="M15760 5623c-8-148-31-111 66-183l-113-73c-36-28-50-62-68-91-82 110-27 93-181 130 69 108 89 40 61 212 165-15 42-49 235 5z"/><path class="fil58" d="M12002 11512c-145 42-226 29-372 7l21 123c122 32 209 29 329 2l22-132z"/><path class="fil41" d="M11662 11216c15 204 293 216 312-7l-312 7z"/><path class="fil59" d="M16186 4647c-22 161-38 269 139 253 3-8 8-26 9-22 1 4 7-17 8-22l-22-182c-3-6-10-14-14-21l-120-6z"/><path class="fil59" d="M15950 4643c-63 86-65 173-17 257 120 5 166-65 137-203l-120-54z"/><path class="fil60" d="M16390 4900l128 5c76-324-152-315-148-110l20 105z"/><path class="fil61" d="M9096 20517l-29 45c-4 46 0 46 10 74 145 11 40-18 137-21 136-5 4 41 158 20 71-177-137-106-138-106-138 8-7-40-138-12z"/><polygon class="fil2" points="10892 5517 10945 5456 11077 5460 11077 5431 10948 5419 10907 5364 10771 5419 "/><path class="fil61" d="M9212 20697c-102-3 8-41-123-15-28 37-19 10-24 70l23 48c150 13 12-27 152-20 106 6-3 52 118 12 47-36 22-83 4-113-144-26-13 21-150 18z"/><path class="fil62" d="M15491 3891c34-64 63-223-81-187-90 23-170 200 81 187z"/><path class="fil63" d="M14644 4702c2 58-26 65 69 158 28 28 20 19 49 41 23-53 37-58 52-87 70-132-24-161-170-112z"/><path class="fil64" d="M15437 4898c31 6 41 17 79 12 112-13 64-16 99-38l1-132c-153 26-172 4-179 158z"/><path class="fil2" d="M15025 4910l209-4 0-201c-37 23-79 48-115 80l-94 125z"/><path class="fil65" d="M11495 10852l-16 43c1 53-10 5 12 71l107 21c37-119 20-167-103-135z"/><polygon class="fil65" points="12024 10978 12143 10976 12161 10867 12042 10835 "/><path class="fil52" d="M15815 7544c273 52 48-250 0 0z"/><path class="fil52" d="M15392 7465c-1 2-58 19 1 73 37 33 54 14 99 6-23-101 3-101-100-79z"/><path class="fil46" d="M16317 5600c-35-74-13-72-97-30 36 49-12 127 97 30z"/><path class="fil46" d="M16319 5289c-69-40-59-53-96 31 94 72 61 52 96-31z"/><path class="fil27" d="M16315 5460c-38-81-26-68-95-30 35 44-16 126 95 30z"/><path class="fil66" d="M16605 13811l70-75 48-105c194-396 223-78 196-384-120 23-202 93-210 148-38-109-37-957 8-1045 0 9 5 28 46 64 2 1 47 35 51 38 43 26 11 18 82 38 13-145-6-54 46-84 280 175 793 305 957-59-353 12-561-14-811-170-261-162-399-470-483-857-49 159 77 638 85 805 8 166-3 363-3 533-16 287 33 840-87 891-78 33-1 172 5 262z"/></svg>