<svg xmlns="http://www.w3.org/2000/svg" width="210" height="297" viewBox="0 0 21000 29700" style="image-rendering:optimizeQuality;shape-rendering:geometricPrecision;text-rendering:geometricPrecision"><defs><style type="text/css">  
    .str0 {stroke:#424242;stroke-width:7.62}
    .str1 {stroke:#E64A19;stroke-width:7.62}
    .str2 {stroke:#F5E5D6;stroke-width:7.62}
    .fil9 {fill:#162829}
    .fil35 {fill:#233539}
    .fil0 {fill:#424242}
    .fil34 {fill:#605722}
    .fil33 {fill:#663B43}
    .fil28 {fill:#703834}
    .fil8 {fill:#8E342E}
    .fil26 {fill:#9DA094}
    .fil27 {fill:#A16928}
    .fil25 {fill:#ADB4AE}
    .fil31 {fill:#AECD90}
    .fil23 {fill:#B1912D}
    .fil19 {fill:#B3B293}
    .fil11 {fill:#B5920E}
    .fil32 {fill:#B9CE73}
    .fil21 {fill:#CDAE2E}
    .fil24 {fill:#CDAFA6}
    .fil30 {fill:#CFCDA3}
    .fil13 {fill:#D0AC11}
    .fil29 {fill:#D0B64C}
    .fil36 {fill:#D3C94F}
    .fil3 {fill:#D6B692}
    .fil10 {fill:#D9AA04}
    .fil18 {fill:#D9CA34}
    .fil2 {fill:#E64A19}
    .fil12 {fill:#EBC525}
    .fil16 {fill:#EBF7F8}
    .fil7 {fill:#EEC51B}
    .fil4 {fill:#F0C419}
    .fil20 {fill:#F0F0EA}
    .fil15 {fill:#F3C415}
    .fil1 {fill:#F5E5D6}
    .fil5 {fill:#F5ECE2}
    .fil14 {fill:#F6E893}
    .fil22 {fill:#F6EFD1}
    .fil17 {fill:#F6FBFC}
    .fil6 {fill:#FCE4B9}
   </style></defs><path class="fil0" d="M8663 12529c-63 65-101-34-55 71l-300-200c-34 4-15-3-50 22-58-9-26-3-59 3-7 2-49 12-56 15-117 51-50 156-85 266l-33 68c-117 34-271 315-136 471 170 196 403 79 487-104 3 7 4 12 7 21 10 28 52 21 60 22 179-143 42-33 102-170 40-92 120-104 205-110l-94-73 141-23c2-127-22-19 6-128 15-61 17-5 15-114-9-96-33-77-60-157l57-105 164 29 49-89-517-169-71 97c20 105 161 242 223 357zm377-341c80-14 155-104 173-213 43-260-317-441-510-179-89 120-29 117-24 122 96 36 73-56 189-129 126-11 220 46 230 150 16 169-136 122-58 249zm532-657c-27-104-185-150-322-275 38-122 95-72 23-172-61 21-30-13-113 104-73 104-190 203-114 242 97 50 24 1 129-72 120 65 236 200 359 227l38-54zm194-281c-37-61-35-49-110-102-205-145-286-275-362-161 17 79 2 50 84 108 94 66 255 200 347 232l41-77zm473-1068c-48 41 70 65-143 41l-1 40-163-104-104 113c-32 43-63 85-85 127 25 48 6 28 70 52 64 29 29 4 24 74-5 89 27-57-4 68l-161-91c-115 112-290 347-71 510 260 193 479-168 479-169 1-5 6-6 10-9 142-61 20-16 77-55l28-19c4-2 10-5 13-7 202-106 49-175 163-257 84-61-2-16 39-8l-41-93c47-28 37-24 83-61-21-145-132-109-84-252 80-17 99 55 203 85l44-75c-40-61-352-291-423-305-112 114-302 422 47 395zm47-451c121 12 22 41 99-59 34-46 43-63 96-75 104-24 188 52 212 111 55 137-63 163-71 226-6 57 28 68 72 50 33-12 60-60 78-91 93-162 32-348-143-405-193-63-411 133-343 243zm3577-4792c40 43 1264 951 1346 977 20 55 233 189 295 234 109 80 205 154 307 222l-96 245c8 78-18 25 30 72 36-49 2-11 39-67l56-69c25 3 140 28 154 41 2 1 64-82 30 71-21 94 17 16-39 52l-123 5c-123-52 91-47-140-57-56 66-47-95-47 107l-40-59c-3 2-9 5-13 7-10 4-62 10-90 12-138 7-115-29-118 63-129 0-126 14-244-35l8 189c-128-27-116-94-272 0l-116-132c-151-117-963-738-1060-753-53-97-191-150-312-74-85 53-848 1123-966 1282-142 190-309 403 32 551 16 42 35 43 100 89 1405 986 915 985 1752-24 42 19 37 19 86 30l-47 189 81-26 37 215c20 16 33 66 100 92 131 51 211-11 278-45l118 64c63 33 45-42 48 81l100-20 103 5c-84 5-7-39-62 59 183-67 23-84 148-60 96 19 59-67 65 131l-189-35c-4-2-17-8-24-12-45 11-24-11-24 94-81-24-6 35-100-47-80-71-237-83-369-87-62 46-71 52-103 128-65 19-12-15-83 90l-20 32c-2-4-7 9-10 14 4 7 8 15 12 21 3 6 7 14 11 21 3 6 7 12 11 19l41 65c24 27 77 51 114 75-57 48-79 47-165 47 0 192-10 155-65 185l-52-189c-7 4-30 20-37 22-142 50-108-14-135 53 90 119 6 11 99 27l48 12c5-8 17 4 24 9-21 130-68 69-77 69l-141-2-61-92 7 246-67 15c-9 124 50 91 163 72l23 90 25-16c45 71 22 13 33 60l71 101c-194-6-83 22-173-85l-158-56 95 94c-85 85-25 15-42 83-68-26-122-45-197-14-25 10-75 49-84 60-60 79-15 51-10 63 82 32 35-42 184-45-137 117-61 283 102 257l-48-2c-1 7 2 17 2 23-1 6 1 16 0 23-6 84 32 21-17 68-16 16 11 14-49 17-137 8-5 0-65-11-85-16-138-58-178 69-51-55-55 83-42-95 22-50 5-33 25-58-48-58-37-71-143-75-43 66-27 71-93 142-35 39-49-28-45 86 6 175-13 24 43 90l266 43c47 63-106 51 106 49 18 0 65-21 72-24-20 27-57 9-162 7-7 0-54 166-193 235-192 97-491 108-496 120 21 17 0 81 189 47-58 116-66 76-23 189 230 81 247-82 425-23-12 111 23 124-90 138-63 8-79-19-146-44l-154 165c-37-9-71-26-109-19-118 20-46-21-92 67 44 65-17 44 78 29 79-12 60-63 159-50 80 10 50 8 94 44-35 76 65-44-33 37l-117 60c-4 2-9 6-14 9 0 0-28 20-53 25-157 29-104-44-114-154l-81 87c-30-27-20-13-56-36l-6 91c42-183-142-155-239-133-3-128-78-72-209-68 0 58-15 281 10 323l43 40-123 27 0 90c-41 56-33 15-49 99 64 57 134 83 167 144 33 82 27 92 47 139 218 42 252-42 177-236 160 0 145-107 272 23-5 5-13 8-17 10l-35 15c-8 3-50 13-57 17-61 31 3-46-80 77l0 165-166 24c0 202 11 70-47 105-25 16-80 20-108 8-30-12 17 124-105-162l-110 12c-124-14-128-13-246 13l-58-8c-7-1-13-3-20-5l-79-25c-7-12-20-7-30-9 23 194 0 40 52 117 77 113 17 50 110 212l27 49c-107-6-128-13-189-24-53 45-55-62-40 66l-96 96c53 79 168 143 249 205-18 12-64-61-1 51-20 85 18 29-41 78-28-10-48-25-54-28l-182-19-27-209c-2-5-5-11-7-16-35-63-38-45-61-58-23 43-51 185 19 267 129 149 202 123 272 132 75 10 53 8 87 26l-141 51c-301 30-180-43-284-122-41 34-40 44-118 48 31 98 15 39 58 90 22 26-4-33 60 51-44 32 0 28-87 15l-220-133c-6 8-10 18-12 26-1 6-7 16-8 23-9 79-3 46 24 60 6 4 84 5 114 9l-87 92c-46 54-40 15-80 97 35 51 33 48 98 94l105 91c0 70-2 44 25 91 11 18 32 41 35 37 4-4 15 12 22 18-5 1-130 18-48 24 33 55 58 12 119 165-222-7-73 14-177-72-112-94-66-66-178-34l71 102c-60-15-117-30-145-87l-26-90c-25-82-66-78-151-54-239 67-2 282-2 283-399 2-301 62-567 117-97 20-141 77-222 138l-757 689c-42 48-45 34-68 111-153-56-121-77-181-141-3-3-67-54-76-58-85-39 1-43-125-13-233-191-491-368-740-549-124-90-232-168-368-269-115-86-246-192-369-260l-91-68c-265-259-664-374-795-759-72-212-28-456 69-622 81-139 267-329 312-457 64-35 145-170 197-240 72-99 142-168 185-279 63-45 686-881 753-1027 45-18 1785-2388 1830-2490 16-9 7 6 41-39 37-48 2-1 29-51l100-123c36-50 60-80 101-136l571-754c56-126 209-310 299-432 106-146 197-263 300-410 93-135 203-270 300-407 100-140 210-264 288-410 123-104 230-321 353-438 125-120 337-218 586-192 334 34 718 439 977 587z"/><path class="fil1" d="M10407 14334c-108 45-182 174-291 268-106 90-295 285-180 447 24 34 29 32 79 67 52 36 98 64 159 101 136 82 213 123 320 222 329 304 378 517 537 577 244 92 269-34 494-313 146-180 94-137 38-161l78-120c32-49 46-70 68-123 127-302 44-342 42-348-24-99-20 76 4-37 0-1 17-25 17-69 1-72-78-301-212-396l-28-21c-1-2-5-8-6-10-56-96 38-64-174-171-41-20-196-98-222-102-420-61-547 143-723 189zm842-291c190 43 401 277 499 425 137 209 183 446 154 747-67 704-559 885-686 1113-24 23-24 24-49 39-112 74-575 756-624 838-82 140-176 303-271 461-251 416-343 950-652 1497-186 329-346 596-545 873-704 975-1208 1639-2196 2128-187 92-792 341-932 501l-1618 0c-18-169-71-165-235-166-11-298-163-115-210-282 0-2-13-58-13-59-7-42-7-86-19-125l-80-133c-118-176-242-50-366-86l-63-127c-81-88-61 21-67-109 148-37 81 19 115-71-93-187-368 17-470-95-3-4-7-10-10-14-3-4-7-10-10-15-3-4-8-11-11-15-3-5-9-12-12-16-3-4-7-12-13-17-58 7-60 10-97 35 44-116 0 14 128-162 269-370 565-720 842-1122 415-603 571-709 802-1415 98-302 157-611 222-909l309-1375c40-144 95-286 129-413 41-155 54-317 110-458 63-158 123-246 142-423l143-375c90-52 25 4 77-96 47-89-1-63 73-78 83-11 51 6 128-104 88-124 83-47 65-94 54 97-1 62-34 165l47 60c38 51 43 156 49 136 1-3 5 14 9 19 155 56 53-53 209 23 2 1 60 34 62 35 76 56 45 50 59 77 2 6 2 70 15 35 1-4 4 12 7 17-3 74 69 145 105 189 116 146 101-35 63 47 34 15 66 35 89 55 67 58 5 63 235 62 2 4 6 10 7 12l69 106c48 65 15 19 17 201 64 1 150-15 156-16 67-18-49-11 98-16 95 18 83 66 103 69 61-50 44-20 56-119 5-48-1-82 11-132 46 86 13 153 53 231-51 21-35-46-31 55l95 239c-88-18-210-68-284-38 169 66 381 217 409 428 59 441-744 929-965 1504 187-130 609-456 761-604 139-136 205-208 349-335 131-117 245-195 378-308 394-336 697-850 1061-1325l124-137c10-9 19 8 29-28 3-9 11-9 15-14 27-105 529-561 623-637 184-149 521-391 841-412 178-4 261-5 421 53z"/><path class="fil0 str0" d="M14411 11336l43-60-339-267c-142 70-277 371 24 334 29 90 64 150 151 182 64-210-93-63-48-267 112-3 56 35 169 78zm-87-294c111 57 23-18 145-88l66 41c-34 126-120 111-54 194 74-7 159-150 181-223-59-58-294-227-363-259l-116 169c-28 61-10 63-4 75 15 4-23 66 75-30 92-89-19-54 95-69 75 116-16 42-27 177 0 2 0 9 2 13zm616-454c-69-65-265-218-353-245-51 42-120 112-143 206-54 219 189 345 346 241 97-65 93-109 150-202zm72-236c-47 99-106 96-44 183 73-29 153-157 168-230-63-56-114-89-177-135-34-25-147-133-192-84-73 80 149 150 245 266zm358-331c73-291-382-423-452-133-70 286 383 408 452 133zm48-543l-77 115c-64-22-19-12-76-40-42-21-5-13-47-19-89-13-65 26-56 55 15 50 71 77 137 121 61 40 131 106 189 134l67-78-137-98c22-61 35-92 91-134l125 72c62 8 102-31 21-105-28-26-63-42-100-69-73-54-119-99-213-143l-39 70c28 35 22 22 56 54l59 65zm563-308l-349-261c-95 99-166 176-147 372 66 44 129 155 277 121 57-13 103-60 129-87l71-91c3-6 11-52 19-54zm-117-571c-207 215-191 296 53 351 58 168 106 148 142 159 64-190-89-79-46-264 34 5 228 136 199 4-15-65-296-235-348-250zm401 189l60-68c-23-76-30-42-57-122 162-188 118 54 229-113-40-67-360-156-447-167l-54 96c26 65 216 322 269 374zm243-381c173-14 221-297 47-401-176-104-430 66-337 188 98-16 61-81 113-111 118-22 207 9 229 104 31 129-68 98-52 220zm-811-560c-134-61-190 68-334-24 2-138 114-100 53-165-78-81-388 318 126 279-44 105-62 63-33 156 88-39 170-151 188-246zm228-268c26-95-7-123-200-232 15-52 22-47 20-112-93 12-130 34-159 116 45 46 266 221 339 228zm1750 434c-5 370-2 404-182 637-124 161-273 339-358 500l-70 83c-96 66-81 81-130 180l-58 53c-19 18-22 16-42 40-27 35-19 30-34 56l-45 77c-28 34-42 61-78 109-56 70-14-13-42 85l-47 42 16 155 12 13c-67-36-30-14-86-82l-52 71c-30 52-12 42 16 92 28 48 21 20 31 53 15 51 23-7-4 35l-110-99c-63 106-157 196-211 310l58 67c14 164 9 235-79 304 34-38 48-48 49-134 1-73-29-131-49-180-94 34-24-20-83 59-70 71-89 140-164 210l-24 33c-19 44-28 70-41 109l-60 14c-43 145-16 100-112 203 18 74-7 17 25 66 21 77 31 36-30 50l-35-52c-69 38-36 8-92 87-32 44-43 70-76 116-170 209-8 139-227 336-55 49-77 93-129 156l-135 171c-52 69-69 80-121 163l-1221 1661c-44 62-82 121-125 183l-491 666c-92 103-155 232-237 331l-867 1165c-183 162-452 263-678 178l166 10c213-318 140-152 273-357 137-210 366-418 377-698 5-125-8-2 10-102 41-227-38-355-62-545 96 12 193 11 281-7l12-260c-83-18-128-51-208-51-229 0-201 105-201 106l-48-99c-71-134-288-316-429-380-141-64-171-16-173-133l-71-102c112-32 66-60 178 34 104 86-45 65 177 72-61-153-86-110-119-165-82-6 43-23 48-24-7-6-18-22-22-18-3 4-24-19-35-37-27-47-25-21-25-91 34 14 102 70 137 32 30-77 4-69-62-115-56-40-71-47-127-88-6-109-6 15 16-109l-87-2 87-92c-30-4-108-5-114-9-27-14-33 19-24-60 1-7 7-17 8-23 2-8 6-18 12-26l220 133c87 13 43 17 87-15-64-84-38-25-60-51-43-51-27 8-58-90 78-4 77-14 118-48 104 79-17 152 284 122l141-51c-34-18-12-16-87-26-70-9-143 17-272-132-70-82-42-224-19-267 23 13 26-5 61 58 2 5 5 11 7 16l27 209 182 19c6 3 26 18 54 28 59-49 21 7 41-78l74 37c56-45 78-54 97-124-70-64-169-128-237-205l-9-46-77-14c-15-128-13-21 40-66 61 11 82 18 189 24l-27-49c-93-162-33-99-110-212-52-77-29 77-52-117 10 2 23-3 30 9l79 25c7 2 13 4 20 5l58 8c-71 213 89 362 304 323 154-164 24-209-58-336l110-12c122 286 75 150 105 162 28 12 83 8 108-8 58-35 47 97 47-105l166-24 0-165c83-123 19-46 80-77 7-4 49-14 57-17l35-15c4-2 12-5 17-10-127-130-112-23-272-23 75 194 41 278-177 236-20-47-14-57-47-139l157 90c52-96 37-85-38-140-209-153-127-73-123-210l-114 17 0-90 123-27-43-40c-25-42-10-265-10-323 131-4 206-60 209 68-118 276 53 328 318 312 133-30 33-29 137-85-29-92-60-119-152-98l-2-51 81-87c10 110-43 183 114 154 25-5 53-25 53-25 5-3 10-7 14-9l117-60c98-81-2 39 33-37-44-36-14-34-94-44-99-13-80 38-159 50-95 15-34 36-78-29 46-88-26-47 92-67 38-7 72 10 109 19l154-165c67 25 83 52 146 44 113-14 78-27 90-138-178-59-195 104-425 23-43-113-35-73 23-189-189 34-168-30-189-47 26-70 6-38 48-77l53-2 15 83 69 25c80 43 19 5 71 70 130 160 260-40 262-44 9-87-7-114-22-175l-93-117c73-76 73-22 89-138l-19 20c72 0 144-1 216 0 105 2 142 20 162-7 141-36 42-121-48-130-146-16-56 25-198-49l15-74c-13 178-9 40 42 95 40-127 93-85 178-69 60 11-72 19 65 11 60-3 33-1 49-17 49-47 11 16 17-68 1-7-1-17 0-23 0-6-3-16-2-23l48 2c195-67 146-230 5-321 17-68-43 2 42-83l-95-94 158 56c90 107-21 79 173 85l-71-101c122 17 160 15 218-60 55-70 79-107-5-139-31 49-36 99-98 107-45 6-33-4-52-13-37-112 20-56 22-180l101-10c5-1 13-3 19-6-42-96 9-30-57-75 55-30 65 7 65-185 86 0 108 1 165-47-37-24-90-48-114-75l-41-65c-4-7-8-13-11-19-4-7-8-15-11-21-4-6-8-14-12-21 3-5 8-18 10-14l20-32c71-105 18-71 83-90 29 54 35 67 89 111 47 38 18 6 64 59 49 55-7 24 62 55 312-10 182 53 147-124 33-42 17-28 48-47 74 10 59-24 62-95 94 82 19 23 100 47 0-105-21-83 24-94 7 4 20 10 24 12l189 35c-6-198 31-112-65-131-125-24 35-7-148 60 55-98-22-54 62-59 181 29 245-148 127-268l-179 2c-82-51-1 54-138 29-1-140 71-34 46-166-101 6-157 96-142 217 136 104 102-10 183 181l-100 20c-3-123 15-48-48-81l-118-64c-67 34-147 96-278 45-67-26-80-76-100-92l-37-215-81 26 47-189c-49-11-44-11-86-30 87-150 225-308 341-472l112-129c138 35-10 28 223 29 82 1 162 18 237-13l19-69c48-256 13-285-90-285l-8-189c118 49 115 35 244 35 3-92-20-56 118-63 28-2 80-8 90-12 4-2 10-5 13-7l40 59c0-202-9-41 47-107 231 10 17 5 140 57l123-5c56-36 18 42 39-52 34-153-28-70-30-71-14-13-129-38-154-41l-56 69c-37 56-3 18-39 67-48-47-22 6-30-72l96-245c72 62 203 155 265 199 84 59 162 122 243 182 169 124 335 246 505 370 327 239 846 527 851 890z"/><path class="fil2" d="M18117 9489c-324-175-447 148-352 240 39 39 168 20 273 10l87-19c13-39 5-177-8-231zm-2023-3436l-2-10c39 92 135 192 228 226l-10-5c39 78 213 246 280 313l577 581c354 360 1204 1174 1454 1463 168 176 194 408 147 691-32 56-71 202-119 257-65 75-38 23-81 61-50 45-35 62-77 114-2 4-7 9-10 13-33 36-124 89-302 284l-33 38c-33 31 3 0-41 31l-281 266c-57 70-37-17-35 95-86-2-141 63-180 131l-193 170c-4 44-6 94 5 146 13 55 19 31 34 100 36 90 58 86 87 143 21 42 39 30 9 76-58 89-62 8-65 7 17-9 31-37 35-41-28-51-52-84-91-138-4-5-11-19-13-15-3 6-17-21-24-29-123-158-6-76-127-118l-20 84c-105-16-101 70-89 144l-33-15c-5-3-41-17-48-21l-29 44-73 7c-55 130-109 147-192 199l-29 120-37-2-29 62c0 20 84 184 107 245-29 31-23 22-54 52l-51 52c-69 18 19-7-57 28-34 15-37 24-88 31 37-51 12-19 51-46l57-37c40-30 66-52 108-104-73-76-77-131-159-159l-21 76c-83-3-175 103-194 168-93 8-81 85-45 110-103 61 4 25-102 59-95 30-67-4-115 83-31 36-15 9-30 68l-34 15c-144 37-105 93-219 171-6 105-5 10 24 49l-340 298c-38 23 8-41-82 60l-189 188c-62 62-54 96-204 223l-274 269c-89 68-126 132-203 224l-60 53c-4 3-10 7-14 11l-260 262c-4 4-8 10-11 13-3 4-7 10-11 14l-1365 1328c-49 47-61 67-103 109l-221 204c-52 45-59 46-95 116l-132 102c81-176 2489-3310 2632-3485l984-1262c128-128 38-143 180-236 89-58 67 24 83-83 88-69 93-140 79-304 78 42 42-28 58 96l78-10 77-53-61-105c42-70 30-33 65-87l31 0 38 46 60-64c-29-41-18-26-51-49-13-21-15-33-32-52 27-42 19 16 4-35-10-33-3-5-31-53-28-50-46-40-16-92-16 75 90 114 150 136 106 32 219-72 272-119 3 3 11 1 12 5 1 4 10 4 11 3l44-41c39-50-17-50 66-59 189-41 47-45 168-137 136-103 49 27 103-138l261-14 2-72c-165-3-140-24-168-48 1-3-21-126 154-68 78 26 18 16 12 21l61-83c26-36 10-22 43-59-13-81 16-24-21-46 7-23-1-15 18-43 14-20 28-30 44-48 108-128 40-259-75-333l-1-28c0-111 81-198 83-399l-21-398c-12-49-2-23-22-51-5-363-524-651-851-890-170-124-336-246-505-370-81-60-159-123-243-182-62-44-193-137-265-199-102-68-198-142-307-222-62-45-275-179-295-234-6-46-28-106-12-149l241 0c26 77-1 80 71 142 96-21 66 13 116-106 30-71 20-122 51-143 136 113 278 315 418 393z"/><path class="fil3" d="M12988 16615l-283 799-214 603c-125 207-60 115-221 180-154 61-200 37-396 35-55-103-282-113-397-208-92-76 1-65-127-71-31 51-24 58-47 124l-186 374-98-17c-48-55-22 18-20-78 16-81 59-161 81-267 21-103 35-225 38-339 6-258 13-462 31-718-87 50-1143 1389-816 1867 94-23 331-186 414-253 33-21 26-19 57-23 58 1 67 74 73 117-54 110 13-7-56 60-44 44-31 6-62 75-55 25-66 33-111 62-66 42-31 46-145 33-125-11-123 32-264 36-102 3-164-22-270-12-23 341-242 496-274 723l-100 170-202 278c-104 166-173 166-188 281-66 33-143 157-177 223l-212 265c-31 38-48 71-70 97-52 63-43 34-87 77-19 20-9 11-31 39l-191 254c-74 27-109 93-139 163-4 2-11 1-12 7-3 12-653 537-923 650l-360 196c-63 10-137 63-216 106-83 46-170 79-215 142l-625 0c140-160 745-409 932-501 988-489 1492-1153 2196-2128 199-277 359-544 545-873 309-547 401-1081 652-1497 95-158 189-321 271-461 49-82 512-764 624-838 7 104-55 23 65 83 5 2 72 20 88 23 83 15 135 13 219 6-54 180-146 301-185 534-73 428 31 763 418 952 173 84 417 87 533-86 90-135 129-377 171-542 110-437 488-1230 427-1691-15-58 21-28-34-35 73-123 74-30 179-133 82-80 47-83 170-138-95 160-80 0-74 329 3 111 4 245-1 356-8 170-152 558-155 590z"/><path class="fil4" d="M18865 11346c-22 23-60 54-86 76-80 70-54 11-72 79-160 49-22 77-173 69-122-10-111 36-279 153-104 73-178 177-288 94 79-199 47-9 256-142l-43-18c-6-2-13-5-20-7-74-17-136 6-191 35l-145 132c63 141 61 46 71 142 0 4 0 12 0 16l-9 61-232 200c-33 25-107 67-149 89-42 23-106 63-119 67-88 42-162 86-215 165-47 24-47 14-62 87-39-8-23-2-52 10-2 1-48 26-60 33-122 76-201 168-329 225-74-2-178 83-226 123l-98 81c-35 33-20 10-43 60-92 18-129 69-181 104-24 15-55 32-88 53-85 54-52 18-93 94-37 32-220 158-256 166-96 39-72 44-137 82-42 24-88 41-125 62l-10 70c-111 23-13-6-101 58-49 34-54 38-94 69-71 55-139 128-212 124l-177-41c-1 83-13 86 61 116-231 94-144 3-301-22-40-6-27 3-70-12-66-22-26 1-71-37 35-163 39-83 116-168 127-139 115-87 261-257 64-73 29-53 143-117l0-95c156-189 462-447 661-639 99-94 200-207 331-331 115-108 232-240 326-308 110-45 223-91 260-214 51-7 54-16 88-31 76-35-12-10 57-28 154 30 52-2 190-39l190-41c-4 129 41 128-61 145l403 10-1-321-102-45c-61-29-93 22-127-14-36-39 0-56 0-56 62-95 35 56 91-74l70-71c-3-4-22-37-22-37-26-32-17-18-39-35-17-74-12-17-11-83 13-10 53-38 54-39 29-24 15-11 41-41 17 47 57 95 84 138l37-27c3 1 7 82 65-7 30-46 12-34-9-76-29-57-51-53-87-143l41 0c54 47 47 54 137 67 23 19 7 18 53 27 88 18 300-79 266-169l-9 38c9-4 18-9 26-13l126-70c4-4 7-10 10-14 4-4 7-10 10-15l240-35c-90-21-60-39-59-115l73-13c-57 1-3-38 70 44 87 97 45 14 45 122 8-3 15-11 20-14 6-4 13-10 20-14 6-4 11-9 18-13l386-51c-29 79-38 88-16 186-5-6-81-37 28-9l42 19c4-7 17 8 24 14 0 111 13 116-19 162l-27 72c-57 79-95-23-95 122z"/><path class="fil1" d="M8935 14764c35 21 48 30 90 62 59 44 49 28 89 84-385 195-717 870-1146 948-176 31-471-14-531-188 5-4 11-19 13-15 28 51 22-24 27-28 51-50 65-61 148-61 49 65 53 65 64 183l-74 25c63 30 114-14 146-81 8-132-42-140-134-213l87-157c-60 7-102 23-141 100l-5 18c-11-49-3-48-30-81l-81-55-16-161c-162-14-130-149-350-236l-4-160c-12-5-22-16-25-10l-55-27c-109-55-55-67-218-65l-14 36c-2 4-6 13-8 17l-18 31c-63-104-23-176-55-285-95-35-67 29-145-27-85-62-33-40-186-43-57-88-122-167-205-218 36-90-7-12 45-67 103-106 122 0 140-116 105-18 137-56 270-91 83-22 157-53 272-84 195-52 371-76 573-113 123 68 254 174 369 260 136 101 244 179 368 269 249 181 507 358 740 549z"/><path class="fil1" d="M11539 16479l250-74c141-47 260-172 348-255 118-109 208-161 301-273 75-8 157-78 222-127 60-45 159-100 209-139 55 7 19-23 34 35 61 461-317 1254-427 1691-42 165-81 407-171 542-116 173-360 170-533 86-387-189-491-524-418-952 39-233 131-354 185-534z"/><path class="fil5" d="M11563 15542c-20 79-161 232-212 294-85 104-169 181-326 87-183-109-187-392-805-758-443-261-262-357 187-831 176-46 303-250 723-189 26 4 181 82 222 102 212 107 118 75 174 171 1 2 5 8 6 10l28 21c134 95 213 324 212 396 0 44-17 68-17 69-24 113-28-62-4 37 2 6 85 46-42 348-22 53-36 74-68 123l-78 120z"/><path class="fil3" d="M9364 15039c-4 5-12 5-15 14-10 36-19 19-29 28l-124 137c-364 475-667 989-1061 1325-133 113-247 191-378 308-144 127-210 199-349 335-152 148-574 474-761 604 221-575 1024-1063 965-1504-28-211-240-362-409-428 74-30 196 20 284 38l-95-239c-4-101-20-34 31-55l14 68c60 174 355 219 531 188 429-78 761-753 1146-948 113 33 116 125 250 129z"/><path class="fil4" d="M18983 8768c63 47 170 234 213 308l63 19-2 27c24 74 56 121 95 172 60 80 73 59 93 173l73 21 308 445c2 4 5 11 7 14 2 3 6 11 8 13l15 25c30 150 66 372-8 523l-71 104c-124 78-168 55-274 95-8 46-1 69-15 108-28 78 6 17-56 80l-170-155c-5-2-11-5-16-7-53-24-32-5-83-38l-176-178c-4-6-8-10-12-16l-39-102c164 17 61-16 145 69 72 72 156 197 236 233-19-78-19-34-41-80-4-7-7-12-10-19-146-321-17-160-35-319-11-101-48-32-67-104-3-11-11-10-15-16 34-75 47-31 88-82 45-56 2-178 25-330-355 0-179-28-468 57-28-178 37 61-74-116l-21 22c82-122 53-241 69-402 47-283 21-515-147-691 4-53-22-30 8-65 221 31 173 108 213 212l141 0z"/><path class="fil3" d="M2768 21370c-24 52-33 55-67 86-24 23-22 14-40 36-56 71-17-71-47 86-22 28-100 114-130 136 17-111 46-122 66-175 1-4 4-11 5-15l3-41c-81-26-99 47-169 81l18-52c181-198 660-881 826-1054 91-114 230-279 288-392 41-32 23-14 62-62 24-29 29-38 52-75 52-54 89-117 129-170 59-79 109-106 131-192l63-65c106-129 138-335 237-500l18-151 28-29c75-86 55-95 90-201 2-6 5-12 6-17l132-505c38-93 24-160 51-234 57-57 12 9 44-89l278-888c36-95 61-218 87-306l78-550-15-3c102-58 43-29 85-159 28-86 152-367 144-437 90-63 61-80 102-189 20-50 22-54 53-88 43-46 27-29 76-63-19 177-79 265-142 423-56 141-69 303-110 458-34 127-89 269-129 413l-309 1375c-65 298-124 607-222 909-231 706-387 812-802 1415-277 402-573 752-842 1122-128 176-84 46-128 162z"/><path class="fil6" d="M14275 7854c-136-72-107 4-280 31-163 24-132 59-214 170-86 116-284 331-306 454 273 289 453-158 738-517 56-72 44-50 62-138zm-546-78c-62-64-170-143-250-161-74 120-374 476-407 586 38 68 147 155 239 167 138-146 314-412 418-592zm-630-449c-66 40-365 469-441 585 79 59 133 128 228 169 76-43 405-496 451-595l-238-159zm999-525c-61 40-202 231-220 312 63 67 137 152 261 142l16-62c88-54 355-433 379-505-48-60-160-139-230-168-51 38-182 190-206 281zm38-419c-74-48-132-122-234-152-52 35-419 526-446 599 95 51 150 129 257 151 97-112 377-475 423-598zm770 566c2 222-50 177-117 338l-112 129c-116 164-254 322-341 472-837 1009-347 1010-1752 24-65-46-84-47-100-89l62-3 32-95c1-78 120-186 177-268 59-88 134-204 187-244l116 6 530 375c555 402 381 202 594 158 94-40 8-37 93-7 33 16 43 25 100 34 258-446 740-759 331-969-136 100-345 520-441 566-109 30-19 25-141-3-53-18-340-235-407-285-80-60-326-270-429-291 79-128 128-127 157-269 38-84 97-146 161-229 57-74 148-155 106-232l18-3c97 15 909 636 1060 753l116 132z"/><path class="fil1" d="M3851 22665l-2173 0c60-90 153-174 214-241 63-69 150-166 203-223 72-78 359-420 389-487 30-22 108-108 130-136 84 53-30-3 57 77 3 3 8 8 12 10 33 24 31 0 94 42 64 42 76 116 153 152 28 12 99 14 148 120 32 69 9 133 47 190 89 14 136 10 202 54 126 83-58 55 166 87-20 12-28-9-16 40 21 94 158 104 234 110 32 102 71 142 140 205z"/><path class="fil7" d="M17434 6579c33 38 49 67 81 112 45 61 36 65 105 100l893 1267c165 196 86 132 234 333 50 68 116 153 161 225 27 70 42 85 75 152l-141 0c-40-104 8-181-213-212-30 35-4 12-8 65-250-289-1100-1103-1454-1463l-577-581c-67-67-241-235-280-313 167 30 40-16 178 148 68 81 45 112 132 158l65 29c32 21 92 123 148 137 60 5 202-20 260-37l25 58c2 5 5 11 8 17 3 5 6 10 9 15l80 73c124 51 152-32 185-79l31 24c157-8 62-8 110-47-121-68-96-74-118-142l-33 95c-98 127-264-77-287-149 0 0-15-56-4-87 29-88-22-32 64-72 59 40 9-29 57 84 0 0 3 141 112 145 151 6 66-8 102-55z"/><path class="fil2 str1" d="M15442 5446c-114 4-108-11-182-79-35 137-162 164-200 258 42 87-74 78 134 58l3 84c-16 43 6 103 12 149-82-26-1306-934-1346-977 98-14 48-31 181-116 246-157 509-141 747-17 115 60 596 531 651 640z"/><path class="fil1" d="M4329 22665l-478 0c-69-63-108-103-140-205-76-6-213-16-234-110-12-49-4-28 16-40-224-32-40-4-166-87-66-44-113-40-202-54-38-57-15-121-47-190-49-106-120-108-148-120-77-36-89-110-153-152-63-42-61-18-94-42-4-2-9-7-12-10-87-80 27-24-57-77 30-157-9-15 47-86 18-22 16-13 40-36 34-31 43-34 67-86 37-25 39-28 97-35 6 5 10 13 13 17 3 4 9 11 12 16 3 4 8 11 11 15 3 5 7 11 10 15 3 4 7 10 10 14 102 112 377-92 470 95-34 90 33 34-115 71 6 130-14 21 67 109l63 127c124 36 248-90 366 86l80 133c12 39 12 83 19 125 0 1 13 57 13 59 47 167 199-16 210 282 164 1 217-3 235 166z"/><path class="fil8" d="M16180 10794c-16 107 6 25-83 83-142 93-52 108-180 236l-984 1262c-143 175-2551 3309-2632 3485-147 117-220 292-438 463l-74 82-250 74c-84 7-136 9-219-6-16-3-83-21-88-23-120-60-58 21-65-83 25-15 25-16 49-39-2 82-42 30 41 57 226 85 495-16 678-178l867-1165c82-99 145-228 237-331l491-666c43-62 81-121 125-183l1221-1661c52-83 69-94 121-163l135-171c52-63 74-107 129-156 219-197 57-127 227-336 35 23-63 34 48 17 68-86 90-72 155-168 61-14 51 27 30-50 62-25 63-45 116-92 61-55 68-41 97-123l-66-68c13-39 22-65 41-109 3 43 3 38 15 57 115 26 162 8 256-45z"/><path class="fil7" d="M19777 10612c-23 131-148 231-255 303-30 20-77 53-105 63-86 16-130 50-167 124l-198 146c-107 79-59 41-187 98 0-145 38-43 95-122l27-72c32-46 19-51 19-162-7-6-20-21-24-14l-42-19c-109-28-33 3-28 9-22-98-13-107 16-186l-386 51c-7 4-12 9-18 13-7 4-14 10-20 14-5 3-12 11-20 14 0-108 42-25-45-122-73-82-127-43-70-44l-17-53c116 0 60-37 54-154l64-33 88 6c56 100-56-1 71 69 41-68 103-60 116-107 3-11 10-12 13-19 48-54 169-62 171-228 2-134-72-192-159-232-84-35-79-41-182-27 28-90 70-98 111-214l21-22c111 177 46-62 74 116 289-85 113-57 468-57-23 152 20 274-25 330-41 51-54 7-88 82 4 6 12 5 15 16 19 72 56 3 67 104 18 159-111-2 35 319 3 7 6 12 10 19 22 46 22 2 41 80-80-36-164-161-236-233-84-85 19-52-145-69l39 102c4 6 8 10 12 16l176 178c51 33 30 14 83 38 5 2 11 5 16 7l170 155c62-63 28-2 56-80 14-39 7-62 15-108 106-40 150-17 274-95z"/><path class="fil1" d="M10999 18356c-6 4-16 2-19 10-23 71 2-3-27 11-81-159-93-135-147-155l-28 34c-118 122 50-1-73 57-15 7-103-17-106 80l-5 62c14 96 77 122 184 121-3 14-5 24-8 42l-23 28c-83 67-320 230-414 253-327-478 729-1817 816-1867-18 256-25 460-31 718-3 114-17 236-38 339-22 106-65 186-81 267z"/><path class="fil9" d="M11255 13869c2 117 32 69 173 133 141 64 358 246 429 380l48 99 21 190 95 22c24 190 103 318 62 545-18 100-5-23-10 102-11 280-240 488-377 698-133 205-60 39-273 357l-166-10c-83-27-43 25-41-57 127-228 619-409 686-1113 29-301-17-538-154-747-98-148-309-382-499-425-47-81 13-78-139-191-158-118-79-49-68-168-110-14-126 8-180 95 68 132 146 81 219 190l-253 21c-320 21-657 263-841 412-94 76-596 532-623 637-134-4-137-96-250-129-40-56-30-40-89-84-42-32-55-41-90-62 126-30 40-26 125 13 9 4 73 55 76 58 60 64 28 85 181 141 23-77 26-63 68-111l757-689c81-61 125-118 222-138 266-55 168-115 567-117 0-1-237-216 2-283 85-24 126-28 151 54l26 90c28 57 85 72 145 87z"/><path class="fil10" d="M14124 7373c91 148 138 165 58 379-213 44-39 244-594-158l-530-375c-224-366 81-470 230-422 103 21 349 231 429 291 67 50 354 267 407 285z"/><path class="fil11" d="M16195 12095c63 70-85 40 89 52-94 68-211 200-326 308-131 124-232 237-331 331-199 192-505 450-661 639-67 68-121 108-194 183-71 74-119 118-193 187-124 116-257 230-380 371l-380 368c-99 80-222 222-342 332-140 129-224 216-350 335l-689 676-61-9c29-86 6-34 56-110 36-70 43-71 95-116l221-204c42-42 54-62 103-109l1365-1328c4-4 8-10 11-14 3-3 7-9 11-13l260-262c4-4 10-8 14-11l60-53c77-92 114-156 203-224l274-269c150-127 142-161 204-223l189-188c90-101 44-37 82-60l340-298 21-1c35 22-49 30 44 16 56-51 129-91 200-158-19-80 3-23-36-92 15-59-1-32 30-68l71 12z"/><path class="fil4" d="M17087 6063l340 461 7 55c-36 47 49 61-102 55-109-4-112-145-112-145-48-113 2-44-57-84-86 40-35-16-64 72-11 31 4 87 4 87 23 72 189 276 287 149l33-95c22 68-3 74 118 142-48 39 47 39-110 47l-31-24c-33 47-61 130-185 79l-80-73c-3-5-6-10-9-15-3-6-6-12-8-17l-25-58c-58 17-200 42-260 37-56-14-116-116-148-137l-65-29c-87-46-64-77-132-158-138-164-11-118-178-148l10 5 74-219c2-13 8-16 13-23 77 0 151-4 225-6 52-1-49-9 57 2 6 1 12 2 18 3 83 12-25 26 88 16-13-46-49-45-81-109 28-64 82-119 142-121 34 73 141 225 231 251z"/><path class="fil12" d="M16685 5507c48 40 65 52 108 110 22 30 32 48 48 70 58 74-9 23 86 81 8 54 38 94 73 138 57 74 52 62 87 157-90-26-197-178-231-251-60 2-114 57-142 121 32 64 68 63 81 109-113 10-5-4-88-16-6-1-12-2-18-3-106-11-5-3-57-2-74 2-148 6-225 6-5 7-11 10-13 23l-74 219c-93-34-189-134-228-226l102-14c1 9 4 12 5 21 1 6-9 72 64 83 44 7 17 8 51-11 1-74 14-31-57-94-125-112 32 90-40-30 118-18 79 40 191-36l70-52c144-110 165-95 190-202-141 12-33-6-115 37l-163 122c-56 41-45-21-57 60 2-87 8-181-44-253-111 68 41 246-177 197-18-64-39-51 35-153 25-34 10-18 31-39 62-59 77-26 157-43l84-34c-72-189-373-12-374 1l-80 216c-1 144 80-4 129 234-140-78-282-280-418-393l-86-109c76-16 277-221 508-236 179-12 491 28 587 192z"/><path class="fil1 str2" d="M6749 14730c18 73 16 52-8 112l-71 19c-7 1-14 3-23 4-26 3-67 1-95 1 6 82-19-40 32 45l25 46c5 8 11 17 14 27-207-23-41-72-262-71-3-5-6-21-7-17-13 35-13-29-15-35-14-27 17-21-59-77-2-1-60-34-62-35-156-76-54 33-209-23-4-5-8-22-9-19-6 20-11-85-49-136l-47-60c33-103 88-68 34-165 18 47 23-30-65 94-77 110-45 93-128 104 19-85 54-125 102-195 56-81 89-83 89-155l34-21c128-81 244-190 373-199-18 116-37 10-140 116-52 55-9-23-45 67 83 51 148 130 205 218 153 3 101-19 186 43 78 56 50-8 145 27 32 109-8 181 55 285z"/><path class="fil12" d="M14282 14582c-58 83-139 135-228 200l-499 328c-149 114-118 63-220 178l-84 14c-21 43 2 20-33 38-123 55-88 58-170 138-105 103-106 10-179 133-50 39-149 94-209 139-65 49-147 119-222 127l689-676c126-119 210-206 350-335 120-110 243-252 342-332l-11 100 189-20c-6 5-7-35-10 23-8 137-16-21 10 45 298-89 103-87 285-100z"/><path class="fil1 str2" d="M6718 15152l189-7c82 147-66 25 152 264-47 112-48 51-34 107 13-4 357-259 132-401-72-44-100-27-175-21-13-195-132-278-299-167-10 89 1 154 35 225zm850 289c-91 7-84-45-121-102-55-84-27-60-170-53l27 269c-134-40-27-57-136-97 23 55 15 31 32 95-147 5-31-2-98 16-6 1-92 17-156 16-2-182 31-136-17-201l-69-106c-1-2-5-8-7-12-230 1-168-4-235-62-23-20-55-40-89-55 38-82 53 99-63-47-36-44-108-115-105-189 221-1 55 48 262 71-3-10-9-19-14-27l-25-46c-51-85-26 37-32-45 28 0 69 2 95-1 9-1 16-3 23-4l71-19c24-60 26-39 8-112l18-31c2-4 6-13 8-17l14-36c163-2 109 10 218 65l55 27c3-6 13 5 25 10l4 160c220 87 188 222 350 236l16 161 81 55c27 33 19 32 30 81z"/><path class="fil13" d="M13995 7885c173-27 144-103 280-31-18 88-6 66-62 138-285 359-465 806-738 517 22-123 220-338 306-454 82-111 51-146 214-170z"/><path class="fil13" d="M14275 7745c15-183-11-220-10-369 96-46 305-466 441-566 409 210-73 523-331 969-57-9-67-18-100-34z"/><path class="fil13" d="M13712 6067c42 77-49 158-106 232-64 83-123 145-161 229-259 306-105 117-352 206-66 24-62 63-152 26-15-109 287-484 376-585 160-182 105-230 395-108z"/><path class="fil10" d="M12942 7213c-53 40-128 156-187 244-57 82-176 190-177 268-63 47-17-38-59 61-328-135-144-331-14-510 69-94 279-394 357-445 99 73 54 42 48 165-6 124 25 125 32 217z"/><path class="fil13" d="M14136 6383c-46 123-326 486-423 598-107-22-162-100-257-151 27-73 394-564 446-599 102 30 160 104 234 152z"/><path class="fil13" d="M13729 7776c-104 180-280 446-418 592-92-12-201-99-239-167 33-110 333-466 407-586 80 18 188 97 250 161z"/><path class="fil3" d="M2484 21714c-30 67-317 409-389 487-53 57-140 154-203 223-61 67-154 151-214 241l-136 0 0-32c151-126 744-1037 847-1069 70-34 88-107 169-81l-3 41c-1 4-4 11-5 15-20 53-49 64-66 175z"/><path class="fil13" d="M13337 7486c-46 99-375 552-451 595-95-41-149-110-228-169 76-116 375-545 441-585l238 159z"/><path class="fil11" d="M18699 9714c-41 116-83 124-111 214-92 34-83 39-148 105-57 63-72 107-139 142l-73-17-62 57 2 113-89 68 135 184c87 128 67 61 69 135 2 45 19 38-28 61-63 30-28 14-55-21 11-18 16-30 34-49-61-96-109-164-171-249l-71-107c-73 23-129 60-198 118l-5 3c-2-112-22-25 35-95l281-266c44-31 8 0 41-31l33-38c178-195 269-248 302-284 3-4 8-9 10-13 42-52 27-69 77-114 43-38 16 14 81-61 48-55 87-201 119-257-16 161 13 280-69 402z"/><path class="fil4" d="M14328 14542c-8 65 21 34-46 40-182 13 13 11-285 100-26-66-18 92-10-45 3-58 4-18 10-23l-189 20 11-100 380-368 128-9c-1 10-4 20-6 30l-36 143 149-31c-26-133-30 33-45-101-10-103-23-40 33-88 65 6 25 9 68 73l59 76c2-4 11 10 15 16-40 138-113 127-213 166-23 54-10 21-23 101z"/><path class="fil7" d="M17212 11394l51 22 9 23c-56 130-29-21-91 74 0 0-36 17 0 56 34 36 66-15 127 14l102 45 1 321-403-10c102-17 57-16 61-145l-190 41c-138 37-36 69-190 39l51-52c31-30 25-21 54-52-23-61-107-225-107-245 14 87 8 46 90 90 65 34 3 18 61 29 100 18 22 9 53-10l18-1c48 24 61 26 113 1 120-56 127-164 109-289 39 22 44 23 81 49z"/><path class="fil14" d="M13730 6064l-18 3c-290-122-235-74-395 108-89 101-391 476-376 585 90 37 86-2 152-26 247-89 93 100 352-206-29 142-78 141-157 269-149-48-454 56-230 422l-116-6c-7-92-38-93-32-217 6-123 51-92-48-165-78 51-288 351-357 445-130 179-314 375 14 510 42-99-4-14 59-61l-32 95-62 3c-341-148-174-361-32-551 118-159 881-1229 966-1282 121-76 259-23 312 74z"/><path class="fil3" d="M11563 15542c56 24 108-19-38 161-225 279-250 405-494 313-159-60-208-273-537-577-107-99-184-140-320-222-61-37-107-65-159-101-50-35-55-33-79-67-115-162 74-357 180-447 109-94 183-223 291-268-449 474-630 570-187 831 618 366 622 649 805 758 157 94 241 17 326-87 51-62 192-215 212-294z"/><path class="fil12" d="M15004 14058c-79 138-106 81-310 250-103 85-247 196-366 234 13-80 0-47 23-101 100-39 173-28 213-166-4-6-13-20-15-16l-59-76c-43-64-3-67-68-73-56 48-43-15-33 88 15 134 19-32 45 101l-149 31 36-143c2-10 5-20 6-30l-128 9c123-141 256-255 380-371 74-69 122-113 193-187 73-75 127-115 194-183l0 95c-114 64-79 44-143 117-146 170-134 118-261 257-77 85-81 5-116 168 45 38 5 15 71 37 43 15 30 6 70 12 157 25 70 116 301 22-74-30-62-33-61-116l177 41z"/><path class="fil0 str0" d="M8608 12600c-46-105-8-6 55-71l87 90c29-20 37-24 68-53 2 109 0 53-15 114-28 109-4 1-6 128l-141 23 94 73c-85 6-165 18-205 110-60 137 77 27-102 170-8-1-50 6-60-22-3-9-4-14-7-21 43-11 1 35 45-48-34-84-115-114-186-170-80-61-133-103-210-149l33-68c35-110-32-215 85-266 7-3 49-13 56-15 33-6 1-12 59-3-88 120-175 166-106 348 55 23 108 31 186 25 27 117 78 176 161 215 111-245-158-158-30-315 61-50 17 10 185 89 27-49 28-40 46-92-58-57-78-43-92-92z"/><path class="fil2 str1" d="M15442 5446l26 13c22 15 7 4 38 27 39 31 35 34 84 65l86 109c-31 21-21 72-51 143-50 119-20 85-116 106-72-62-45-65-71-142l-241 0-3-84c-208 20-92 29-134-58 38-94 165-121 200-258 74 68 68 83 182 79z"/><path class="fil15" d="M16092 6043l2 10c-49-238-130-90-129-234l80-216c1-13 302-190 374-1l-84 34c-80 17-95-16-157 43-21 21-6 5-31 39-74 102-53 89-35 153 218 49 66-129 177-197 52 72 46 166 44 253 12-81 1-19 57-60l163-122c82-43-26-25 115-37-25 107-46 92-190 202l-70 52c-112 76-73 18-191 36 72 120-85-82 40 30 71 63 58 20 57 94-34 19-7 18-51 11-73-11-63-77-64-83-1-9-4-12-5-21l-102 14z"/><path class="fil8" d="M17635 8861c-184-8-358 47-315 201 81-39 48-43 87-73 47-37 59-34 131-38-47 99-73 71-126 159-21 36-16 14-22 53-71 72-11 27-83 58-71-33-98-57-172-71 85-161 234-339 358-500 180-233 177-267 182-637 20 28 10 2 22 51l21 398c-2 201-83 288-83 399z"/><path class="fil0 str0" d="M15178 6949c103 0 138 29 90 285l-19 69c-75 31-155 14-237 13-233-1-85 6-223-29 67-161 119-116 117-338 156-94 144-27 272 0z"/><path class="fil16" d="M8279 13117c-50-52-78-69-130-108-76-57-68-71-163-88-133 318 190 394 293 196zm97 24c-84 183-317 300-487 104-135-156 19-437 136-471 77 46 130 88 210 149 71 56 152 86 186 170-44 83-2 37-45 48z"/><path class="fil17" d="M9952 10848c-47-54-205-181-280-208-179 253 128 436 280 208zm-119-255c77 65 235 134 257 241-4 3-9 4-10 9 0 1-219 362-479 169-219-163-44-398 71-510l161 91z"/><path class="fil16" d="M8390 12644c-22-73-42-75-108-107-112 128-10 216 108 107zm218-44c14 49 34 35 92 92-18 52-19 43-46 92-168-79-124-139-185-89-128 157 141 70 30 315-83-39-134-98-161-215-78 6-131-2-186-25-69-182 18-228 106-348 35-25 16-18 50-22l300 200z"/><path class="fil16" d="M10195 9939c-2-5-10 1-15 2-94 125 55 208 130 51-19-12-49-35-70-44-4-2-12-5-15-6-4-1-13-2-15-3-3-1-13 5-15 0zm174 456c-19-70-22-38-68-105-26-40-38-74-62-108-349 27-159-281-47-395 71 14 383 244 423 305l-44 75c-104-30-123-102-203-85-48 143 63 107 84 252-46 37-36 33-83 61z"/><path class="fil0 str0" d="M10369 10395l41 93c-41-8 45-53-39 8-114 82 39 151-163 257-3 2-9 5-13 7l-28 19c-57 39 65-6-77 55-22-107-180-176-257-241 31-125-1 21 4-68 5-70 40-45-24-74 62-52 57-109 140-140 70 67 84 8 16 124-30 52-63 39-37 106 77 89 76-59 189-101 120 81 15 125-41 238l64 41c57-39 173-199 196-283-86-38-178-108-245-173l1-40c213 24 95 0 143-41 24 34 36 68 62 108 46 67 49 35 68 105z"/><path class="fil2 str1" d="M17571 9265c17 52-5 57 78 48 37 22 8-35 21 46-33 37-17 23-43 59l-61 83c6-5 66 5-12-21-175-58-153 65-154 68 28 24 3 45 168 48l-2 72-261 14c-54 165 33 35-103 138-121 92 21 96-168 137 53-46 28-22 71-78l-58-163c-29-75 28 12-30-52 46-19 102 63 146 95 30-24 29-21 55-52-30-75-71-59-102-143l0-24-5-70 32 5 34 0 105 171c5-4 28-2 49-45 47-95-89-58 47-214 82 18 45 31 135 43l40-54c-41-55-178-119-251-137l5-18c72-31 12 14 83-58 45 80 65 89 181 102z"/><path class="fil17" d="M8679 12337l61-68-160-79c29 87 33 91 99 147zm139 229c-31 29-39 33-68 53l-87-90c-62-115-203-252-223-357l71-97 517 169-49 89-164-29-57 105c27 80 51 61 60 157z"/><path class="fil16" d="M10095 10263c67 65 159 135 245 173-23 84-139 244-196 283l-64-41c56-113 161-157 41-238-113 42-112 190-189 101-26-67 7-54 37-106 68-116 54-57-16-124-83 31-78 88-140 140-64-24-45-4-70-52 22-42 53-84 85-127l104-113 163 104z"/><path class="fil12" d="M18701 10399l57 16c-3 7-10 8-13 19-13 47-75 39-116 107-127-70-15 31-71-69 61-30 34 23 53-55-87-47-229-206-310-218l0-24c67-35 82-79 139-142-5 112-9 34 23 65 5-3 13-15 15-10l57-43c146-83 232 87 234 94-18 190-108 105-115 260l47 0z"/><path class="fil0 str0" d="M12021 14693l-95-22-21-190c0-1-28-106 201-106 80 0 125 33 208 51l-12 260c-88 18-185 19-281 7z"/><path class="fil10" d="M14155 7194l-16 62c-124 10-198-75-261-142 18-81 159-272 220-312 178-42 7-6 102 17 27 7 108-1 106 58l0 43c-2 6-3 13-5 19-2 5-5 11-8 16-45 89-96 4-138 239z"/><path class="fil16" d="M14819 10636c-44-53-170-156-251-164-112 255 167 334 251 164zm121-48c-57 93-53 137-150 202-157 104-400-22-346-241 23-94 92-164 143-206 88 27 284 180 353 245z"/><path class="fil13" d="M14155 7194c42-235 93-150 138-239 3-5 6-11 8-16 2-6 3-13 5-19l0-43c2-59-79-51-106-58-95-23 76-59-102-17 24-91 155-243 206-281 70 29 182 108 230 168-24 72-291 451-379 505z"/><path class="fil16" d="M15180 9848c-185-114-228 130-81 207 183 96 260-97 81-207zm190 173c-69 275-522 153-452-133 70-290 525-158 452 133z"/><path class="fil16" d="M15861 9218c-47-59-164-163-265-165l-16 171c125 94 196 134 281-6zm120-48c-8 2-16 48-19 54l-71 91c-26 27-72 74-129 87-148 34-211-77-277-121-19-196 52-273 147-372l349 261z"/><path class="fil1 str2" d="M7568 15441l5-18c39-77 81-93 141-100l-87 157c92 73 142 81 134 213-32 67-83 111-146 81l74-25c-11-118-15-118-64-183-83 0-97 11-148 61-5 4 1 79-27 28-2-4-8 11-13 15l-14-68c-40-78-7-145-53-231-12 50-6 84-11 132-12 99 5 69-56 119-20-3-8-51-103-69-17-64-9-40-32-95 109 40 2 57 136 97l-27-269c143-7 115-31 170 53 37 57 30 109 121 102z"/><path class="fil16" d="M15864 8722c-36 46-54 42-24 114 77 13 61 14 113-23-11-71-12-60-89-91zm0-123c52 15 333 185 348 250 29 132-165 1-199-4-43 185 110 74 46 264-36-11-84 9-142-159-244-55-260-136-53-351z"/><path class="fil16" d="M15359 9413c-34-32-28-19-56-54l39-70c94 44 140 89 213 143 37 27 72 43 100 69 81 74 41 113-21 105l-125-72c-56 42-69 73-91 134l137 98-67 78c-58-28-128-94-189-134-66-44-122-71-137-121-9-29-33-68 56-55 42 6 5-2 47 19 57 28 12 18 76 40l77-115-59-65z"/><path class="fil2 str1" d="M18117 9489c13 54 21 192 8 231l-87 19c-105 10-234 29-273-10-95-92 28-415 352-240z"/><path class="fil16" d="M9040 12188c-78-127 74-80 58-249-10-104-104-161-230-150-116 73-93 165-189 129-5-5-65-2 24-122 193-262 553-81 510 179-18 109-93 199-173 213z"/><path class="fil17" d="M10286 9731c-68-110 150-306 343-243 175 57 236 243 143 405-18 31-45 79-78 91-44 18-78 7-72-50 8-63 126-89 71-226-24-59-108-135-212-111-53 12-62 29-96 75-77 100 22 71-99 59z"/><path class="fil16" d="M14091 11135c-46 67-54 65 0 127 94-12 51 5 94-59-29-51-29-45-94-68zm320 201c-113-43-57-81-169-78-45 204 112 57 48 267-87-32-122-92-151-182-301 37-166-264-24-334l339 267-43 60z"/><path class="fil16" d="M16212 8547l41-60c-62-46-52-42-127-55 32 82 26 58 86 115zm53 241c-53-52-243-309-269-374l54-96c87 11 407 100 447 167-111 167-67-75-229 113 27 80 34 46 57 122l-60 68z"/><path class="fil18" d="M18206 10352c15 83 27 110 51 185 26 82 13 122 95 116l17 53-73 13c-1 76-31 94 59 115l-240 35c-3 5-6 11-10 15-3 4-6 10-10 14l-126 70c-8 4-17 9-26 13l9-38-19-92c-107-95-168-191-144-380l5-3-3 158c16 18 28 10 50 26 136 74 62 91 119 230 179-65-2-55 62-237 26-3-38-77 83 38 4 4 36 38 37 39 58 45-31-7 58 33 27 35-8 51 55 21 47-23 30-16 28-61-2-74 18-7-69-135l-135-184 89-68 38 24z"/><path class="fil12" d="M17886 12036l9-61c0-4 0-12 0-16-10-96-8-1-71-142l145-132c55-29 117-52 191-35 7 2 14 5 20 7l43 18c-209 133-177-57-256 142 110 83 184-21 288-94 168-117 157-163 279-153-50 112 12 12-70 85-142 126-235 147-440 312l-138 69z"/><path class="fil17" d="M9250 11256c137 125 295 171 322 275l-38 54c-123-27-239-162-359-227-105 73-32 122-129 72-76-39 41-138 114-242 83-117 52-83 113-104 72 100 15 50-23 172z"/><path class="fil16" d="M14324 11042c-2-4-2-11-2-13 11-135 102-61 27-177-114 15-3-20-95 69-98 96-60 34-75 30-6-12-24-14 4-75l116-169c69 32 304 201 363 259-22 73-107 216-181 223-66-83 20-68 54-194l-66-41c-122 70-34 145-145 88z"/><path class="fil1" d="M10953 18377l-134 229c-4 5-10 11-15 17-31 4-24 2-57 23l23-28c3-18 5-28 8-42-107 1-170-25-184-121l5-62c3-97 91-73 106-80 123-58-45 65 73-57l28-34c54 20 66-4 147 155z"/><path class="fil19" d="M7458 13686c-202 37-378 61-573 113-115 31-189 62-272 84-133 35-165 73-270 91 15-71-13-49 99-95 48-20 81-32 116-47 247-107 129-88 233-110 113-24 498-71 576-104l91 68z"/><path class="fil20" d="M18316 10423c7-6 54 19 24-82-16-52-25-45-62-73l38 155zm242 49l-88-6-23-40c-133 97-57 36-78 180l-17 47c-82 6-69-34-95-116-24-75-36-102-51-185l-13-82c73-29 71-20 108-71 81 12 223 171 310 218-19 78 8 25-53 55z"/><path class="fil21" d="M12323 12389c-12-114-97-196-227-180-15 116 99 185 227 180zm-44-254c82 127 212 172 58 336-215 39-375-110-304-323 118-26 122-27 246-13z"/><path class="fil21" d="M14075 9845c-96-22-130 53-53 103 34 23 62 26 81-9 34-63-19-85-28-94zm-2-119c141 91 190 254-5 321-163 26-239-140-102-257-149 3-102 77-184 45-5-12-50 16 10-63 9-11 59-50 84-60 75-31 129-12 197 14z"/><path class="fil21" d="M12819 11445c28-30 21-66-17-89-73-43-79 11-83 13-34 85 48 131 100 76zm89-29l-35 104c131-29 86-65 164-66 22 91-4 49-50 141-265 16-436-36-318-312 97-22 281-50 239 133z"/><path class="fil22" d="M18770 9955c62 81 115 100 104 255-47 99-99 130-173 189l-47 0c7-155 97-70 115-260-2-7-88-177-234-94l-57 43c-2-5-10 7-15 10-32-31-28 47-23-65 65-66 56-71 148-105 103-14 98-8 182 27z"/><path class="fil16" d="M16508 8407c-16-122 83-91 52-220-22-95-111-126-229-104-52 30-15 95-113 111-93-122 161-292 337-188 174 104 126 387-47 401z"/><path class="fil21" d="M15363 7823c144 92 200-37 334 24-18 95-100 207-188 246-29-93-11-51 33-156-514 39-204-360-126-279 61 65-51 27-53 165z"/><path class="fil21" d="M14902 8674c-57-40-45-36-146-38 119 170 144 40 146 38zm90 24c-31 19-15 5-48 47 35 177 165 114-147 124l5-79c-98-56-135-75-174-140 52-93 36-86 171-79 76 3 157 15 219 33l-26 94z"/><path class="fil21" d="M15188 8207c8 99-34 46 7 144 2 0 19 64 96-35 65-83-27-43 77-62 32 96-56 163-128 219l-103-5c-81-191-47-77-183-181-15-121 41-211 142-217 25 132-47 26-46 166 137 25 56-80 138-29z"/><path class="fil21" d="M14365 9304c-2 124-59 68-22 180 19 9 7 19 52 13 62-8 67-58 98-107 84 32 60 69 5 139-58 75-96 77-218 60-11-47 12 11-33-60-20-114-6-101 25-189-123-6-37 41-168 93l-1-65 108-149 154 85z"/><path class="fil0" d="M9952 10848c-152 228-459 45-280-208 75 27 233 154 280 208z"/><path class="fil16" d="M9766 11250l-41 77c-92-32-253-166-347-232-82-58-67-29-84-108 76-114 157 16 362 161 75 53 73 41 110 102z"/><path class="fil1 str2" d="M7184 15155c-138-102-212-29-213 145 152 58 265 79 213-145zm-435-236c-31 56-13-70-31 71-12 95 50 131 118 151 222-104 42-336-87-222zm-31 233c-34-71-45-136-35-225 167-111 286-28 299 167 75-6 103-23 175 21 225 142-119 397-132 401-14-56-13 5 34-107-218-239-70-117-152-264l-189 7z"/><path class="fil0" d="M8279 13117c-103 198-426 122-293-196 95 17 87 31 163 88 52 39 80 56 130 108z"/><path class="fil20" d="M18200 10755c-89-40 0 12-58-33-1-1-33-35-37-39-121-115-57-41-83-38-64 182 117 172-62 237-57-139 17-156-119-230 4-7 13-13 18-16l99-40 61-7-26-92 10-62 60 22c62 85 110 153 171 249-18 19-23 31-34 49z"/><path class="fil23" d="M12438 15877c-93 112-183 164-301 273-88 83-207 208-348 255l74-82c218-171 291-346 438-463l132-102c-50 76-27 24-56 110l61 9z"/><path class="fil16" d="M15012 10352c-96-116-318-186-245-266 45-49 158 59 192 84 63 46 114 79 177 135-15 73-95 201-168 230-62-87-3-84 44-183z"/><path class="fil23" d="M17952 10943c34 90-178 187-266 169-46-9-30-8-53-27 129-19 200-80 271-142-43-88-99-135-134-216-4-5-11-20-13-16l-48-57c-21-30-25-44-39-75-97 28-11-4-61 23 39-68 94-133 180-131-24 189 37 285 144 380l19 92z"/><path class="fil24" d="M17430 11065c-82-4-64 5-65 68-93 1-77 30-148 71l16 64c-59-6-21-19-63 10 7 77 7 48 42 116-37-26-42-27-81-49-17-155-69-68-84-206l29-44c7 4 43 18 48 21l33 15 116-72-27-72 20-84c121 42 4-40 127 118 7 8 21 35 24 29 2-4 9 10 13 15z"/><path class="fil23" d="M16580 11663c29 49 14 12 29 83-54 70-64 45-107 118l42 69c-37 123-150 169-260 214-174-12-26 18-89-52 81-13 98-5 159-51l87-72c2-1 7-7 8-8 1-1 5-5 7-8-25-85-27-47-70-125 19-65 111-171 194-168z"/><path class="fil20" d="M17177 9475l12-93c19 0 50 42 116 1 29-130-49-2-3-144 73 18 210 82 251 137l-40 54c-90-12-53-25-135-43-136 156 0 119-47 214-21 43-44 41-49 45l-105-171z"/><path class="fil21" d="M13724 10367l-266-43-11-94c81-63 99-170 179-169 37 97-18 74-55 173 161 83 297 0 326 115-74 48-59 29-173 18z"/><path class="fil25" d="M16522 10212c17 19 19 31 32 52l-47 67-31 0c-15-31-21-47-37-80l-141 81c47 187 38 59 126 163l-29 81-78 10c-16-124 20-54-58-96l-58-67c54-114 148-204 211-310l110 99z"/><path class="fil2" d="M17571 9265c-116-13-136-22-181-102 6-39 1-17 22-53 53-88 79-60 126-159l13 7c57 39 120 66 112 164-6 84-62 100-92 143z"/><path class="fil20" d="M17633 11085c-90-13-83-20-137-67 6-56-8-64 45-88l21-3c64 94 119 62 214 38-11-114-31-70-68-163 6-97 23-57 62-75 35 81 91 128 134 216-71 62-142 123-271 142z"/><path class="fil23" d="M11249 14043c-160-58-243-57-421-53l253-21c-73-109-151-58-219-190 54-87 70-109 180-95-11 119-90 50 68 168 152 113 92 110 139 191z"/><path class="fil26" d="M16180 10794c-94 53-141 71-256 45-12-19-12-14-15-57l24-33c242-9 187-14 164-210 59-79-11-25 83-59 20 49 50 107 49 180-1 86-15 96-49 134z"/><path class="fil24" d="M17770 10727c-39 18-56-22-62 75-25-26-43-44-73-62-24-48 41-41-55-38-86 75-73 108-39 228-53 24-39 32-45 88l-41 0c-15-69-21-45-34-100-11-52-9-102-5-146l193-170c50-27-36 5 61-23 14 31 18 45 39 75l48 57c2-4 9 11 13 16z"/><path class="fil0" d="M15180 9848c179 110 102 303-81 207-147-77-104-321 81-207z"/><path class="fil3" d="M11117 18451c-68 116-113 211-240 289-6-43-15-116-73-117 5-6 11-12 15-17l134-229c29-14 4 60 27-11 3-8 13-6 19-10-2 96-28 23 20 78l98 17z"/><path class="fil21" d="M13469 10632c114 17-8-17 53 51-14 83 4 57-46 114l-3-78-89 23c-30 77 5 33-77 26l28-66c-17-78 0-66-81-91l-22 83 4 89-69-25-15-83c19-64 59-136 137-144 98-11 71 17 102 47 58 56-10 34 78 54z"/><path class="fil0 str0" d="M13671 10139l-15 74c142 74 52 33 198 49 90 9 189 94 48 130-7 3-54 24-72 24-212 2-59 14-106-49 114 11 99 30 173-18-29-115-165-32-326-115 37-99 92-76 55-173-80-1-98 106-179 169l11 94c-56-66-37 85-43-90-4-114 10-47 45-86 66-71 50-76 93-142 106 4 95 17 143 75-20 25-3 8-25 58z"/><path class="fil27" d="M17131 11345c18 125 11 233-109 289-52 25-65 23-113-1 123-48 177-90 181-248-25-88-54-118-116-157l-50 34-123 130 37 62c26 138 27 41-21 61l-64-50 29-120c83-52 137-69 192-199l73-7c15 138 67 51 84 206z"/><path class="fil28" d="M16921 9831l50 74c3 3 12 18 13 14 2-4 9 9 14 14 110-84 41-84-5-220l24-49c58 64 1-23 30 52l58 163c-43 56-18 32-71 78-83 9-27 9-66 59l-44 41c-1 1-10 1-11-3-1-4-9-2-12-5l48-74-101-94-85-100c-51-46-8-34-85-33 36-48 50-75 78-109 20 96 26 93 148 93-3 28-3 32-1 55l18 44z"/><path class="fil26" d="M17116 9540l0 24c-118 18-46-25-126 95-41 61-58 76-69 172l-18-44c-2-23-2-27 1-55-122 0-128 3-148-93l45-77c5 6 10 13 13 17l68 77 87-40c-9-53-4-35-34-73l-58-77 58-53c90 48 59 81 181 127z"/><path class="fil26" d="M17307 9221l-5 18c-46 142 32 14 3 144-66 41-97-1-116-1l-12 93-34 0c-4-105-47-155-78-242l70-83c74 14 101 38 172 71z"/><path class="fil21" d="M11386 13538l-105-91c-65-46-63-43-98-94 40-82 34-43 80-97l87 2c-22 124-22 0-16 109 56 41 71 48 127 88 66 46 92 38 62 115-35 38-103-18-137-32z"/><path class="fil21" d="M12508 11938c-33-61-103-87-167-144 16-84 8-43 49-99l114-17c-4 137-86 57 123 210 75 55 90 44 38 140l-157-90z"/><path class="fil0" d="M15861 9218c-85 140-156 100-281 6l16-171c101 2 218 106 265 165z"/><path class="fil0" d="M14819 10636c-84 170-363 91-251-164 81 8 207 111 251 164z"/><path class="fil21" d="M15725 7347c193 109 226 137 200 232-73-7-294-182-339-228 29-82 66-104 159-116 2 65-5 60-20 112z"/><path class="fil0 str0" d="M14428 9213c66 45 15-21 57 75-6 3-14 5-19 6l-101 10-154-85-108 149-7-246 61 92 141 2c9 0 56 61 77-69-7-5-19-17-24-9l-48-12c-93-16-9 92-99-27 27-67-7-3 135-53 7-2 30-18 37-22l52 189z"/><path class="fil21" d="M11892 12581c-85 27-23 1-42 40 196 156 244 136 213 243l-104-42c-81-62-196-126-249-205l96-96 77 14 9 46z"/><path class="fil20" d="M17649 9313c-83 9-61 4-78-48 30-43 86-59 92-143 8-98-55-125-112-164l25-67 60-2c115 74 183 205 75 333-16 18-30 28-44 48-19 28-11 20-18 43z"/><path class="fil1" d="M6836 15141c-68-20-130-56-118-151 18-141 0-15 31-71 129-114 309 118 87 222z"/><path class="fil1 str2" d="M7184 15155c52 224-61 203-213 145 1-174 75-247 213-145z"/><path class="fil29" d="M13236 10783l-4-89 103 8-28 66c82 7 47 51 77-26l12 66c65 20 22 26 80-11 50-57 32-31 46-114-61-68 61-34-53-51l78 2c15 61 31 88 22 175-2 4-132 204-262 44-52-65 9-27-71-70z"/><path class="fil20" d="M17017 9664l-24 49c46 136 115 136 5 220-5-5-12-18-14-14-1 4-10-11-13-14l-50-74c11-96 28-111 69-172 80-120 8-77 126-95 31 84 72 68 102 143-26 31-25 28-55 52-44-32-100-114-146-95z"/><path class="fil0 str0" d="M15054 8603c-3 71 12 105-62 95l26-94c-62-18-143-30-219-33-135-7-119-14-171 79 39 65 76 84 174 140l-5 79c-69-31-13 0-62-55-46-53-17-21-64-59-54-44-60-57-89-111 32-76 41-82 103-128 132 4 289 16 369 87z"/><path class="fil30" d="M16544 11933l-42-69c43-73 53-48 107-118-15-71 0-34-29-83l21-76c82 28 86 83 159 159-42 52-68 74-108 104l-57 37c-39 27-14-5-51 46z"/><path class="fil0" d="M15240 8473c72-56 160-123 128-219-104 19-12-21-77 62-77 99-94 35-96 35-41-98 1-45-7-144l179-2c118 120 54 297-127 268z"/><path class="fil19" d="M18063 10457l-60-22-10 62-39 0c-47-41-59-5-85 48l47 40 42 11-99 40c-5 3-14 9-18 16-22-16-34-8-50-26l3-158c69-58 125-95 198-118l71 107z"/><path class="fil24" d="M16195 12095l-71-12c48-87 20-53 115-83 106-34-1 2 102-59-36-25-48-102 45-110 43 78 45 40 70 125-2 3-6 7-7 8-1 1-6 7-8 8l-87 72c-61 46-78 38-159 51z"/><path class="fil20" d="M16901 10049c-53 47-166 151-272 119l101-113c73-14 87-29 57-96 12-44 0-69 61-78l101 94-48 74z"/><path class="fil21" d="M17708 10802c37 93 57 49 68 163-95 24-150 56-214-38 18-127 14-117 73-187 30 18 48 36 73 62z"/><path class="fil28" d="M17143 9475l-32-5 5 70c-122-46-91-79-181-127 49-99 34-114 130-180 31 87 74 137 78 242z"/><path class="fil8" d="M16787 9959c30 67 16 82-57 96-21 6-40 14-62 10-51-8-21 4-51-22l-12-13-16-155 47-42c66 33 102 78 151 126z"/><path class="fil26" d="M15721 11174c-32-49-7 8-25-66 96-103 69-58 112-203l60-14 66 68c-29 82-36 68-97 123-53 47-54 67-116 92z"/><path class="fil27" d="M18758 10415l-57-16c74-59 126-90 173-189 11-155-42-174-104-255 87 40 161 98 159 232-2 166-123 174-171 228z"/><path class="fil14" d="M14265 7376c-1 149 25 186 10 369-85-30 1-33-93 7 80-214 33-231-58-379 122 28 32 33 141 3z"/><path class="fil0" d="M12323 12389c-128 5-242-64-227-180 130-16 215 66 227 180z"/><path class="fil31" d="M19259 9095l-63-19c-43-74-150-261-213-308-33-67-48-82-75-152 94 31 69 34 116 113l173 247c3 4 7 10 10 14l52 105z"/><path class="fil28" d="M16476 10331c-35 54-23 17-65 87l61 105-77 53 29-81c-88-104-79 24-126-163l141-81c16 33 22 49 37 80z"/><path class="fil19" d="M17551 8958l-13-7c-72 4-84 1-131 38-39 30-6 34-87 73-43-154 131-209 315-201l1 28-60 2-25 67z"/><path class="fil0 str0" d="M12970 11361l2 51c92-21 123 6 152 98-104 56-4 55-137 85 46-92 72-50 50-141-78 1-33 37-164 66l35-104 6-91c36 23 26 9 56 36z"/><path class="fil20" d="M16909 11633l-18 1c-100-12-35 0-53-29l43-56c65-16 88-13 115-98 5-5 10-13 14-16 3-3 10-11 14-14l66-36c-4 158-58 200-181 248z"/><path class="fil23" d="M16838 11454c86 32 18 35 93 14 14-72-2-77-75-101l-18 87zm158-3c-27 85-50 82-115 98l-64-34c48-20 47 77 21-61l-37-62 123-130c23 119 47 64 72 189z"/><path class="fil19" d="M16617 10043c30 26 0 14 51 22 22 4 41-4 62-10l-101 113c-60-22-166-61-150-136l52-71c56 68 19 46 86 82z"/><path class="fil0" d="M11958 12873c-63-112-17-39 1-51l104 42c31-107-17-87-213-243 19-39-43-13 42-40 68 77 167 141 237 205-19 70-41 79-97 124l-74-37z"/><path class="fil26" d="M16848 9881c-61 9-49 34-61 78-49-48-85-93-151-126 28-98-14-15 42-85 77-1 34-13 85 33l85 100z"/><path class="fil32" d="M19518 9488l-73-21c-20-114-33-93-93-173-39-51-71-98-95-172 82 30 42 4 91 85 71 116 136 120 170 281z"/><path class="fil24" d="M15886 12385l-21 1c-29-39-30 56-24-49 114-78 75-134 219-171l20 81c-76 30-137 83-194 138z"/><path class="fil24" d="M16817 11515l64 34-43 56c18 29-47 17 53 29-31 19 47 28-53 10-58-11 4 5-61-29-82-44-76-3-90-90l29-62 37 2 64 50z"/><path class="fil0 str0" d="M14247 9529l-25 16-23-90c-113 19-172 52-163-72l67-15 1 65c131-52 45-99 168-93-31 88-45 75-25 189z"/><path class="fil24" d="M17090 11385l-66 36c-4 3-11 11-14 14-4 3-9 11-14 16-25-125-49-70-72-189l50-34c62 39 91 69 116 157z"/><path class="fil20" d="M17486 11244l-37 27c-27-43-67-91-84-138 1-63-17-72 65-68 39 54 63 87 91 138-4 4-18 32-35 41z"/><path class="fil28" d="M15933 10749c75-70 94-139 164-210 23 196 78 201-164 210z"/><path class="fil33" d="M16801 9562c15-26 7-21 34-56 20-24 23-22 42-40l58 77c30 38 25 20 34 73l-87 40-68-77c-3-4-8-11-13-17z"/><path class="fil26" d="M15691 11224c-65 96-87 82-155 168-111 17-13 6-48-17 33-46 44-72 76-116 56-79 23-49 92-87l35 52z"/><path class="fil32" d="M17620 6791c-69-35-60-39-105-100-32-45-48-74-81-112l-7-55c81 8 61 28 99 86 40 59 48 63 86 99l8 82z"/><path class="fil0" d="M8390 12644c-118 109-220 21-108-107 66 32 86 34 108 107z"/><path class="fil0" d="M10310 9992c-75 157-224 74-130-51 5-1 13-7 15-2 2 5 12-1 15 0 2 1 11 2 15 3 3 1 11 4 15 6 21 9 51 32 70 44z"/><path class="fil34" d="M15886 12385c57-55 118-108 194-138l-20-81 34-15c39 69 17 12 36 92-71 67-144 107-200 158-93 14-9 6-44-16z"/><path class="fil34" d="M17562 10927l-21 3c-34-120-47-153 39-228 96-3 31-10 55 38-59 70-55 60-73 187z"/><path class="fil20" d="M17281 11296l21 81c-4 5-32 32-39 39l-51-22c-35-68-35-39-42-116 42-29 4-16 63-10 35 27 26 16 48 28z"/><path class="fil0" d="M14075 9845c9 9 62 31 28 94-19 35-47 32-81 9-77-50-43-125 53-103z"/><path class="fil0" d="M12719 11369c4-2 10-56 83-13 38 23 45 59 17 89-52 55-134 9-100-76z"/><path class="fil30" d="M18206 10352l-38-24-2-113 62-57 73 17 0 24c-37 51-35 42-108 71l13 82z"/><path class="fil23" d="M17157 11131c-12-74-16-160 89-144l27 72-116 72z"/><path class="fil0" d="M15953 8813c-52 37-36 36-113 23-30-72-12-68 24-114 77 31 78 20 89 91z"/><path class="fil0" d="M14185 11203c-43 64 0 47-94 59-54-62-46-60 0-127 65 23 65 17 94 68z"/><path class="fil34" d="M18470 10466l-64 33c6 117 62 154-54 154l17-47c21-144-55-83 78-180l23 40z"/><path class="fil35" d="M8679 12337c-66-56-70-60-99-147l160 79-61 68z"/><path class="fil34" d="M17281 11296c-22-12-13-1-48-28l-16-64c71-41 55-70 148-71-26 30-12 17-41 41-1 1-41 29-54 39-1 66-6 9 11 83z"/><path class="fil11" d="M16838 11454l18-87c73 24 89 29 75 101-75 21-7 18-93-14z"/><path class="fil0" d="M14902 8674c-2 2-27 132-146-38 101 2 89-2 146 38z"/><path class="fil0" d="M16212 8547c-60-57-54-33-86-115 75 13 65 9 127 55l-41 60z"/><path class="fil0" d="M13476 10797c-58 37-15 31-80 11l-12-66 89-23 3 78z"/><polygon class="fil36" points="17958 10596 17916 10585 17954 10497 17993 10497 18019 10589 "/><path class="fil0" d="M13335 10702l-103-8 22-83c81 25 64 13 81 91z"/><path class="fil20" d="M16507 10331l47-67c33 23 22 8 51 49l-60 64-38-46z"/><path class="fil34" d="M18278 10268c37 28 46 21 62 73 30 101-17 76-24 82l-38-155z"/><path class="fil34" d="M17916 10585l-47-40c26-53 38-89 85-48l-38 88z"/><path class="fil34" d="M17272 11439l-9-23c7-7 35-34 39-39l-21-81c22 17 13 3 39 35 0 0 19 33 22 37l-70 71z"/></svg>