<svg xmlns="http://www.w3.org/2000/svg" viewBox="0 0 401 401"><style>.a{fill:#F9F9F9;}.b{fill:#424242;}</style><polygon points="392 170 392 345 357 345 357 389 294 345 136 345 136 211 309 211 309 170 " class="a"/><polygon points="367 195 367 320 161 320 161 211 309 211 309 195 " fill="#E64A19"/><polygon points="9 6 9 211 50 211 50 263 124 211 309 211 309 6 " class="a"/><path d="M392 164h-77V6c0-4-2-6-6-6H9C5 0 3 3 3 6v205c0 4 2 6 6 6h35v46c0 2 1 4 3 6 2 2 4 1 6-1l74-51h4v128c0 4 2 6 6 6h156l71 50v-50h29c4 0 6-2 6-6V170C398 166 396 164 392 164zM124 205c-1 0-2 1-4 1l-65 46v-40c0-4-2-6-6-6H15V12h288v192H124zM386 339h-29c-4 0-6 2-6 6v33l-54-38c-1-1-2-1-4-1H142V217h167c4 0 6-2 6-6v-35h70V339z" class="b"/><rect x="33" y="31" width="251" height="155" fill="#E0E0E0"/><rect x="67" y="71" width="182" height="12" class="b"/><rect x="67" y="103" width="182" height="12" class="b"/><rect x="67" y="134" width="182" height="12" class="b"/><rect x="228" y="252" width="12" height="12" class="a"/><rect x="258" y="252" width="12" height="12" class="a"/><rect x="288" y="252" width="12" height="12" class="a"/></svg>