<svg xmlns="http://www.w3.org/2000/svg" viewBox="0 0 395.6 395.6"><style>.a{fill:#F9F9F9;}.b{fill:#424242;}</style><polygon points="389.4 6.2 54.4 6.2 54.4 179.3 6.2 179.3 6.2 389.4 341.3 389.4 341.3 216.4 389.4 216.4 " class="a"/><path d="M364.7 61.8v98.9c-12.9 0-23.7 7.6-28.4 18.6H107.5c-4.7-11-15.5-18.6-28.4-18.6V61.8c17.3 0 30.9-13.6 30.9-30.9h223.8C333.8 48.2 347.4 61.8 364.7 61.8z" fill="#4FBF9F"/><circle cx="221.9" cy="111.3" r="37.1" class="a"/><circle cx="323.3" cy="111.3" r="14.2" class="a"/><circle cx="120.6" cy="111.3" r="14.2" class="a"/><path d="M48.2 0v173.1H0v222.5h347.4V222.6h48.2V0H48.2zM335.1 383.3H12.3V185.5h322.7V383.3zM383.3 210.2H347.4v-37.1H60.6V12.3h322.7V210.2z" class="b"/><rect x="12.3" y="323.3" width="322.7" height="34" fill="#2EA2DB"/><rect x="118.7" y="226.3" width="13" height="12.3" class="b"/><rect x="96.5" y="226.3" width="13" height="12.3" class="b"/><rect x="74.2" y="226.3" width="13" height="12.3" class="b"/><rect x="51.9" y="226.3" width="13" height="12.3" class="b"/><rect x="241.1" y="210.8" width="69.2" height="51.9" class="a"/><path d="M317.2 268.9h-82.2v-64.3h81.6v64.3H317.2zM247.3 256.5h56.9v-39.6h-56.9V256.5z" class="b"/></svg>