<svg xmlns="http://www.w3.org/2000/svg" viewBox="0 0 512 512" width="512" height="512"><style>.a{fill:#f9f9f9;}</style><path d="M221 261.4c0 19.3 15.7 35 35 35s35-15.7 35-35v-16.2c0-4.5-3.6-8.1-8.1-8.1 -4.5 0-8.1 3.6-8.1 8.1v16.2c0 10.4-8.5 18.9-18.9 18.9 -10.4 0-18.9-8.5-18.9-18.9v-91.6c0-4.5-3.6-8.1-8.1-8.1 -4.5 0-8.1 3.6-8.1 8.1V261.4z" class="a"/><path d="M282.9 221c4.5 0 8.1-3.6 8.1-8.1v-70.1c0-19.3-15.7-35-35-35s-35 15.7-35 35c0 4.5 3.6 8.1 8.1 8.1 4.5 0 8.1-3.6 8.1-8.1 0-10.4 8.5-18.9 18.9-18.9 10.4 0 18.9 8.5 18.9 18.9v70.1C274.9 217.3 278.5 221 282.9 221z" class="a"/><path d="M353.9 422.7l-55.6 55.6c-11.3 11.3-26.3 17.5-42.4 17.5 -16 0-31.1-6.2-42.4-17.5L33.7 298.4c-11.3-11.3-17.5-26.3-17.5-42.4 0-16 6.2-31.1 17.5-42.4L179.6 67.7c3.2-3.2 3.2-8.3 0-11.4 -3.2-3.2-8.3-3.2-11.4 0L22.3 202.2C7.9 216.5 0 235.7 0 256c0 20.3 7.9 39.5 22.3 53.8l179.9 179.9c14.4 14.4 33.5 22.3 53.8 22.3 20.3 0 39.5-7.9 53.8-22.3l55.6-55.6c3.2-3.2 3.2-8.3 0-11.4C362.2 419.6 357.1 419.6 353.9 422.7z" class="a"/><path d="M256 393.4c19.3 0 35-15.7 35-35S275.3 323.4 256 323.4s-35 15.7-35 35S236.7 393.4 256 393.4zM256 339.5c10.4 0 18.9 8.5 18.9 18.9s-8.5 18.9-18.9 18.9c-10.4 0-18.9-8.5-18.9-18.9S245.6 339.5 256 339.5z" class="a"/><path d="M489.7 202.2L309.8 22.3c-29.7-29.7-77.9-29.7-107.6 0l-12.5 12.5c-3.2 3.2-3.2 8.3 0 11.4 3.2 3.2 8.3 3.2 11.4 0l12.5-12.5c23.4-23.4 61.4-23.4 84.7 0l179.9 179.9c11.3 11.3 17.5 26.3 17.5 42.4 0 16-6.2 31.1-17.5 42.4l-102.8 102.8c-3.2 3.2-3.2 8.3 0 11.4 1.6 1.6 3.6 2.4 5.7 2.4s4.1-0.8 5.7-2.4L489.7 309.8C504.1 295.5 512 276.3 512 256 512 235.7 504.1 216.5 489.7 202.2z" class="a"/><path d="M283.3 452.2l174.4-174.4c5.8-5.8 9-13.5 9-21.7 0-8.2-3.2-15.9-9-21.7L277.7 54.3c-5.8-5.8-13.5-9-21.7-9 -8.2 0-15.9 3.2-21.7 9L54.3 234.3c-5.8 5.8-9 13.5-9 21.7 0 8.2 3.2 15.9 9 21.7l179.9 179.9c5.8 5.8 13.5 9 21.7 9H256c4.5 0 8.1-3.6 8.1-8.1 0-4.5-3.6-8.1-8.1-8.1 -3.9 0-7.6-1.5-10.3-4.3L65.7 266.3c-2.7-2.7-4.3-6.4-4.3-10.3 0-3.9 1.5-7.6 4.3-10.3L245.7 65.7c2.7-2.7 6.4-4.3 10.3-4.3 3.9 0 7.6 1.5 10.3 4.3l179.9 179.9c2.7 2.7 4.3 6.4 4.3 10.3 0 3.9-1.5 7.6-4.3 10.3L271.8 440.7c-3.2 3.2-3.2 8.3 0 11.4C275 455.3 280.1 455.3 283.3 452.2z" class="a"/></svg>