<svg xmlns="http://www.w3.org/2000/svg" width="210" height="297" viewBox="0 0 21000 29700" style="image-rendering:optimizeQuality;shape-rendering:geometricPrecision;text-rendering:geometricPrecision"><defs><style type="text/css">  
    .str0 {stroke:#343434;stroke-width:50}
    .fil20 {fill:none}
    .fil7 {fill:#323232}
    .fil10 {fill:#343434}
    .fil4 {fill:#344050}
    .fil18 {fill:#4C4B4C}
    .fil2 {fill:#595959}
    .fil17 {fill:#626262}
    .fil19 {fill:#696E74}
    .fil15 {fill:#6A6A6A}
    .fil13 {fill:#807D77}
    .fil11 {fill:#9C9C9C}
    .fil14 {fill:#A4A4A4}
    .fil12 {fill:#ACACAC}
    .fil9 {fill:#B08552}
    .fil0 {fill:#B18653}
    .fil8 {fill:#B28754}
    .fil16 {fill:#BBBBBB}
    .fil1 {fill:#C8AA86}
    .fil6 {fill:#E9E8E8}
    .fil3 {fill:#F5E5D6}
    .fil21 {fill:#F5ECE2}
    .fil5 {fill:#FEFEFC}
   </style></defs><rect class="fil0" x="1954" y="2223" width="14352" height="9489"/><rect class="fil1" transform="matrix(-4.76457e-14 -1.19009 -1.799 3.15189e-14 16305.4 7559.52)" width="994" height="7978"/><rect class="fil1" x="8538" y="2218" width="1183" height="9494"/><path class="fil2" d="M11653 7680c80 506-587 1625-805 2032-172 323-335 631-484 943-939 1965-1142 1058 115 1058l300 0 591-1142c39-74 66-128 98-197 91-194-2-129 161-172 131 194-193 606-294 796-136 259-278 582-413 804-80 164-159 313-76 519 63 159 394-569 613-608l473 0c117-224 167-339 278-555 98-191 204-504 384-589 108 179-124 463-215 633-96 177-205 458-317 593-61 180-173 348-82 568l559-650 546 0c59-160 101-185 174-346 74-163 106-343 301-369 57 169-238 624-330 807-92 150-182 304-147 517l547-609 535 0c332-814 742-1406 1137-2122 167-304 188-474 315-805l214-58-1214-2106c-64-113-138-244-196-346-39-70-76-125-108-185l-105-216c-61 175 37 141-480 168l-1613 79c-57-13-284-9-360 21-21 8-450 33-503 33-112 0-462-19-532 2-21 7-298 24-368 38-200 41-438 0-629 47-64 15-359 5-401 41-74 65-145 43-130 224 5 60 133 465 186 506 34 27 45 61 103 101 123 83 37 53 199 119 107 43 410 117 523 123 134 8 270 65 421 70 88 3 906-39 931-47 59 102 75 165 98 280z"/><path class="fil3" d="M11426 7247c38 118 84 167 120 348 80 506-587 1625-804 2032-173 323-336 631-485 943-146 307-398 674-497 967-31 53-89 143-115 181-56 197-143 306-58 542 57 160 219 269 458 209 340-85 410-494 584-759l635-1224c39-74 65-128 98-197 90-194-2-129 160-172 132 194-193 606-293 796-137 259-279 582-414 804-80 164-158 313-75 519 63 159 222 274 440 234 317-57 444-476 604-763 117-224 208-418 319-634 99-191 204-504 385-589 107 179-125 463-216 633-95 177-205 458-316 593-62 180-174 348-82 568 68 165 245 286 473 221 322-92 378-499 594-781 59-159 138-275 211-436 74-163 107-343 302-369 56 169-239 624-331 807-92 150-181 304-146 517 31 191 175 336 414 290 365-70 442-594 631-813 332-813 779-1492 1173-2208 168-304 189-474 316-805l214-58-1214-2106c-64-113-139-244-196-346-40-70-76-125-109-185l-104-216c-62 175 37 141-480 168l-1614 79c-57-13-284-9-359 21-21 8-451 33-504 33-111 0-462-19-531 2-22 7-298 24-369 38-199 41-437 0-629 47-63 15-358 5-400 41-74 65-146 43-130 224 5 60 172 353 225 394 34 27 45 61 103 100 123 83 38 54 199 119 107 43 410 118 523 124 134 7 270 65 421 69 88 3 833 11 858 3l11-5z"/><path class="fil4" d="M19625 7017c-485 202-2480 1476-3107 1759l-94-115c-3-4-11-15-16-22l-954-1701c-160-276-321-559-471-830-157-282-362-587-485-865l-112-217c196-135 584-296 754-449 208-86 356-210 554-291 122-92 214-121 332-202l70-54 208-122c245-102 613-326 842-471l1654-949c264-155 566-345 825-460l0 4989z"/><path class="fil1" d="M15968 3656l-3861-2-7 205c204 79 3392 43 3862 26l6-229zm-3-346c-99-6-3697-72-3863 45l63 160c148 44 184 25 365 23l1469 0c651-2 1325 18 1973-3l-7-225zm-12-358c-572 17-3598-60-3851 25l2 210 3867-7-18-228zm-3853-351l9 208c246 85 3295 19 3853 24l-2-233-3860 1zm3996 1429l-70 54c-212-169-817-79-1145-79-413 0-829-5-1241 2l-20 227c450 33 1285-2 1809 4l265 48c-198 81-346 205-554 291l-3140 0 1-2177 4101-21-6 1651z"/><path class="fil5" d="M16408 8639l-113 52-400 233-170-281-1214-2106c-64-113-139-244-196-346-40-70-76-125-109-185l-104-216-149-252c90-85 411-270 545-295 123 278 328 583 485 865 150 271 311 554 471 830l954 1701z"/><path class="fil6" d="M2734 3733l-3-1046-217 2c-24 212-10 441-11 666-1 269-53 390 119 551l112-173zm1082-1035l-61 3-147 1-384-7-287 8-132 7-78 982c24 148-5 60 58 119l-3 60c136 22-72 61 61-18l138 36c81 77-25 14 53 33 65-64 24-4 9-135l162 17-16 121c116-104 43-89 189-115 22 64 17 65 83 114 44-113 13-100 155-143l38 117c8-196-9-19 101-94l72 7c5 102-25 41 36 96 49-47 29-74 144-102 4 7 8 12 10 23 2 15 19 34 23 38 34 38-23 2 51 38 71-217 86 31 90-549 2-205 23-456-14-654l-351-3zm937 1123c-82-125-34-961-40-1122l-251-7-71 29-2 1054 70 39c-2 121-34 33 36 92 179-177 193-23 232 1l26-86zm0 0l102-35 6-853c0-190 6-170-56-230l-52 1118zm-494-1124c-86 112-44 651-48 827 0 14-2 165-2 168 25 120 3 55 72 119 59-135 34-634 32-835-5-337-11-231-54-279zm927 1367l-2852 3-7-1526 2861-10-2 1533z"/><path class="fil7" d="M3918 10368c-5 4-21-3-25 10-33 107 20-27-53 28-100 75-80-42-78 464 137 69 74-21 190 84l0 198-1411 11c-8-398-31-172 188-293l1-420-163-84c46-85 91-166 137-253 71-132 86-183 200-276 47 100 253 477 231 543-30 92 23-10-52 28l-80 492 479-3 11-447-162-84c47-82 91-164 136-246 24-45 44-85 74-136l88-136 289 520z"/><path class="fil8" d="M15962 3885c-470 17-3658 53-3862-26l7-205 3861 2-6 229z"/><path class="fil8" d="M15962 2833c-558-5-3607 61-3853-24l-9-208 3860-1 2 233z"/><path class="fil9" d="M12102 3355c166-117 3764-51 3863-45l7 225c-648 21-1322 1-1973 3l-1469 0c-181 2-217 21-365-23l-63-160z"/><path class="fil8" d="M15971 3180l-3867 7-2-210c253-85 3279-8 3851-25l18 228z"/><path class="fil8" d="M16026 4084c-118 81-210 110-332 202l-265-48c-524-6-1359 29-1809-4l20-227c412-7 828-2 1241-2 328 0 933-90 1145 79z"/><path class="fil7" d="M5159 10583l-16 464 278 68c-96 71-310 67-450 52-114-13 29 11-74-12-10-2-22-7-32-9l-57-24c246-100 325-5 270-415-28-206-186-250-354-367 3-193 37-379 123-525l546-4c241 582 67 533-234 772z"/><path class="fil7" d="M7790 9681l-1600-8-19 1598c197 72 1355 48 1614 20l5-1610zm71 1698l-1777 1 2-1788 1784 19-9 1768z"/><path class="fil7" d="M5917 9687l-1614-14-2 1618c270 30 1408 53 1614-19l2-1585zm79 1695l-1774-19 3-1768 1781 0-10 1787z"/><path class="fil10" d="M4059 9679l-1627-7 0 1630 1621 0 6-1623zm70 1702l-1776-5 5-1784 1779 12-8 1777z"/><path class="fil10" d="M7525 10357c-181-29-354-2-546-6l-18-16c-233 26-330-6-541 21 160-748 1046-655 1105 1z"/><path class="fil11" d="M3827 3811l-11-1113 351 3c37 198 16 449 14 654-4 580-19 332-90 549-74-36-17 0-51-38-4-4-21-23-23-38-2-11-6-16-10-23-115 28-95 55-144 102-61-55-31 6-36-96z"/><path class="fil12" d="M3616 3781c-142 43-111 30-155 143-66-49-61-50-83-114-146 26-73 11-189 115l16-121c86-123 75-896 19-1109l384 7c-63 204-81 917 8 1079z"/><path class="fil13" d="M3205 3804l-162-17c-41-3-31-4-115-18l9-1066 287-8c56 213 67 986-19 1109z"/><path class="fil14" d="M4753 3821l-26 86c-39-24-53-178-232-1-70-59-38 29-36-92l3-1122 251 7c6 161-42 997 40 1122z"/><path class="fil15" d="M2622 3906c-172-161-120-282-119-551 1-225-13-454 11-666l217-2 3 1046-112 173z"/><path class="fil13" d="M3755 3804c-110 75-93-102-101 94l-38-117c-89-162-71-875-8-1079l147-1c-74 225-47 862 0 1103z"/><path class="fil16" d="M3043 3787c15 131 56 71-9 135-78-19 28 44-53-33l-138-36c-133 79 75 40-61 18l3-60c83-149 57-887 20-1101l132-7-9 1066c84 14 74 15 115 18z"/><path class="fil17" d="M4259 2697c43 48 49-58 54 279 2 201 27 700-32 835-69-64-47 1-72-119 0-3 2-154 2-168 4-176-38-715 48-827z"/><path class="fil18" d="M3827 3811l-72-7c-47-241-74-878 0-1103l61-3 11 1113z"/><path class="fil19" d="M4753 3821l52-1118c62 60 56 40 56 230l-6 853-102 35z"/><polygon class="fil10" points="4459 3814 4389 3775 4391 2721 4462 2692 "/><path class="fil15" d="M2785 3811c-63-59-34 29-58-119l78-982c37 214 63 952-20 1101z"/><path class="fil20 str0" d="M6979 10351c0 453 0 781 0 781 20 34 28 50 73 55 139 17 87-121 104-164"/><path class="fil21" d="M9495 6188c-302-13-449 87-349 365 100 301 111 169 508 208-264-310-147-297-159-573z"/></svg>