<svg xmlns="http://www.w3.org/2000/svg" viewBox="0 0 512 512" width="512" height="512"><style>.a{fill:#f9f9f9;}</style><path d="M256 463.5c-4.5 0-8.1 3.6-8.1 8.1v32.3c0 4.5 3.6 8.1 8.1 8.1 4.5 0 8.1-3.6 8.1-8.1v-32.3C264.1 467.1 260.5 463.5 256 463.5z" class="a"/><path d="M256 388c-4.5 0-8.1 3.6-8.1 8.1v43.1c0 4.5 3.6 8.1 8.1 8.1 4.5 0 8.1-3.6 8.1-8.1v-43.1C264.1 391.7 260.5 388 256 388z" class="a"/><path d="M223.7 495.8H105.1c-4.5 0-8.1 3.6-8.1 8.1 0 4.5 3.6 8.1 8.1 8.1h118.6c4.5 0 8.1-3.6 8.1-8.1C231.7 499.5 228.1 495.8 223.7 495.8z" class="a"/><path d="M406.9 495.8H288.3c-4.5 0-8.1 3.6-8.1 8.1 0 4.5 3.6 8.1 8.1 8.1h118.6c4.5 0 8.1-3.6 8.1-8.1C415 499.5 411.4 495.8 406.9 495.8z" class="a"/><path d="M339.5 245.2v-25.4c12.4-3.5 21.6-15 21.6-28.5v-64.7c0-13.5-9.1-25-21.6-28.5V59.3h24.3c10.4 0 18.9-8.5 18.9-18.9V18.9C382.7 8.5 374.2 0 363.8 0h-43.1c-4.5 0-8.1 3.6-8.1 8.1s3.6 8.1 8.1 8.1h43.1c1.5 0 2.7 1.2 2.7 2.7v21.6c0 1.5-1.2 2.7-2.7 2.7H212.9c-4.5 0-8.1 3.6-8.1 8.1s3.6 8.1 8.1 8.1h110.5v37.7h-78.1c-4.5 0-8.1 3.6-8.1 8.1 0 4.5 3.6 8.1 8.1 8.1h86.2c7.4 0 13.5 6 13.5 13.5v64.7c0 7.4-6 13.5-13.5 13.5h-86.2c-4.5 0-8.1 3.6-8.1 8.1s3.6 8.1 8.1 8.1h78.1v24.3c0 1.5-1.2 2.7-2.7 2.7H191.3c-1.5 0-2.7-1.2-2.7-2.7v-24.3h24.3c4.5 0 8.1-3.6 8.1-8.1s-3.6-8.1-8.1-8.1h-32.3c-7.4 0-13.5-6-13.5-13.5v-64.7c0-7.4 6-13.5 13.5-13.5h32.3c4.5 0 8.1-3.6 8.1-8.1 0-4.5-3.6-8.1-8.1-8.1h-24.3V51.2c0-4.5-3.6-8.1-8.1-8.1h-32.3c-1.5 0-2.7-1.2-2.7-2.7V18.9c0-1.5 1.2-2.7 2.7-2.7h140.1c4.5 0 8.1-3.6 8.1-8.1S292.8 0 288.3 0H148.2c-10.4 0-18.9 8.5-18.9 18.9v21.6c0 10.4 8.5 18.9 18.9 18.9h24.3V98.1c-12.4 3.5-21.6 15-21.6 28.5v64.7c0 13.5 9.1 25 21.6 28.5v25.4c0 8.5 5.7 15.8 13.5 18.1l47.2 94.5c4.4 8.7 13.1 14.1 22.8 14.1 9.7 0 18.5-5.4 22.8-14.1l47.2-94.5C333.8 261 339.5 253.8 339.5 245.2zM264.4 350.5c-1.6 3.2-4.8 5.2-8.4 5.2 -3.6 0-6.8-2-8.4-5.2l-43.2-86.4h103.2L264.4 350.5z" class="a"/></svg>