<?xml version="1.0" encoding="iso-8859-1"?>
<!-- Generator: Adobe Illustrator 19.0.0, SVG Export Plug-In . SVG Version: 6.00 Build 0)  -->
<svg version="1.1" id="Layer_1" xmlns="http://www.w3.org/2000/svg" xmlns:xlink="http://www.w3.org/1999/xlink" x="0px" y="0px"
	 viewBox="0 0 512.001 512.001" style="enable-background:new 0 0 512.001 512.001;" xml:space="preserve">
<path style="fill:#FF6F52;" d="M461.086,168.809c-45.033-225.078-365.14-225.078-410.172,0c-3.794,18.96-5.783,38.571-5.783,58.647
	c0,134.136,88.832,247.51,210.87,284.544C378.039,474.966,466.87,361.592,466.87,227.456
	C466.87,207.38,464.879,187.769,461.086,168.809z"/>
<circle style="fill:#CFDCE5;" cx="256.001" cy="202.327" r="110.921"/>
<path style="fill:#BAC6CC;" d="M179.946,202.322c0-55.328,40.511-101.19,93.488-109.554c-5.681-0.897-11.502-1.368-17.433-1.368
	c-61.261,0-110.922,49.661-110.922,110.922s49.661,110.922,110.922,110.922c5.931,0,11.754-0.471,17.433-1.368
	C220.458,303.513,179.946,257.65,179.946,202.322z"/>
<g>
</g>
<g>
</g>
<g>
</g>
<g>
</g>
<g>
</g>
<g>
</g>
<g>
</g>
<g>
</g>
<g>
</g>
<g>
</g>
<g>
</g>
<g>
</g>
<g>
</g>
<g>
</g>
<g>
</g>
</svg>
