<?xml version="1.0" encoding="iso-8859-1"?>
<!-- Generator: Adobe Illustrator 19.0.0, SVG Export Plug-In . SVG Version: 6.00 Build 0)  -->
<svg version="1.1" id="Layer_1" xmlns="http://www.w3.org/2000/svg" xmlns:xlink="http://www.w3.org/1999/xlink" x="0px" y="0px"
	 viewBox="0 0 511.999 511.999" style="enable-background:new 0 0 511.999 511.999;" xml:space="preserve">
<path style="fill:#8DE0A8;" d="M311.675,311.668L0.007,0v511.999h511.985L311.675,311.668z M77.533,187.164l123.402,123.402
	l123.906,123.906H77.533V187.164z"/>
<polygon style="fill:#78C18D;" points="255.652,255.646 200.935,310.567 77.533,187.164 77.533,434.432 67.863,444.143 
	0.007,361.408 0.007,0 "/>
<path style="fill:#4EBFED;" d="M103.477,346.498l-35.612,97.641l97.641-35.612l299.383-299.383
	c10.628-10.628,10.628-27.859,0-38.487l-23.542-23.543c-10.628-10.628-27.859-10.628-38.487,0L103.477,346.498z"/>
<path style="fill:#FF6F52;" d="M433.32,140.707l31.564-31.564c10.628-10.628,10.628-27.862,0-38.488l-23.543-23.543
	c-10.628-10.628-27.852-10.617-38.479,0.01l-31.564,31.564L433.32,140.707z"/>
<path style="fill:#3BA4BC;" d="M402.86,47.114c10.628-10.628,27.859-10.628,38.487,0l5.869,5.869
	c-5.329-5.329-18.265-1.034-28.893,9.594L118.939,361.96l-51.075,82.179l35.612-97.641L402.86,47.114z"/>
<polygon style="fill:#FCD577;" points="103.478,346.495 81.472,406.83 67.857,444.137 105.178,430.523 165.499,408.53 
	135.211,378.233 "/>
<path style="fill:#E25749;" d="M447.217,52.987l-5.876-5.876c-10.628-10.628-27.852-10.617-38.479,0.01l-31.564,31.564
	l15.455,15.455l31.564-31.564C428.944,51.949,441.889,47.66,447.217,52.987z"/>
<polygon style="fill:#EAC36E;" points="118.937,361.956 103.481,346.501 67.858,444.137 "/>
<rect x="358.449" y="99.505" transform="matrix(0.7071 0.7071 -0.7071 0.7071 195.4078 -252.3457)" style="fill:#FCD577;" width="87.726" height="20.401"/>
<polygon style="fill:#EAC36E;" points="364.08,85.895 379.403,102.302 393.83,87.877 378.507,71.47 "/>
<g>
	<rect x="46.543" y="477.738" style="fill:#78C18D;" width="17.681" height="34.261"/>
	<rect x="106.619" y="477.738" style="fill:#78C18D;" width="17.681" height="34.261"/>
	<rect x="166.695" y="477.738" style="fill:#78C18D;" width="17.681" height="34.261"/>
	<rect x="226.757" y="477.738" style="fill:#78C18D;" width="17.681" height="34.261"/>
	<rect x="286.833" y="477.738" style="fill:#78C18D;" width="17.681" height="34.261"/>
	<rect x="346.909" y="477.738" style="fill:#78C18D;" width="17.681" height="34.261"/>
	<rect x="406.971" y="477.738" style="fill:#78C18D;" width="17.681" height="34.261"/>
</g>
<path style="fill:#415E72;" d="M81.472,406.83l-13.615,37.308l37.321-13.615C101.166,419.547,92.448,410.842,81.472,406.83z"/>
<g>
</g>
<g>
</g>
<g>
</g>
<g>
</g>
<g>
</g>
<g>
</g>
<g>
</g>
<g>
</g>
<g>
</g>
<g>
</g>
<g>
</g>
<g>
</g>
<g>
</g>
<g>
</g>
<g>
</g>
</svg>
