<svg xmlns="http://www.w3.org/2000/svg" width="210" height="297" viewBox="0 0 21000 29700" style="image-rendering:optimizeQuality;shape-rendering:geometricPrecision;text-rendering:geometricPrecision"><defs><style type="text/css">  
    .str1 {stroke:#424242;stroke-width:7.62}
    .str0 {stroke:#E0E0E0;stroke-width:7.62}
    .str2 {stroke:#ECDBC5;stroke-width:7.62}
    .str3 {stroke:#FEF4E5;stroke-width:7.62}
    .fil0 {fill:#FEFEFE}
    .fil19 {fill:#2B2A28}
    .fil58 {fill:#412017}
    .fil6 {fill:#515151}
    .fil14 {fill:#545455}
    .fil45 {fill:#868684}
    .fil16 {fill:#B4B4B4}
    .fil18 {fill:#B6B7B8}
    .fil5 {fill:#BCAC9C}
    .fil9 {fill:#CBCCCC}
    .fil13 {fill:#CDCDCD}
    .fil52 {fill:#CE5636}
    .fil56 {fill:#D38D72}
    .fil57 {fill:#D66836}
    .fil15 {fill:#D6B692}
    .fil53 {fill:#D94B2A}
    .fil10 {fill:#E0E0E0}
    .fil3 {fill:#E1E1E1}
    .fil12 {fill:#E2C5A5}
    .fil23 {fill:#E3462B}
    .fil17 {fill:#E4E4E4}
    .fil22 {fill:#E54721}
    .fil21 {fill:#E64622}
    .fil25 {fill:#E65624}
    .fil55 {fill:#E78B19}
    .fil54 {fill:#E78D28}
    .fil51 {fill:#E86724}
    .fil41 {fill:#E94D21}
    .fil46 {fill:#EB451D}
    .fil34 {fill:#EB5A18}
    .fil50 {fill:#EB7416}
    .fil40 {fill:#EC521B}
    .fil7 {fill:#ECDBC5}
    .fil60 {fill:#F1B297}
    .fil37 {fill:#F36314}
    .fil59 {fill:#F3CB73}
    .fil44 {fill:#F46C13}
    .fil2 {fill:#F5E5D6}
    .fil28 {fill:#F66910}
    .fil26 {fill:#F76A0D}
    .fil8 {fill:#F8F4F1}
    .fil49 {fill:#F96A0F}
    .fil27 {fill:#F96E0D}
    .fil29 {fill:#F9870A}
    .fil43 {fill:#FA7209}
    .fil32 {fill:#FB740A}
    .fil47 {fill:#FB970A}
    .fil20 {fill:#FCFBF4}
    .fil31 {fill:#FD7707}
    .fil30 {fill:#FD7A05}
    .fil33 {fill:#FD8B04}
    .fil42 {fill:#FDA303}
    .fil35 {fill:#FDBA02}
    .fil61 {fill:#FDD297}
    .fil1 {fill:#FDFDFD}
    .fil48 {fill:#FDFDFE}
    .fil38 {fill:#FE9304}
    .fil39 {fill:#FE9B03}
    .fil36 {fill:#FEAB03}
    .fil11 {fill:#FEF4E5}
    .fil4 {fill:#FEFEFE}
    .fil24 {fill:#FF8205}
   </style></defs><rect class="fil0 str0" x="4891" y="6004" width="10486" height="13306"/><path class="fil1 str1" d="M5984 15181l4043-9 15 376-4074-14 16-353zm-20-949l4070 5 0 368-4066-2-4-371zm8341-601l-8342 27-7-3705 8357 5-8 3673zm-9423 2024l3 593 5 838-13 224c152-14 638-313 752-382 228-141 460-262 702-406l-373-12-3-382 1221 12 433 1c160-7 2637 40 2751-57-83-56-151-203-262-351-96-129-23 69-80-143l328 55c-42-224-127-271 47-417 191-160 854-314 1006-584-86-73 59 21-73-29-11-4-46-12-56-17-93-44-87 62-78-367l575 2 28 15c47-128 230-351 335-424 173-121 350-119 523-10 366-112 249-166 624 47 133 76 423 296 584 343 681 199 987 462 1326 558l190 63 0-3362 0-1737 0-3722-10486 0-4 4825c0 1570 63 3273-5 4826z"/><path class="fil2" d="M17056 18794c208 279-154 766-351 682-214-92-36-734 351-682zm-4403-4980c-55 79-99 114-175 210-56 71-113 147-167 224-67 54-253 265-329 363-80 84-198 197-310 249-163 75-217 86-337 200-42 75 6 116-8 284-154 63-301 85-452 118l-14 105c301 80 247 125 591 87 209-23 393-50 584-126 481-192 523-403 648-723 165 253 138 754 1218 900 158 464 24 250 310 580 131 151 42 174 124 326 166 305 201-174 223 682 158 119 426 256 609 355 194 105 395 232 600 336 207 104 1078 549 1173 691-7 6-19 11-24 14l-186 109c-321 281-164 618-177 682-166 30-584-241-754-333l-2200-1170c-184 0-259 111-499-18l-109-76c-310-248-296-411-1029-506-14-272 53-292-102-572-102-186-243-236-323-408-90-97-317-146-491-152l-47 40c22 128 124 297 187 447 111 267 155 334-168 351l15 136c66 69 75 202 250 498l43 103c58 131 61 80 116 147 114 138-51 101 316 327l1128 697c238 149 500 300 771 466 416 254 1246 671 1755 676 242 2 246 64 399 197l985 887 2089-1 0-1207c-118-34-1058-781-1261-930-384-284-579-865-737-1434-165-595-338-2106-441-2281-252-427-752-381-1065-538l-195-64c-339-96-645-359-1326-558-161-47-451-267-584-343-375-213-258-159-624-47z"/><path class="fil2" d="M7457 16321c64 79 351 520 317 658-34 143-483 366-693 332-265-43-434-373-296-653 72-145 460-356 672-337zm-5384 799l0 3254c391-29 925-109 1291-221 207-64 377-134 548-237 279-166 279-274 439-353 48-103 42-73 112-144 53-54 69-72 125-135 99-110 177-195 298-236 60-118 467-381 608-464 242-141 451-245 735-347 490-178 1087-493 1430-766 70-90 114-105 184-204 55-77 76-151 139-229l29-461c-56-104-66-174-153-251-56-50-187-101-249-185l-433-1c-101 105-293 134-419 190-155 68-272 144-426 192-242 144-474 265-702 406-114 69-600 368-752 382l-300 172c-96 39-200 77-310 119-177 91-749 56-855-120-152-306 344-612 515-839 277-368 446-480 958-394l-3-593c-1059 37-655-346-1535 560-280 288-921 741-1274 905z"/><path class="fil3" d="M11359 10226l2679 0-1 872-2671-3-7-869zm-5128 2l4861 2-7 866c-807 0-1631-17-2436-4l-2422-30 4-834zm-268 3430l8342-27c35-1197-50-2496 8-3673l-8357-5 7 3705z"/><polygon class="fil4" points="11076 12240 11095 11377 6231 11372 6233 12222 "/><polygon class="fil4" points="11077 13391 11095 12528 6231 12523 6233 13373 "/><path class="fil4" d="M6227 11062l2422 30c805-13 1629 4 2436 4l7-866-4861-2-4 834z"/><polygon class="fil4" points="8429 8151 14023 8156 14053 7102 8437 7102 "/><polygon class="fil3" points="7154 9375 14308 9360 14329 9004 6706 8998 5971 9008 5968 9367 "/><path class="fil3" d="M8188 7102l5724 0-31 1054-5702-5 9-1049zm-398 1332l6520-11 2-1592-6532 3 10 1600z"/><polygon class="fil4" points="11366 11095 14037 11098 14038 10226 11359 10226 "/><polygon class="fil4" points="12117 12236 12284 12231 14031 12244 14039 11370 11363 11370 11369 12238 "/><polygon class="fil4" points="12119 13380 12286 13375 14033 13389 14041 12514 11365 12515 11371 13383 "/><path class="fil5" d="M13090 17203c-15 33-7-35-29 95l90 415c48 120-35 27 103 99 49 26 93 29 139 45 81 28 138 48 207 120l2200 1170c170 92 588 363 754 333 13-64-144-401 177-682l186-109c5-3 17-8 24-14-95-142-966-587-1173-691-205-104-406-231-600-336-183-99-451-236-609-355-109-40-313-143-377-224-151-30-358-170-504-236l-138 0c86 111 628 390 757 455 268 138 500 284 771 425l1528 846c-114 111-228 209-282 423l-3163-1713c-57-49-12-3-61-66z"/><path class="fil6" d="M10930 16124l117 121c174 6 401 55 491 152 193 60 328 171 437 296 133 154 174 269 303 445 125 172 654 419 873 575l-90-415c22-130 14-62 29-95 69-223 201-340 450-370l138 0c-79-47-59-47-91-104-168-24-299-130-461-215l-214-125-344-156-99-79c-136-11-474-167-607-236-216-76-256-120-519-135-293-17-234-36-451-143-245-1-125-87-353-64 51 229-27 33 104 181l287 367z"/><path class="fil7" d="M11077 17441c22 300-48 276 33 567 84 62 126 111 225 188 87 68 150 108 230 181 95 34 567 344 713 441 164 110 590 381 694 505l46 10c673 415 588 476 1528 954 429 218 1283 398 1583 934l668-4-985-887c-153-133-157-195-399-197-509-5-1339-422-1755-676-271-166-533-317-771-466l-1128-697c-367-226-202-189-316-327-55-67-58-16-116-147l-43-103c-175-296-184-429-250-498l43 222z"/><path class="fil8" d="M13090 17203c49 63 4 17 61 66l3163 1713c54-214 168-312 282-423l-1528-846c-271-141-503-287-771-425-129-65-671-344-757-455-249 30-381 147-450 370z"/><polygon class="fil3" points="5968 14603 10034 14605 10034 14237 5964 14232 "/><polygon class="fil3" points="5968 15534 10042 15548 10027 15172 5984 15181 "/><path class="fil4" d="M8011 16577l-29 461c85 47 125 34 254 34l2059 2c210-36 78 27 160-80-69-157-96-298-80-500l-2286 8c-92 23-47-28-78 75z"/><path class="fil7" d="M4267 17601l-343 2c93-81 242-59 444-105 5-174-76-296-117-467 271 63 288 155 639 55l-5-838c-512-86-681 26-958 394-171 227-667 533-515 839 106 176 678 211 855 120z"/><path class="fil9 str2" d="M15620 21213l509 8c-300-536-1154-716-1583-934-940-478-855-539-1528-954l-477 1c75 115 192 161 336 268 385 287 698 492 1165 705 405 184 1295 425 1578 906z"/><path class="fil7" d="M10861 15567l19 7 12 66c217 107 158 126 451 143 263 15 303 59 519 135 79-218 254-196 480-276 319-112 374-211 529-250l76 77 93 68c58 31 75 39 129 70l114 70 185 83c369 186 178-1 328 371l306 369c38 71 114 200 149 278 87 196 15 149-69 291 64 81 268 184 377 224-22-856-57-377-223-682-82-152 7-175-124-326-286-330-152-116-310-580-1080-146-1053-647-1218-900-125 320-167 531-648 723-191 76-375 103-584 126-344 38-290-7-591-87z"/><path class="fil3" d="M7659 17471c246-87 2402-25 2876-30l-43-369c15-93 42-78-37-78-82 107 50 44-160 80l-2059-2c-129 0-169 13-254-34-63 78-84 152-139 229-70 99-114 114-184 204z"/><path class="fil10" d="M7609 16141c62 84 193 135 249 185 87 77 97 147 153 251 31-103-14-52 78-75l2286-8c30-267 149-174 77-318-7-8-18-17-23-23-6-6-18-18-24-23l-45-46c-114 97-2591 50-2751 57z"/><path class="fil9" d="M11399 14644c-152 270-815 424-1006 584-174 146-89 193-47 417l-328-55c57 212-16 14 80 143 111 148 179 295 262 351l45 46c6 5 18 17 24 23 5 6 16 15 23 23 7-6 20-22 24-14l454-38-287-367c-131-148-53 48-104-181 228-23 108 63 353 64l-12-66c-18-45-45-161-50-224 112-138 248-284 505-290 120-114 174-125 337-200 112-52 230-165 310-249-97-5-181 0-272-3-64-2-80 3-142-17-130-41-16 88-85-53l-84 106z"/><path class="fil11" d="M7457 16321c-212-19-600 192-672 337-138 280 31 610 296 653 210 34 659-189 693-332 34-138-253-579-317-658z"/><path class="fil12" d="M4351 19563c93 155 232 201 478 172l-172-20c103-181 190-262 443-270l116 201c67 184 85 238 288 268 63-188 97-215 236-339 91-81 287-150 351 32 185-77 288-136 368-281l-1568-16-5-262c-121 41-199 126-298 236-56 63-72 81-125 135-70 71-64 41-112 144z"/><path class="fil9" d="M12432 19329l540-6c-104-124-530-395-694-505-146-97-618-407-713-441-171 27-355 21-520-18 36 44 14 22 62 60 25 21 63 45 91 63 224 138 1112 674 1234 847z"/><path class="fil7" d="M13600 17977c-69-72-126-92-207-120-46-16-90-19-139-45-138-72-55 21-103-99-219-156-748-403-873-575-129-176-170-291-303-445-109-125-244-236-437-296 80 172 221 222 323 408 155 280 88 300 102 572 733 95 719 258 1029 506l109 76c240 129 315 18 499 18z"/><path class="fil12" d="M13126 16514c162 85 293 191 461 215l5-207-12-126c119-116 163-119 216-265-150-372 41-185-328-371-5 114-26 120-97 204-45 53-65 95-132 163-163 170-154 75-113 387z"/><path class="fil12" d="M11862 15918c133 69 471 225 607 236l37-395c231 23 352-71 441-290l-76-77c-155 39-210 138-529 250-226 80-401 58-480 276z"/><path class="fil3" d="M6331 16522c154-48 271-124 426-192 126-56 318-85 419-190l-1221-12 3 382 373 12z"/><path class="fil9" d="M10526 17931l135 144c-29-95-1-56 149-59 114-3 180 6 300-8-81-291-11-267-33-567l-537 3-14 487z"/><path class="fil9" d="M10455 16994c79 0 52-15 37 78l505 6c-39-226-96-319-89-581l-533-3c-16 202 11 343 80 500z"/><path class="fil13" d="M13587 16729c32 57 12 57 91 104 146 66 353 206 504 236 84-142 156-95 69-291-35-78-111-207-149-278l-510 22-5 207z"/><path class="fil12" d="M12568 16233l344 156c39-68 46 32 9-84-22-68-22-45-60-96l135-74-54-103c281-36 262-140 341-355l-114-70c-54-31-71-39-129-70-22 202-131 189-279 298-120 89-63 32-117 185-32 89-47 132-76 213z"/><path class="fil9" d="M11795 14248l516 0c54-77 111-153 167-224 76-96 120-131 175-210-173-109-350-111-523 10-105 73-288 296-335 424z"/><path class="fil14" d="M17056 18794c-387-52-565 590-351 682 197 84 559-403 351-682z"/><path class="fil15" d="M4267 17601c110-42 214-80 310-119l300-172 13-224c-351 100-368 8-639-55 41 171 122 293 117 467-202 46-351 24-444 105l343-2z"/><path class="fil16" d="M10661 18075l349 309 35-25c165 39 349 45 520 18-80-73-143-113-230-181-99-77-141-126-225-188-120 14-186 5-300 8-150 3-178-36-149 59z"/><path class="fil17" d="M11010 18384l-349-309-135-144c49 168 18 37-9 87l-239-1-2 371 734-4z"/><path class="fil16" d="M11483 14538c69 141-45 12 85 53 62 20 78 15 142 17 91 3 175-2 272 3 76-98 262-309 329-363l-516 0-28-15-284 305z"/><polygon class="fil16" points="10535 17441 10540 17444 11077 17441 11034 17219 11019 17083 10997 17078 10492 17072 "/><path class="fil16" d="M10375 16494l533 3c21-152-4-144 92-212l47-40-117-121-454 38c-4-8-17 8-24 14 72 144-47 51-77 318z"/><path class="fil15" d="M12912 16389l214 125c-41-312-50-217 113-387 67-68 87-110 132-163 71-84 92-90 97-204l-185-83c-79 215-60 319-341 355l54 103-135 74c38 51 38 28 60 96 37 116 30 16-9 84z"/><path class="fil11" d="M10908 16497c-7 262 50 355 89 581l22 5c323-17 279-84 168-351-63-150-165-319-187-447-96 68-71 60-92 212z"/><path class="fil3" d="M11399 14644l84-106 284-305-575-2c-9 429-15 323 78 367 10 5 45 13 56 17 132 50-13-44 73 29z"/><path class="fil11" d="M10880 15574l-19-7 14-105c151-33 298-55 452-118 14-168-34-209 8-284-257 6-393 152-505 290 5 63 32 179 50 224z"/><path class="fil11 str3" d="M5504 19914c254 0 467-171 587-307-64-182-260-113-351-32-139 124-173 151-236 339z"/><path class="fil15" d="M12469 16154l99 79c29-81 44-124 76-213 54-153-3-96 117-185 148-109 257-96 279-298l-93-68c-89 219-210 313-441 290l-37 395z"/><path class="fil18" d="M13592 16522l510-22-306-369c-53 146-97 149-216 265l12 126z"/><path class="fil11" d="M4829 19735l387-89-116-201c-253 8-340 89-443 270l172 20z"/><path class="fil19" d="M6640 7424c5 16 5 9-7 21-7-9-9 16-4-14 2-19-3-3 11-7zm-367 578c-3-52-6-227 3-267 35-2 39 11 82 43l216 158c83 60 54 68 182 68 77 0 174 5 249-1l-404-289c-30-23-123-79-136-107 17-41 433-292 492-346 9-8 4-3 11-11-79 0-158 0-236 0-86-1-68-7-172 69l-261 181c-29 6-15-1-19-5-23-26-4-192-9-240l-208 0 0 747 210 0z"/><path class="fil20" d="M6273 8002c-10 5 11 1-14 5l-200-3c-7-53-5-732 2-755 17-1 200-9 210 6 5 48-14 214 9 240 4 4-10 11 19 5l261-181c104-76 86-70 172-69 78 0 157 0 236 0-7 8-2 3-11 11-59 54-475 305-492 346 13 28 106 84 136 107l404 289c-75 6-172 1-249 1-128 0-99-8-182-68l-216-158c-43-32-47-45-82-43-9 40-6 215-3 267zm-244-785c-14 55-5 617-6 771 0 46 2 40 12 48 16 10 246 8 267-1 16-28 5-191 7-237 9-6 2-7 9 3 29 6 103 70 135 92 16 11 28 20 42 30 7 5 14 9 18 13 16 13 8 5 16 18 18 5 48 25 55 40 103 46-13 47 227 47 55 0 235 6 270-5l-1-32c-17-3-26-14-40-24-19-13-25-14-38-32-11-3-4 0-16-6-3-2-11-8-15-10-11-8-14-9-19-18-15-6-6-1-16-8-10-7-3-2-10-12-16-3-14-3-30-15-4-4-9-8-14-12-7-7-3-2-9-11-24-4-56-35-56-37 0-1-2-1-2-2-20-7-30-17-51-33-12-8-17-11-26-17-16-11-9-3-20-21-18-3-41-19-50-34-21-8-41-18-50-39-22-4-59-34-89-56l-12-10c6-9-12-3 11-9 19-18 65-47 93-60l-3 3c8-12 1-5 14-15 1-1 9-6 11-7 13-9 14-10 29-19l84-60c8-9 7-7 18-14l5 6c6-8 3-5 10-13l26-17 8 3c11-17 22-27 42-33 8-10 3-5 12-12 11-9-16 5 10-5 2-1 12-9 13-9 13-7 2-3 16-6 7-10-4 0 12-15 1-1 9-6 11-7 18-13 10-9 32-17 5-10 18-15 28-22 10-13-11-10 9-12l14-4 12-5c17-20 17-8 16-37-45-18-157-7-214-7-56 0-171-13-209 13-14 11-31 22-43 31-8 5-13 8-22 14-13 10-11 5-14 16-27 11-44 30-70 39l3 1c-9 13-4 10-20 18-9 4-11 8-21 13-14 8-5 7-20 7l-9 12c-1 1-3 2-4 3l-32 23c-17 11-23 21-43 26-10 16 8 4-17 18-2-1-3-3-4-3l-3-19c3-61 2-157-2-212-46-2-253-6-277 3z"/><path class="fil21" d="M5989 8153l10 11c16 14 13 9 26 38 56-16-48 18 23-13 2-1 3-2 5-3 21-7 849-2 875-2-6-30 1-20-42-22-19 0-38 0-56 0-24-36 18-33-55-33l0-17-45 0-1-24c-30-14-43-11-48-19l-5-10c-17 1-33 4-49 8-17-30-5-9-35-22l-62-56c-39-33-38 25-70-1 44-8 26 6 32-25-7-4-4-4-18-7-10-2-7-2-18 1-15 3-10 3-19 13-13-21-3-7 3-21 7-19-1-14 8-10l4-22 1-24c-32-22-106-86-135-92 10 26 6 225 3 248-38 14-106 6-154 6-26 0-53 0-80 0-11 0-24 2-34 2-62 1-24-37-51-69-21 25-13 121-13 165z"/><path class="fil22" d="M6025 8202l-2 3c9 5 1007 13 1078 0 2-1 9-6 14-11 18-18 10-5 12-24-12-26 16-21-7-64-58-14-139 9-198-8-33-11-154-9-193-10l1 24 45 0 0 17c73 0 31-3 55 33 18 0 37 0 56 0 43 2 36-8 42 22-26 0-854-5-875 2-2 1-3 2-5 3-71 31 33-3-23 13z"/><path class="fil23" d="M5978 8153l11 0c0-44-8-140 13-165 27 32-11 70 51 69 10 0 23-2 34-2 27 0 54 0 80 0 48 0 116 8 154-6 3-23 7-222-3-248-7-10 0-9-9-3-2 46 9 209-7 237-21 9-251 11-267 1-10-8-12-2-12-48 1-154-8-716 6-771l-15-2-6 17c-43-65-13-104 0-169l-11 2c-38 44-21 199-21 266l0 552c0 66-8 215 2 270z"/><path class="fil24" d="M6815 7402l6 34c-23-11-13-8-42-4l-5-6c-6 13 10 6-18 14l-84 60 5-2c2-1 12-3 13-3 36 3 9 0 15 5 51-1 33-7 76-15-13 29-22 13-30 30 40 27 28-3 74 24 13 7 10 7 41 9 17 1 33 1 50 1l5 23 49 0 0 18c27 0 54 0 81 0 61 0 57-8 70 12l7 0 0-105c-16-10 1-6-28-9-7-1-23-1-31-1-49-1-45 0-52 13-22-2-21-10-41-21l-35-9c-79-10-41-17-84-19-7-28 13 0 2-21-6-11-11-7-22-33l-14 8-8-3z"/><path class="fil25" d="M7134 7306l-1 150-4 309-8 210 3 37c-16-2-13-2-24-5 0 0-12 0-14-2-1-3-4-1-6-1l1 32c-35 11-215 5-270 5-240 0-124-1-227-47 5 45 23 31 55 52 19 13-9-11 9 8l-21 13c16-4 32-7 49-8l5 10c5 8 18 5 48 19 39 1 160-1 193 10 59 17 140-6 198 8 23 43-5 38 7 64l6 4c9-50 9-1031 1-1077l0 209z"/><path class="fil26" d="M6670 7699l-2 13c9 15 32 31 50 34 34 7 34 11 57 27 16 11 39 25 40 44 0 1 2 1 2 2 0 2 32 33 56 37 29-5 18-1 38 4-17 8 1 3-18-13l-23-21c-1-1-2-2-3-4 4-4-14-24 27-7 27 11-24 23 80 33l65 9c21 3 51 1 73 1 7 14 5 8 7 28l7-90-5 2-95 2c-14-18-12-24-12-28-182 0-104-8-167-27-9-3-26-5-38-11-3-2-22-17-29-21-11-6-18-6-37-11-31-8-11 11-24-18-29 9 11 4-26 12-19 4-2-14-23 3z"/><path class="fil27" d="M6611 7558l25 12c15 10 2 13 9 49l-19 3-2 28c20 0 76 0 44 30l-7 1c2 17-13-2 9 18 21-17 4 1 23-3 37-8-3-3 26-12 13 29-7 10 24 18 19 5 26 5 37 11 7 4 26 19 29 21 12 6 29 8 38 11 63 19-15 27 167 27 0 4-2 10 12 28l95-2-8-49c-18 0-38 1-57 0l-50-10c-46-9-69 8-108-16l-61-31c-13-6-6-4-20-10-23-10-57-23-79-35-32 12 18 15-31 16-5-57 14-3 16-62-17-29-3 25-33-63 3 15 1 8-11 25l-68-5z"/><path class="fil28" d="M6284 7110c49-4-5 34 47 38 6 88-4 54-8 64-1 1-13-6 2 13 1 1 2 2 3 3l6 7c7 13 4 45 11 94 0 1 1 3 1 4l-2 13c-8 39-1 33-11 41 38-5 46-30 87-21 15 0 6 1 20-7 10-5 12-9 21-13l0-11-20 0c-1-1-2-3-3-4 0-1-2-3-3-4l-11-14c-10-9-11-5-23-12 0-142-14-44-14-189-20-4-38-14-48 0l92-14c34 3 58-12 97-2l-94-5-1-36c-40 0-74 2-112 5-81 7-81-6-86 19l94 7c-12 7-19 6-34 12-20 7-12 12-11 12z"/><path class="fil29" d="M6433 7055l1 36 94 5c36 9 158 4 174 11-7 7-21 8-31 9 3 0 6-6 13 9 0 0 0 2 1 2 0 1-1 8 0 9 3 24 8 8 8 45l-63 11 0 20 132 0-6-25c-5-36-12-13-11-45 0-1 2-17 4-20 10-26-6-7 14-21l-42-11c6-2 12-2 19-6 1 0 3-1 3-1l8-4c17-6 45-2 58-7 30-11-7 2 18-14 23-15 54-9 94-9l0-1-488 0 0 7z"/><path class="fil30" d="M6705 7500c-5 30 0 19 3 49 36 10 62 6 85 28 1 1 2 2 3 3 37 38 43 20 71 27 16 7 3 23 48 30 26 4 56-1 80 0 40 3-1-2 27 13 16 9 24 12 45 0 1-1 2-2 4-3 19-12 0-9 54-9l-4-36c-13-20-9-12-70-12-27 0-54 0-81 0l0-18-49 0-5-23c-17 0-33 0-50-1-31-2-28-2-41-9-46-27-34 3-74-24 8-17 17-1 30-30-43 8-25 14-76 15z"/><path class="fil31" d="M6677 7498c-5 27-4 28-25 36-4 2-15 6-16 6-16 4 5 2-18 1l3-3-10 20 68 5c12-17 14-10 11-25 30 88 16 34 33 63 70 4 23 6 67 28 21 11 46 13 69 24 10 5 16 8 29 13 5 2 12 4 19 6l9 4c35 13 62 8 102 8l0 17 94 0 4 29c6-46 18-83 12-128l-7 0 4 36c-54 0-35-3-54 9-2 1-3 2-4 3-21 12-29 9-45 0-28-15 13-10-27-13-24-1-54 4-80 0-45-7-32-23-48-30-28-7-34 11-71-27-1-1-2-2-3-3-23-22-49-18-85-28-3-30-8-19-3-49-6-5 21-2-15-5-1 0-11 2-13 3z"/><path class="fil32" d="M7128 7497l0 105c6 45-6 82-12 128l-4-29-94 0 0-17c-40 0-67 5-102-8l-9-4c-7-2-14-4-19-6-13-5-19-8-29-13-23-11-48-13-69-24-44-22 3-24-67-28-2 59-21 5-16 62 49-1-1-4 31-16 22 12 56 25 79 35 14 6 7 4 20 10l61 31c39 24 62 7 108 16l50 10c19 1 39 0 57 0l8 49 5-2 3-31 4-309-4 0-1 41z"/><path class="fil33" d="M6823 7405l14-8c11 26 16 22 22 33 11 21-9-7-2 21 43 2 5 9 84 19l35 9c20 11 19 19 41 21 7-13 3-14 52-13 8 0 24 0 31 1 29 3 12-1 28 9l1-41-4-51c-12 14-1 11-13 20-15 12-64 5-86 5-6-8-1 0-8-12-14-22 2 1-4-8-14-1-29-2-43-5-25-7 0-1-15-10-23-15-12 18-40-24-13 11-13 9-37 12l-3-14-11 3c-20 6-31 16-42 33z"/><path class="fil34" d="M5997 7065l11-2c9 2 16 2 28 5 14 4 13 5 33 7 16 1 59-1 66 5l95 8c-13 16 13-12-7 4l-13 13c-2 1-4 3-6 5 23 1 17 4 25-4-45 5-18 0-32 17-9 13-14 21-18 38 20 16 5 16 31 23-9-3 1-13-6 8-8 25 4 1 0 11-27 0-43-4-66 6-35 12-89-1-109 8 24-9 231-5 277-3-15-13-16-8-41-11-4-38 4-27 5-27 0 0 2-1 3-2l6-2c-11-14-7-28-1-47l6-15c-1 0-9-5 11-12 15-6 22-5 34-12l-94-7c5-25 5-12 86-19 38-3 72-5 112-5l0-7c-76 2-153 0-229 0-58 0-168-13-207 17z"/><path class="fil35" d="M7017 7068c-11 13-13 13-35 16 10 10 30 13 33 14 0 0-37 4-14 36l25 38c18 17 58 17 89 4l11 39 1 73 2 18 5 0 0-209c-12-43-34-48-83-49-43 0-87-1-130 0l0 1c14 21-8 7 25 14 3 1 24 2 29 2 10 1 29 6 42 3z"/><path class="fil36" d="M6918 7092c6 77 9 31 14 72l-9 32c-7 14-35 2-59 12-32 8-69 10-102 4l-132 0-3 15c38-26 153-13 209-13 57 0 169-11 214 7 1 29 1 17-16 37 51 11 41 10 79-23l13-20-11-39c-31 13-71 13-89-4l-25-38c-23-32 14-36 14-36-3-1-23-4-33-14 22-3 24-3 35-16-68 0-54-6-79 16-1 1-2 2-2 2l-13 5c-1-1-3 1-5 1z"/><path class="fil37" d="M7126 7796l-7 90c-2-20 0-14-7-28-22 0-52 2-73-1l-65-9c-104-10-53-22-80-33-41-17-23 3-27 7 1 2 2 3 3 4l23 21c19 16 1 21 18 13-20-5-9-9-38-4 6 9 2 4 9 11 5 4 10 8 14 12 16 12 14 12 30 15l20 3 6 17c5 9 8 10 19 18 4 2 12 8 15 10 12 6 5 3 16 6 31-4 15-1 69 17-3-16 2-17-16-26-14-7-20 0-34-8-16-9-13-31-40-33 26-2 6 4 34 11 28 7 26-6 71 25 16 12 12 8 29 17l6 24 8-210-3 31z"/><path class="fil38" d="M6951 7334l-35 6c-14 3-3-1-16 6-1 0-11 8-13 9-1 1-2 3-3 4-1 1-2 3-3 4-1 1-4 5-5 6l3 14c24-3 24-1 37-12 28 42 17 9 40 24 15 9-10 3 15 10 14 3 29 4 43 5 6 9-10-14 4 8 7 12 2 4 8 12 22 0 71 7 86-5 12-9 1-6 13-20l4 51 4 0 1-150-5 0c2 31-4 24-8 54-35 0-73 5-106-4-40-10-5 7-24-1-20-9 6-4-17-24l-23 3z"/><path class="fil37" d="M6306 7214c4 55 5 151 2 212 13 6 7 6 24 4 20-5 26-15 43-26l32-23c1-1 3-2 4-3l9-12c-41-9-49 16-87 21 10-8 3-2 11-41l2-13c0-1-1-3-1-4-7-49-4-81-11-94l-6-7c-1-1-2-2-3-3-15-19-3-12-2-13 4-10 14 24 8-64-52-4 2-42-47-38l-6 15c-6 19-10 33 1 47l-6 2c-1 1-3 2-3 2-1 0-9-11-5 27 25 3 26-2 41 11z"/><path class="fil39" d="M6763 7101c30-6 37-2 67 4l12 2c-8 21-6 30-6 59 18-19-8-10-13 13l37 6 4 23c24-10 52 2 59-12l-26 0c0-28 1-13-18-30l6-74 33 0c2 0 4-2 5-1l13-5c0 0 1-1 2-2 25-22 11-16 79-16-13 3-32-2-42-3-5 0-26-1-29-2-33-7-11 7-25-14-40 0-71-6-94 9-25 16 12 3-18 14-13 5-41 1-58 7l-8 4c0 0-2 1-3 1-7 4-13 4-19 6l42 11z"/><path class="fil27" d="M6461 7335c16-2 0 4 20-7l-3-1 1-13-21-12c1-62 22-90-27-91l0-100 43-7-43-6-92 14c10-14 28-4 48 0 0 145 14 47 14 189 12 7 13 3 23 12l11 14c1 1 3 3 3 4 1 1 2 3 3 4l20 0z"/><path class="fil30" d="M6524 7271l24 17c3-11 1-6 14-16 9-6 14-9 22-14 12-9 29-20 43-31l3-15-17-9c0-34 10-38-16-42l6 56c-23-3-1-8-27 3 14-40 1-84 10-100l23-18-81-4-2 6 1 111c18-7 0-5 7 8l13 16c-12 14-16 13-23 32z"/><path class="fil40" d="M6138 7209c23-10 39-6 66-6 4-10-8 14 0-11 7-21-3-11 6-8-26-7-11-7-31-23 4-17 9-25 18-38 14-17-13-12 32-17-8 8-2 5-25 4 2-2 4-4 6-5l13-13c20-16-6 12 7-4l-95-8-1 6c-1 1-2 2-3 4l-6 6c-1 1-3 2-4 2-1 1-32 3-33 3 25 70-31 19 14 73 0 1 1 2 1 2 16 22-10-17 2 5 6 11 11 10 22 18 9 7 4 2 11 10z"/><path class="fil41" d="M6014 7215l15 2c20-9 74 4 109-8-7-8-2-3-11-10-11-8-16-7-22-18-12-22 14 17-2-5 0 0-1-1-1-2-45-54 11-3-14-73 1 0 32-2 33-3 1 0 3-1 4-2l6-6c1-2 2-3 3-4-20 0-39 0-59 1-6 0-24 1-30 2l-18 10c-19 20 2 74-13 116z"/><path class="fil42" d="M7034 7258l-12 5c-7 10 5 8-23 16-10 7-23 12-28 22-12 17-13 17-20 33l23-3c23 20-3 15 17 24 19 8-16-9 24 1 33 9 71 4 106 4 4-30 10-23 8-54l-2-18c-1 2-4 5-5 6l-16 17c-65 5-84 9-80-24l68 2c0-52 3-8 15-28 1 0 12-12-3-16-3 13-8 21-13 31l-55 0c-8-10 1 0-4-18z"/><path class="fil24" d="M6630 7212l0-20 63-11c0-37-5-21-8-45-1-1 0-8 0-9-1 0-1-2-1-2-7-15-10-9-13-9 10-1 24-2 31-9-16-7-138-2-174-11l0 2 81 4-23 18c-9 16 4 60-10 100 26-11 4-6 27-3l-6-56c26 4 16 8 16 42l17 9z"/><path class="fil43" d="M6479 7314c2-1 4-4 5-3l24-40c-51-12-13-13-24-75-2-12-2-18-2-30 0-19 1-38 1-57l43-5 2-6 0-2c-39-10-63 5-97 2l43 6-43 7 0 100c49 1 28 29 27 91l21 12z"/><path class="fil44" d="M6528 7598l1 19c30 22 67 52 89 56 6-26 10-4-27-41 25-3 7 8 24-17 33-6 4-2 11 7l19-3c-7-36 6-39-9-49l-25-12 10-20c-28 13-74 42-93 60z"/><path class="fil45" d="M6273 8002l-210 0 0-747 208 0c-10-15-193-7-210-6-7 23-9 702-2 755l200 3c25-4 4 0 14-5z"/><path class="fil31" d="M6508 7271l16 0c7-19 11-18 23-32l-13-16c-7-13 11-15-7-8l-1-111-43 5c0 19-1 38-1 57 0 12 0 18 2 30 11 62-27 63 24 75z"/><path class="fil46" d="M6627 8067l21-13c-18-19 10 5-9-8-32-21-50-7-55-52-7-15-37-35-55-40l-30-5c-15-20-19-27-47-32l-4 22c-9-4-1-9-8 10-6 14-16 0-3 21 9-10 4-10 19-13 11-3 8-3 18-1 14 3 11 3 18 7-6 31 12 17-32 25 32 26 31-32 70 1l62 56c30 13 18-8 35 22z"/><path class="fil34" d="M7002 7948c13 18 19 19 38 32 14 10 23 21 40 24 2 0 5-2 6 1 2 2 14 2 14 2 11 3 8 3 24 5l-3-37-6-24c-17-9-13-5-29-17-45-31-43-18-71-25-28-7-8-13-34-11 27 2 24 24 40 33 14 8 20 1 34 8 18 9 13 10 16 26-54-18-38-21-69-17z"/><path class="fil46" d="M6014 7215c15-42-6-96 13-116l18-10c6-1 24-2 30-2 20-1 39-1 59-1l1-6c-7-6-50-4-66-5-20-2-19-3-33-7-12-3-19-3-28-5-13 65-43 104 0 169l6-17z"/><path class="fil38" d="M6756 7187c8-1 24-3 30-4 14-3-9 8 10-3l8-9c27-43-4-54-4-54l30-12c-30-6-37-10-67-4-20 14-4-5-14 21-2 3-4 19-4 20-1 32 6 9 11 45z"/><path class="fil47" d="M6756 7187l6 25c33 6 70 4 102-4l-4-23-37-6c5-23 31-32 13-13 0-29-2-38 6-59l-12-2-30 12c0 0 31 11 4 54l-8 9c-19 11 4 0-10 3-6 1-22 3-30 4z"/><path class="fil42" d="M7034 7258c5 18-4 8 4 18l55 0c5-10 10-18 13-31 15 4 4 16 3 16-12 20-15-24-15 28l-68-2c-4 33 15 29 80 24l16-17c1-1 4-4 5-6l-1-73-13 20c-38 33-28 34-79 23z"/><path class="fil42" d="M6923 7196l9-32c-5-41-8 5-14-72l-33 0-6 74c19 17 18 2 18 30l26 0z"/><path class="fil48" d="M7101 8205c16 17 11 14 15 40l57 0 0-57-35-1-5-13-6-4c-2 19 6 6-12 24-5 5-12 10-14 11z"/><path class="fil49" d="M6618 7673c21-2 26 2 43 8l7-1c32-30-24-30-44-30l2-28c-7-9 22-13-11-7-17 25 1 14-24 17 37 37 33 15 27 41z"/><path class="fil50" d="M6479 7314l-1 13c26-9 43-28 70-39l-24-17-16 0-24 40c-1-1-3 2-5 3z"/><path class="fil51" d="M6815 7817c-1-19-24-33-40-44-23-16-23-20-57-27 11 18 4 10 20 21 9 6 14 9 26 17 21 16 31 26 51 33z"/><path class="fil52" d="M6452 7917c28 5 32 12 47 32l30 5c-8-13 0-5-16-18-4-4-11-8-18-13-14-10-26-19-42-30l-1 24z"/><path class="fil53" d="M6023 8205l2-3c-13-29-10-24-26-38l-10-11-11 0c6 31 14 42 45 52z"/><path class="fil51" d="M6668 7712l2-13c-22-20-7-1-9-18-17-6-22-10-43-8 9 21 29 31 50 39z"/><path class="fil50" d="M6618 7541c23 1 2 3 18-1 1 0 12-4 16-6 21-8 20-9 25-36l-5 2c-15 9-16 10-29 19-2 1-10 6-11 7-13 10-6 3-14 15z"/><path class="fil54" d="M6916 7340l35-6c7-16 8-16 20-33-22 8-14 4-32 17-2 1-10 6-11 7-16 15-5 5-12 15z"/><path class="fil55" d="M6779 7432c29-4 19-7 42 4l-6-34-26 17c-7 8-4 5-10 13z"/><path class="fil56" d="M6332 7430c-17 2-11 2-24-4l3 19c1 0 2 2 4 3 25-14 7-2 17-18z"/><path class="fil57" d="M6952 7914l-6-17-20-3c7 10 0 5 10 12 10 7 1 2 16 8z"/><path class="fil58" d="M6633 7445c12-12 12-5 7-21-14 4-9-12-11 7-5 30-3 5 4 14z"/><path class="fil59" d="M6999 7279c28-8 16-6 23-16l-14 4c-20 2 1-1-9 12z"/><path class="fil56" d="M6529 7617l-1-19c-23 6-5 0-11 9l12 10z"/><path class="fil60" d="M6461 7335l0 11c16-8 11-5 20-18-20 11-4 5-20 7z"/><path class="fil59" d="M6865 7372l11-3c1-1 4-5 5-6 1-1 2-3 3-4 1-1 2-3 3-4-26 10 1-4-10 5-9 7-4 2-12 12z"/><path class="fil61" d="M6756 7440c28-8 12-1 18-14-11 7-10 5-18 14z"/></svg>