<svg xmlns="http://www.w3.org/2000/svg" viewBox="0 0 396.3 396.3"><style>.a{fill:#F9F9F9;}.b{fill:#424242;}.c{fill:#E64A19;}</style><polygon points="389.4 166.6 6.2 167.8 6.2 105.4 389.4 104.1 " class="a"/><polygon points="341.9 386.1 55 386.7 28.4 167.8 367.8 166.6 " fill="#C6C6C6"/><path d="M395.6 98h-94.6L266.4 23.8c-3.1 2.5-6.2 3.7-9.9 5 -0.6 0-0.6 0-1.2 0l32.1 69.2 -179.3 0.6 32.1-69.2c-1.9-0.6-3.7-1.2-5.6-2.5 -1.9-1.2-3.7-2.5-4.9-3.7L94.6 98.6 0 99.2v74.8h22.9l26.6 218.8 298-0.6 26-219.5h22.9L395.6 98zM336.3 379.9l-275.7 0.6L35.2 174l325.8-1.2L336.3 379.9zM12.3 161.7V111.6l370.9-1.2v50.1L12.3 161.7z" class="b"/><path d="M113.1 355.2L113.1 355.2c-7.4 0-14.2-6.2-14.8-13.6L87.2 216.7c-0.6-9.9 5.6-17.3 14.2-17.3l0 0c8.7 0 15.5 8 16.1 17.3l8.7 124.9C126.7 349 121.1 355.2 113.1 355.2z" class="a"/><path d="M170 355.2L170 355.2c-7.4 0-13.6-6.2-14.2-13.6l-4.9-124.9c-0.6-9.9 6.2-17.3 14.9-17.3l0 0c8.7 0 15.5 8 15.5 17.3l1.9 124.9C183.6 349 177.4 355.2 170 355.2z" class="a"/><path d="M226.8 354.5L226.8 354.5c-7.4 0-13.6-6.2-13.6-13.6l1.2-124.9c0-9.9 6.8-17.3 15.5-17.3l0 0c8.7 0 14.9 8 14.9 17.3l-4.3 124.9C240.5 348.4 234.3 354.5 226.8 354.5z" class="a"/><path d="M283.7 354.5L283.7 354.5c-7.4 0-13-6.2-13-13.6l7.4-125.5c0.6-9.9 7.4-17.3 16.1-17.3l0 0c8.7 0 14.9 8 14.2 17.3l-10.5 124.9C297.4 348.4 291.2 354.5 283.7 354.5z" class="a"/><rect x="158.9" y="129.6" width="12.3" height="12.3" class="b"/><rect x="191.6" y="129.6" width="12.3" height="12.3" class="b"/><rect x="224.4" y="129.6" width="12.3" height="12.3" class="b"/><circle cx="256.5" cy="17.6" r="14.2" class="c"/><circle cx="139.1" cy="17.6" r="14.2" class="c"/></svg>