<svg xmlns="http://www.w3.org/2000/svg" viewBox="0 0 404.3 404.3"><style>.a{fill:#F9F9F9;}.b{fill:#2EA2DB;}</style><circle cx="174.9" cy="229.4" r="168.8" class="a"/><path d="M174.9 373.4c-79.1 0-144-64.3-144-144 0-79.1 64.3-144 144-144 79.1 0 144 64.3 144 144C319 308.5 254.1 373.4 174.9 373.4z" class="b"/><path d="M174.9 348.6c-65.6 0-119.3-53.8-119.3-119.3s53.8-119.3 119.3-119.3 119.3 53.8 119.3 119.3S240.5 348.6 174.9 348.6z" class="a"/><path d="M174.9 323.9c-51.9 0-94.6-42.7-94.6-94.6s42.7-94.6 94.6-94.6 94.6 42.7 94.6 94.6S226.9 323.9 174.9 323.9z" fill="#FDBF5E"/><path d="M174.9 299.2c-38.3 0-69.9-31.5-69.9-69.9s31.5-69.8 69.9-69.8 69.9 31.5 69.9 69.9C244.8 267.7 213.3 299.2 174.9 299.2z" class="a"/><path d="M174.9 274.5c-24.8 0-45.1-20.4-45.1-45.1s20.4-45.1 45.1-45.1 45.1 20.4 45.1 45.1C220.1 254.1 199.7 274.5 174.9 274.5z" fill="#E64A19"/><path d="M174.9 251.6c-12.3 0-22.2-9.9-22.2-22.2 0-12.3 9.9-22.2 22.2-22.2s22.2 9.9 22.2 22.2C197.8 241.7 187.3 251.6 174.9 251.6z" class="a"/><polygon points="351.2 14.9 351.7 52.6 389.4 53.1 346.2 96.5 308.5 95.8 307.8 58.1 " class="b"/><path d="M310.9 102l37.7 0.6 55.7-55.7 -46.4-0.6L357.3 0l-55.6 55.7 0.6 37.1 -8 8c-31.5-28.4-73.6-46.4-119.3-46.4C78.5 54.4 0 132.9 0 229.4s78.5 174.9 174.9 174.9 174.9-78.5 174.9-174.9c0-45.8-17.9-87.8-47-119.3L310.9 102zM345.6 29.7l0.6 29 29 0.6 -31.5 31.5 -26.6-0.6c0-0.6-0.6-1.2-1.2-1.2 -0.6-0.6-0.6-0.6-1.2-0.6l-0.6-26.6L345.6 29.7zM337.5 229.4c0 89.7-72.9 162.6-162.6 162.6S12.3 319 12.3 229.4 85.3 66.8 174.9 66.8c42.7 0 81.6 16.7 110.7 43.2L170.6 225c-2.5 2.5-2.5 6.2 0 8.7 1.2 1.2 3.1 1.9 4.3 1.9 1.9 0 3.1-0.6 4.3-1.9l115-115C320.8 147.8 337.5 186.7 337.5 229.4z" fill="#424242"/></svg>