<svg xmlns="http://www.w3.org/2000/svg" viewBox="0 0 512 512" width="512" height="512"><path d="M503.9 495.8h-13.5V460.8c0-7.5-4.4-14-10.8-17V191.3c0-4.5-3.6-8.1-8.1-8.1 -4.5 0-8.1 3.6-8.1 8.1v13.9c-0.8-0.3-1.7-0.5-2.7-0.5h-24.3v-6.3c0-8.1-5.2-15.3-12.9-17.9l-51.8-17.3v-25.9c0-10.4-8.5-18.9-18.9-18.9h-13.5V29.6C339.5 13.3 326.2 0 309.9 0H159c-16.3 0-29.6 13.3-29.6 29.6v2.7h-13.5c-10.4 0-18.9 8.5-18.9 18.9v26.5L45.2 95c-7.7 2.6-12.9 9.8-12.9 17.9v330.9c-6.4 3-10.8 9.5-10.8 17v35H8.1c-4.5 0-8.1 3.6-8.1 8.1C0 508.4 3.6 512 8.1 512h64.7c4.5 0 8.1-3.6 8.1-8.1 0-4.5-3.6-8.1-8.1-8.1H37.7V460.8c0-1.5 1.2-2.7 2.7-2.7h323.4c4.5 0 8.1-3.6 8.1-8.1 0-4.5-3.6-8.1-8.1-8.1h-78.1V277.6c0-4.5-3.6-8.1-8.1-8.1 -4.5 0-8.1 3.6-8.1 8.1v164.4h-26.9V277.6c0-4.5-3.6-8.1-8.1-8.1 -4.5 0-8.1 3.6-8.1 8.1v164.4H91.6V191.3c0-4.5-3.6-8.1-8.1-8.1s-8.1 3.6-8.1 8.1v250.6H48.5V112.9c0-1.2 0.7-2.2 1.8-2.6l57.1-19c0.1 0 0.2-0.1 0.3-0.1l28.8-9.6c0.5-0.2 1.2-0.2 1.7 0l28.8 9.6c0.1 0 0.2 0.1 0.3 0.1l57.1 19c1.1 0.4 1.8 1.4 1.8 2.6v5.7h-153.6c-4.5 0-8.1 3.6-8.1 8.1 0 4.5 3.6 8.1 8.1 8.1h153.6v110.5c0 4.5 3.6 8.1 8.1 8.1 4.5 0 8.1-3.6 8.1-8.1v-46.7c0-1.2 0.7-2.2 1.8-2.6l86.2-28.7c0.6-0.2 1.2-0.2 1.7 0l86.2 28.7c1.1 0.4 1.8 1.4 1.8 2.6v6.3h-153.6c-4.5 0-8.1 3.6-8.1 8.1s3.6 8.1 8.1 8.1h153.6v221h-24.3c-4.5 0-8.1 3.6-8.1 8.1 0 4.5 3.6 8.1 8.1 8.1h75.5c1.5 0 2.7 1.2 2.7 2.7v35H105.1c-4.5 0-8.1 3.6-8.1 8.1 0 4.5 3.6 8.1 8.1 8.1h398.8c4.5 0 8.1-3.6 8.1-8.1C512 499.5 508.4 495.8 503.9 495.8zM161.7 72.3l-18.3-6.1c-3.8-1.3-8.1-1.3-11.9 0l-18.3 6.1V51.2c0-1.5 1.2-2.7 2.7-2.7h43.1c1.5 0 2.7 1.2 2.7 2.7V72.3zM291 137.4v25.9l-48.5 16.2v-66.7c0-8.1-5.2-15.3-12.9-17.9L177.9 77.7V51.2c0-10.4-8.5-18.9-18.9-18.9h-13.5v-2.7c0-7.4 6-13.5 13.5-13.5h150.9c7.4 0 13.5 6 13.5 13.5v88.9h-13.5C299.5 118.6 291 127 291 137.4zM355.7 158l-18.3-6.1c-1.9-0.6-3.9-1-6-1s-4 0.3-6 1l-18.3 6.1v-20.5c0-1.5 1.2-2.7 2.7-2.7h43.1c1.5 0 2.7 1.2 2.7 2.7V158zM463.5 441.9h-26.9v-48.5H460.8c0.9 0 1.9-0.2 2.7-0.5V441.9zM463.5 377.7c-0.8-0.3-1.7-0.5-2.7-0.5h-24.3v-26.9h26.9V377.7zM463.5 334.1h-26.9V307.2h26.9V334.1zM463.5 291h-26.9v-26.9h26.9V291zM463.5 247.9h-26.9v-26.9H460.8c0.9 0 1.9-0.2 2.7-0.5V247.9z" fill="#f9f9f9"/></svg>