<svg xmlns="http://www.w3.org/2000/svg" viewBox="0 0 512 512" width="512" height="512"><style>.a{fill:#f9f9f9;}</style><path d="M482.4 0H105.1c-4.5 0-8.1 3.6-8.1 8.1s3.6 8.1 8.1 8.1h377.3c7.4 0 13.5 6 13.5 13.5v261.4h-45.8c-4.5 0-8.1 3.6-8.1 8.1 0 4.5 3.6 8.1 8.1 8.1h45.8v78.1c0 4.8-2.6 9.3-6.7 11.7 -3.9 2.2-5.2 7.2-2.9 11 1.5 2.6 4.2 4 7 4 1.4 0 2.8-0.3 4-1.1 9.1-5.3 14.8-15.1 14.8-25.7V29.6C512 13.3 498.7 0 482.4 0z" class="a"/><path d="M420.4 353c0 16.3 13.3 29.6 29.6 29.6s29.6-13.3 29.6-29.6c0-16.3-13.3-29.6-29.6-29.6S420.4 336.7 420.4 353zM450 339.5c7.4 0 13.5 6 13.5 13.5s-6 13.5-13.5 13.5 -13.5-6-13.5-13.5S442.6 339.5 450 339.5z" class="a"/><path d="M177.9 406.9c0-4.5-3.6-8.1-8.1-8.1H29.6c-7.4 0-13.5-6-13.5-13.5V307.2h196.7c4.5 0 8.1-3.6 8.1-8.1 0-4.5-3.6-8.1-8.1-8.1H16.2V29.6c0-7.4 6-13.5 13.5-13.5h43.1c4.5 0 8.1-3.6 8.1-8.1S77.2 0 72.8 0H29.6C13.3 0 0 13.3 0 29.6v355.7c0 16.3 13.3 29.6 29.6 29.6h140.1C174.2 415 177.9 411.4 177.9 406.9z" class="a"/><path d="M454 400.7l-71.3-21.4v-25.3c5.8-2.7 11.2-6.3 16.1-10.5 13.2-11.3 21.9-27 24.5-44.2l9-58.4c8.8-3.4 15-11.9 15-21.8 0-6.2-2.4-12.1-6.8-16.5 0 0 0 0 0 0l-15.7-15.7 -11.1-33.4c-6.4-19.3-23.5-32.8-43.5-34.8 -3-6.5-9.6-11-17.2-11h-43.1c-7.6 0-14.2 4.5-17.2 11 -19.9 2-37 15.5-43.5 34.8l-11.1 33.4 -15.7 15.7c-4.4 4.4-6.8 10.3-6.8 16.5 0 9.9 6.2 18.4 15 21.8l9 58.4c2.6 17.2 11.4 32.8 24.5 44.2 4.9 4.2 10.4 7.7 16.1 10.5v25.3l-71.3 21.4c-21.8 6.5-36.5 26.3-36.5 49v43.4c0 10.4 8.5 18.9 18.9 18.9h194c4.5 0 8.1-3.6 8.1-8.1 0-4.5-3.6-8.1-8.1-8.1H258.7v-24.3c0-4.5-3.6-8.1-8.1-8.1s-8.1 3.6-8.1 8.1v24.3h-51.2c-1.5 0-2.7-1.2-2.7-2.7v-43.4c0-15.6 10-29.1 25-33.6l75.9-22.8h83.9l75.9 22.8c14.9 4.5 25 18 25 33.6v43.4c0 1.5-1.2 2.7-2.7 2.7h-51.2v-24.3c0-4.5-3.6-8.1-8.1-8.1s-8.1 3.6-8.1 8.1v32.3c0 4.5 3.6 8.1 8.1 8.1h59.3c10.4 0 18.9-8.5 18.9-18.9v-43.4C490.4 427 475.8 407.3 454 400.7zM238.9 226.4c-3.9 0-7.2-3.2-7.2-7.2 0-1.9 0.7-3.7 2.1-5.1l17.1-17.1c0.9-0.9 1.6-2 2-3.2l11.7-35.2c4-12.1 14.2-20.9 26.4-23.3v34.4c0 4.5 3.6 8.1 8.1 8.1 4.5 0 8.1-3.6 8.1-8.1v-43.1c0-1.5 1.2-2.7 2.7-2.7h43.1c1.5 0 2.7 1.2 2.7 2.7v43.1c0 4.5 3.6 8.1 8.1 8.1s8.1-3.6 8.1-8.1v-34.4c12.2 2.4 22.4 11.2 26.4 23.3l11.7 35.2c0.4 1.2 1.1 2.3 2 3.2l17.1 17.1c1.3 1.3 2.1 3.2 2.1 5.1 0 3.9-3.2 7.2-7.2 7.2v0H238.9zM351.4 361.1c5.1 0 10.1-0.5 15.1-1.6v17.7h-70.1v-17.7c4.9 1 10 1.6 15.1 1.6h9.2c4.5 0 8.1-3.6 8.1-8.1 0-4.5-3.6-8.1-8.1-8.1h-9.2c-28.1 0-51.7-20.2-55.9-48l-8.4-54.4h168.5l-8.4 54.4c-4.3 27.8-27.8 48-55.9 48 -4.5 0-8.1 3.6-8.1 8.1C343.3 357.5 347 361.1 351.4 361.1z" class="a"/><path d="M62 323.4c-16.3 0-29.6 13.3-29.6 29.6 0 16.3 13.3 29.6 29.6 29.6h75.5c16.3 0 29.6-13.3 29.6-29.6 0-16.3-13.3-29.6-29.6-29.6H62zM150.9 353c0 7.4-6 13.5-13.5 13.5H62c-7.4 0-13.5-6-13.5-13.5s6-13.5 13.5-13.5h75.5C144.9 339.5 150.9 345.6 150.9 353z" class="a"/><path d="M153.6 43.1H78.1c-7.4 0-13.5 6-13.5 13.5v32.3c0 7.4 6 13.5 13.5 13.5h29.6v19.3l-35.7 17.8c-4.6 2.3-7.4 6.9-7.4 12.1v4.1c0 5.1 2.9 9.8 7.4 12.1l35.7 17.8V204.8H78.1c-7.4 0-13.5 6-13.5 13.5v32.3c0 7.4 6 13.5 13.5 13.5H153.6c7.4 0 13.5-6 13.5-13.5v-8.1h24.3c4.5 0 8.1-3.6 8.1-8.1 0-4.5-3.6-8.1-8.1-8.1h-24.3v-8.1c0-7.4-6-13.5-13.5-13.5h-29.6v-19.3l35.7-17.8c4.6-2.3 7.5-6.9 7.5-12.1v-4.1c0-5.1-2.9-9.8-7.4-12.1l-35.7-17.8V102.4H153.6c7.4 0 13.5-6 13.5-13.5v-8.1h264.1v78.1c0 4.5 3.6 8.1 8.1 8.1 4.5 0 8.1-3.6 8.1-8.1V72.8c0-4.5-3.6-8.1-8.1-8.1H167.1v-8.1C167.1 49.2 161 43.1 153.6 43.1zM150.9 221v26.9H80.8v-26.9H150.9zM150.9 153.2v0.8l-35 17.5 -35-17.5v-0.8l35-17.5L150.9 153.2zM150.9 86.2h-35H80.8V59.3h70.1V86.2z" class="a"/><path d="M183.2 353c0 16.3 13.3 29.6 29.6 29.6s29.6-13.3 29.6-29.6c0-16.3-13.3-29.6-29.6-29.6S183.2 336.7 183.2 353zM226.4 353c0 7.4-6 13.5-13.5 13.5s-13.5-6-13.5-13.5 6-13.5 13.5-13.5S226.4 345.6 226.4 353z" class="a"/></svg>